<svg width="384" height="319" viewBox="0 0 384 319" fill="none" xmlns="http://www.w3.org/2000/svg">
<path d="M341.281 59.059L137.107 263.228C134.976 265.417 132.431 267.162 129.619 268.36C126.808 269.558 123.787 270.185 120.731 270.205C117.676 270.226 114.647 269.639 111.819 268.479C108.992 267.319 106.424 265.609 104.263 263.448C102.103 261.287 100.393 258.719 99.2337 255.891C98.0742 253.064 97.4878 250.035 97.5088 246.979C97.5299 243.923 98.1579 240.902 99.3562 238.091C100.555 235.28 102.299 232.735 104.49 230.604L308.68 26.4414C313.012 22.1445 318.869 19.7386 324.97 19.7503C331.072 19.762 336.92 22.1904 341.235 26.504C345.55 30.8176 347.98 36.665 347.994 42.7664C348.008 48.8677 345.604 54.726 341.308 59.059" fill="black" fill-opacity="0.2"/>
<path d="M273.856 191.642C269.522 187.331 263.656 184.91 257.542 184.91C251.428 184.91 245.563 187.331 241.228 191.642L153.367 279.482C151.224 281.624 149.525 284.167 148.365 286.966C147.206 289.764 146.609 292.764 146.608 295.794C146.608 301.912 149.038 307.781 153.364 312.107C157.69 316.434 163.558 318.865 169.676 318.866C175.795 318.866 181.663 316.436 185.99 312.11L273.856 224.243C278.164 219.908 280.581 214.046 280.581 207.935C280.581 201.824 278.164 195.961 273.856 191.626" fill="black" fill-opacity="0.2"/>
<path d="M376.956 88.5155C372.622 84.2058 366.759 81.7866 360.647 81.7866C354.535 81.7866 348.672 84.2058 344.338 88.5155L296.291 136.563C294.067 138.684 292.289 141.229 291.063 144.047C289.836 146.865 289.185 149.9 289.148 152.974C289.11 156.047 289.688 159.097 290.845 161.944C292.003 164.791 293.718 167.378 295.89 169.553C298.062 171.728 300.646 173.447 303.492 174.61C306.337 175.772 309.386 176.353 312.46 176.321C315.533 176.288 318.569 175.642 321.389 174.419C324.209 173.197 326.756 171.423 328.881 169.202L376.929 121.155C381.24 116.82 383.661 110.955 383.661 104.841C383.661 98.7267 381.24 92.8612 376.929 88.5264" fill="black" fill-opacity="0.2"/>
<path d="M263.487 6.73113C259.155 2.42009 253.291 0 247.179 0C241.066 0 235.203 2.42009 230.87 6.73113L205.629 31.9669C203.438 34.0979 201.694 36.6428 200.495 39.4538C199.297 42.2647 198.669 45.2858 198.648 48.3415C198.627 51.3971 199.213 54.4265 200.373 57.2537C201.532 60.081 203.242 62.6496 205.403 64.8105C207.563 66.9715 210.131 68.6816 212.958 69.8416C215.785 71.0016 218.815 71.5884 221.871 71.5679C224.926 71.5474 227.947 70.92 230.759 69.7221C233.57 68.5242 236.115 66.7797 238.246 64.59L263.482 39.3487C267.793 35.0158 270.213 29.1522 270.213 23.0399C270.213 16.9277 267.793 11.0641 263.482 6.73113" fill="black" fill-opacity="0.2"/>
<path d="M180.819 89.4001C176.486 85.089 170.623 82.6689 164.511 82.6689C158.398 82.6689 152.535 85.089 148.202 89.4001L55.7433 181.848C51.4165 186.174 48.9854 192.041 48.9849 198.16C48.9846 201.19 49.5811 204.189 50.7402 206.989C51.8994 209.788 53.5986 212.331 55.7406 214.473C57.8827 216.616 60.4257 218.315 63.2245 219.475C66.0234 220.635 69.0233 221.232 72.0529 221.232C78.1714 221.232 84.0396 218.802 88.3664 214.476L180.819 122.018C185.13 117.685 187.551 111.821 187.551 105.709C187.551 99.5966 185.13 93.733 180.819 89.4001" fill="black" fill-opacity="0.2"/>
<path d="M149.195 23.2204C144.86 18.9086 138.995 16.4883 132.881 16.4883C126.767 16.4883 120.901 18.9086 116.567 23.2204L6.82212 132.965C4.6657 135.104 2.95297 137.648 1.78225 140.451C0.611535 143.254 0.00588371 146.26 4.26534e-05 149.298C-0.0057984 152.335 0.588332 155.344 1.74826 158.151C2.90819 160.958 4.61104 163.509 6.75922 165.656C8.9074 167.804 11.4585 169.506 14.2662 170.665C17.0739 171.824 20.0828 172.417 23.1203 172.41C26.1577 172.403 29.1639 171.797 31.9663 170.625C34.7687 169.453 37.3122 167.74 39.4506 165.583L149.195 55.838C153.502 51.5029 155.92 45.6401 155.92 39.5292C155.92 33.4182 153.502 27.5554 149.195 23.2204" fill="black" fill-opacity="0.2"/>
<path d="M48.6776 25.8136C44.3424 21.5048 38.4784 19.0864 32.3662 19.0864C26.2539 19.0864 20.3899 21.5048 16.0546 25.8136L7.05118 34.817C4.89405 36.9554 3.18055 39.4989 2.0089 42.3013C0.837245 45.1037 0.230549 48.1099 0.223692 51.1473C0.216834 54.1848 0.809922 57.1937 1.96891 60.0014C3.1279 62.8091 4.82991 65.3602 6.97737 67.5084C9.12483 69.6565 11.6754 71.3595 14.4827 72.5194C17.29 73.6793 20.2987 74.2734 23.3362 74.2676C26.3736 74.2617 29.3801 73.6561 32.1829 72.4854C34.9857 71.3146 37.5296 69.6019 39.6688 67.4455L48.6776 58.4366C52.989 54.1027 55.4092 48.2382 55.4092 42.1251C55.4092 36.0119 52.989 30.1474 48.6776 25.8136" fill="black" fill-opacity="0.2"/>
</svg>