<svg width="809" height="766" viewBox="0 0 809 766" fill="none" xmlns="http://www.w3.org/2000/svg">
<g clip-path="url(#clip0_321_2555)">
<path d="M292.615 326.988V537.682C292.559 542.209 290.722 546.532 287.5 549.714C284.279 552.895 279.933 554.679 275.404 554.679C270.876 554.679 266.53 552.895 263.309 549.714C260.087 546.532 258.249 542.209 258.194 537.682V326.988C258.166 324.711 258.59 322.45 259.443 320.338C260.295 318.226 261.558 316.303 263.159 314.683C264.76 313.063 266.667 311.776 268.769 310.898C270.871 310.02 273.126 309.568 275.404 309.568C277.683 309.568 279.938 310.02 282.04 310.898C284.142 311.776 286.049 313.063 287.65 314.683C289.251 316.303 290.514 318.226 291.366 320.338C292.219 322.45 292.643 324.711 292.615 326.988" fill="black" fill-opacity="0.2"/>
<path d="M344.253 383.003V748.786C344.253 753.35 342.439 757.727 339.211 760.954C335.983 764.182 331.606 765.995 327.041 765.995C322.476 765.995 318.098 764.182 314.87 760.954C311.642 757.727 309.829 753.35 309.829 748.786V383.003C309.829 378.439 311.642 374.061 314.87 370.834C318.098 367.607 322.476 365.794 327.041 365.794C331.606 365.794 335.983 367.607 339.211 370.834C342.439 374.061 344.253 378.439 344.253 383.003" fill="black" fill-opacity="0.2"/>
<path d="M378.679 456.221C382.083 456.222 385.411 457.231 388.241 459.123C391.071 461.014 393.277 463.701 394.579 466.846C395.882 469.99 396.222 473.45 395.558 476.788C394.894 480.126 393.255 483.192 390.848 485.599C388.441 488.006 385.374 489.644 382.035 490.309C378.697 490.973 375.236 490.632 372.091 489.33C368.946 488.028 366.258 485.822 364.367 482.993C362.475 480.163 361.465 476.836 361.465 473.433C361.465 471.173 361.91 468.934 362.775 466.846C363.64 464.757 364.908 462.86 366.506 461.262C368.105 459.663 370.003 458.396 372.091 457.531C374.18 456.666 376.419 456.221 378.679 456.221" fill="black" fill-opacity="0.2"/>
<path d="M395.891 326.988V404.591C395.891 409.155 394.078 413.533 390.85 416.76C387.622 419.987 383.244 421.8 378.679 421.8C374.114 421.8 369.736 419.987 366.509 416.76C363.281 413.533 361.467 409.155 361.467 404.591V326.988C361.467 322.424 363.281 318.047 366.509 314.819C369.736 311.592 374.114 309.779 378.679 309.779C383.244 309.779 387.622 311.592 390.85 314.819C394.078 318.047 395.891 322.424 395.891 326.988" fill="black" fill-opacity="0.2"/>
<path d="M240.978 459.616V606.518C240.978 611.082 239.165 615.459 235.937 618.687C232.709 621.914 228.331 623.727 223.766 623.727C219.201 623.727 214.823 621.914 211.595 618.687C208.368 615.459 206.554 611.082 206.554 606.518V459.616C206.554 455.052 208.368 450.675 211.595 447.447C214.823 444.22 219.201 442.407 223.766 442.407C228.331 442.407 232.709 444.22 235.937 447.447C239.165 450.675 240.978 455.052 240.978 459.616" fill="black" fill-opacity="0.2"/>
<path d="M86.0627 606.518V640.939C86.0627 643.199 85.6174 645.437 84.7525 647.524C83.8875 649.612 82.6197 651.509 81.0214 653.107C79.4231 654.705 77.5257 655.973 75.4374 656.838C73.3492 657.703 71.111 658.148 68.8507 658.148C66.5904 658.148 64.3522 657.703 62.2639 656.838C60.1757 655.973 58.2782 654.705 56.6799 653.107C55.0817 651.509 53.8138 649.612 52.9489 647.524C52.0839 645.437 51.6387 643.199 51.6387 640.939V606.518C51.6387 604.258 52.0839 602.02 52.9489 599.932C53.8138 597.845 55.0817 595.947 56.6799 594.349C58.2782 592.751 60.1757 591.484 62.2639 590.619C64.3522 589.754 66.5904 589.309 68.8507 589.309C71.111 589.309 73.3492 589.754 75.4374 590.619C77.5257 591.484 79.4231 592.751 81.0214 594.349C82.6197 595.947 83.8875 597.845 84.7525 599.932C85.6174 602.02 86.0627 604.258 86.0627 606.518" fill="black" fill-opacity="0.2"/>
<path d="M86.0627 154.892V537.682C86.0627 542.246 84.2493 546.623 81.0214 549.85C77.7935 553.078 73.4156 554.891 68.8507 554.891C64.2858 554.891 59.9078 553.078 56.6799 549.85C53.4521 546.623 51.6387 542.246 51.6387 537.682V154.892C51.6387 152.632 52.0839 150.394 52.9489 148.306C53.8138 146.219 55.0817 144.321 56.6799 142.723C58.2782 141.125 60.1757 139.858 62.2639 138.993C64.3522 138.128 66.5904 137.683 68.8507 137.683C71.111 137.683 73.3492 138.128 75.4374 138.993C77.5257 139.858 79.4231 141.125 81.0214 142.723C82.6197 144.321 83.8875 146.219 84.7525 148.306C85.6174 150.394 86.0627 152.632 86.0627 154.892Z" fill="black" fill-opacity="0.2"/>
<path d="M137.695 326.988V748.788C137.723 751.066 137.299 753.327 136.446 755.44C135.594 757.552 134.33 759.475 132.729 761.095C131.128 762.716 129.221 764.003 127.119 764.881C125.016 765.759 122.761 766.211 120.482 766.211C118.204 766.211 115.948 765.759 113.846 764.881C111.743 764.003 109.836 762.716 108.235 761.095C106.634 759.475 105.37 757.552 104.518 755.44C103.665 753.327 103.241 751.066 103.269 748.788V326.988C103.241 324.71 103.665 322.449 104.518 320.337C105.37 318.224 106.634 316.302 108.235 314.681C109.836 313.06 111.743 311.774 113.846 310.895C115.948 310.017 118.204 309.565 120.482 309.565C122.761 309.565 125.016 310.017 127.119 310.895C129.221 311.774 131.128 313.06 132.729 314.681C134.33 316.302 135.594 318.224 136.446 320.337C137.299 322.449 137.723 324.71 137.695 326.988Z" fill="black" fill-opacity="0.2"/>
<path d="M172.125 456.221C175.529 456.222 178.857 457.231 181.687 459.123C184.517 461.014 186.723 463.701 188.025 466.846C189.327 469.99 189.668 473.45 189.004 476.788C188.34 480.126 186.7 483.192 184.293 485.599C181.886 488.006 178.82 489.644 175.481 490.309C172.143 490.973 168.682 490.632 165.537 489.33C162.392 488.028 159.704 485.822 157.812 482.993C155.921 480.163 154.911 476.836 154.911 473.433C154.911 468.868 156.724 464.49 159.953 461.262C163.181 458.035 167.56 456.221 172.125 456.221Z" fill="black" fill-opacity="0.2"/>
<path d="M189.34 265.856V404.591C189.368 406.869 188.944 409.13 188.091 411.242C187.239 413.355 185.975 415.277 184.374 416.898C182.773 418.519 180.866 419.806 178.764 420.684C176.661 421.562 174.406 422.014 172.127 422.014C169.849 422.014 167.593 421.562 165.491 420.684C163.388 419.806 161.481 418.519 159.88 416.898C158.279 415.277 157.015 413.355 156.163 411.242C155.31 409.13 154.886 406.869 154.914 404.591V265.856C154.886 263.578 155.31 261.318 156.163 259.205C157.015 257.092 158.279 255.17 159.88 253.549C161.481 251.929 163.388 250.642 165.491 249.764C167.593 248.885 169.849 248.433 172.127 248.433C174.406 248.433 176.661 248.885 178.764 249.764C180.866 250.642 182.773 251.929 184.374 253.549C185.975 255.17 187.239 257.092 188.091 259.205C188.944 261.318 189.368 263.578 189.34 265.856" fill="black" fill-opacity="0.2"/>
<path d="M34.424 459.616V606.518C34.424 611.082 32.6106 615.459 29.3827 618.687C26.1548 621.914 21.7769 623.727 17.212 623.727C12.6471 623.727 8.26915 621.914 5.04128 618.687C1.8134 615.459 0 611.082 0 606.518L0 459.616C0 455.052 1.8134 450.675 5.04128 447.447C8.26915 444.22 12.6471 442.407 17.212 442.407C21.7769 442.407 26.1548 444.22 29.3827 447.447C32.6106 450.675 34.424 455.052 34.424 459.616" fill="black" fill-opacity="0.2"/>
<path d="M34.424 326.988V390.777C34.424 395.341 32.6106 399.719 29.3827 402.946C26.1548 406.173 21.7769 407.986 17.212 407.986C12.6471 407.986 8.26915 406.173 5.04128 402.946C1.8134 399.719 0 395.341 0 390.777L0 326.988C0 322.424 1.8134 318.047 5.04128 314.819C8.26915 311.592 12.6471 309.779 17.212 309.779C21.7769 309.779 26.1548 311.592 29.3827 314.819C32.6106 318.047 34.424 322.424 34.424 326.988" fill="black" fill-opacity="0.2"/>
<path d="M240.978 223.731V390.775C240.978 395.339 239.165 399.716 235.937 402.943C232.709 406.171 228.331 407.984 223.766 407.984C219.201 407.984 214.823 406.171 211.595 402.943C208.368 399.716 206.554 395.339 206.554 390.775V223.731C206.554 219.167 208.368 214.79 211.595 211.562C214.823 208.335 219.201 206.522 223.766 206.522C228.331 206.522 232.709 208.335 235.937 211.562C239.165 214.79 240.978 219.167 240.978 223.731" fill="black" fill-opacity="0.2"/>
<path d="M292.615 154.892V258.149C292.643 260.427 292.219 262.687 291.366 264.799C290.514 266.912 289.251 268.834 287.65 270.454C286.049 272.075 284.142 273.361 282.04 274.239C279.938 275.118 277.683 275.57 275.404 275.57C273.126 275.57 270.871 275.118 268.769 274.239C266.667 273.361 264.76 272.075 263.159 270.454C261.558 268.834 260.295 266.912 259.443 264.799C258.59 262.687 258.166 260.427 258.194 258.149V154.892C258.166 152.615 258.59 150.354 259.443 148.242C260.295 146.13 261.558 144.207 263.159 142.587C264.76 140.967 266.667 139.68 268.769 138.802C270.871 137.924 273.126 137.472 275.404 137.472C277.683 137.472 279.938 137.924 282.04 138.802C284.142 139.68 286.049 140.967 287.65 142.587C289.251 144.207 290.514 146.13 291.366 148.242C292.219 150.354 292.643 152.615 292.615 154.892" fill="black" fill-opacity="0.2"/>
<path d="M344.253 17.2116V314.161C344.253 318.725 342.439 323.102 339.211 326.33C335.983 329.557 331.606 331.37 327.041 331.37C322.476 331.37 318.098 329.557 314.87 326.33C311.642 323.102 309.829 318.725 309.829 314.161V17.2116C309.829 12.6475 311.642 8.27031 314.87 5.04299C318.098 1.81566 322.476 0.00256348 327.041 0.00256348C331.606 0.00256348 335.983 1.81566 339.211 5.04299C342.439 8.27031 344.253 12.6475 344.253 17.2116" fill="black" fill-opacity="0.2"/>
<path d="M34.424 223.731V258.146C34.424 262.711 32.6106 267.088 29.3827 270.315C26.1548 273.542 21.7769 275.356 17.212 275.356C12.6471 275.356 8.26915 273.542 5.04128 270.315C1.8134 267.088 0 262.711 0 258.146L0 223.731C0 219.167 1.8134 214.79 5.04128 211.562C8.26915 208.335 12.6471 206.522 17.212 206.522C21.7769 206.522 26.1548 208.335 29.3827 211.562C32.6106 214.79 34.424 219.167 34.424 223.731" fill="black" fill-opacity="0.2"/>
<path d="M705.72 606.518V640.939C705.72 645.503 703.907 649.88 700.679 653.107C697.451 656.335 693.073 658.148 688.508 658.148C683.943 658.148 679.565 656.335 676.337 653.107C673.109 649.88 671.296 645.503 671.296 640.939V606.518C671.296 601.954 673.109 597.577 676.337 594.349C679.565 591.122 683.943 589.309 688.508 589.309C693.073 589.309 697.451 591.122 700.679 594.349C703.907 597.577 705.72 601.954 705.72 606.518" fill="black" fill-opacity="0.2"/>
<path d="M705.72 326.988V537.682C705.72 542.246 703.907 546.623 700.679 549.85C697.451 553.078 693.073 554.891 688.508 554.891C683.943 554.891 679.565 553.078 676.337 549.85C673.109 546.623 671.296 542.246 671.296 537.682V326.988C671.296 322.424 673.109 318.047 676.337 314.819C679.565 311.592 683.943 309.779 688.508 309.779C693.073 309.779 697.451 311.592 700.679 314.819C703.907 318.047 705.72 322.424 705.72 326.988" fill="black" fill-opacity="0.2"/>
<path d="M757.359 383.003V748.786C757.359 753.35 755.545 757.727 752.317 760.954C749.09 764.182 744.712 765.995 740.147 765.995C735.582 765.995 731.204 764.182 727.976 760.954C724.748 757.727 722.935 753.35 722.935 748.786V383.003C722.935 378.439 724.748 374.061 727.976 370.834C731.204 367.607 735.582 365.794 740.147 365.794C744.712 365.794 749.09 367.607 752.317 370.834C755.545 374.061 757.359 378.439 757.359 383.003" fill="black" fill-opacity="0.2"/>
<path d="M791.785 456.221C795.189 456.222 798.516 457.231 801.346 459.123C804.177 461.014 806.382 463.701 807.685 466.846C808.987 469.99 809.328 473.45 808.664 476.788C807.999 480.126 806.36 483.192 803.953 485.599C801.546 488.006 798.479 489.644 795.141 490.309C791.802 490.973 788.342 490.632 785.197 489.33C782.052 488.028 779.364 485.822 777.472 482.993C775.581 480.163 774.571 476.836 774.57 473.433C774.57 468.868 776.384 464.49 779.612 461.262C782.841 458.035 787.219 456.221 791.785 456.221" fill="black" fill-opacity="0.2"/>
<path d="M809 326.988V404.591C809.028 406.869 808.604 409.13 807.751 411.242C806.899 413.355 805.635 415.277 804.034 416.898C802.433 418.519 800.526 419.806 798.423 420.684C796.321 421.562 794.065 422.014 791.787 422.014C789.508 422.014 787.253 421.562 785.15 420.684C783.048 419.806 781.141 418.519 779.54 416.898C777.939 415.277 776.675 413.355 775.823 411.242C774.97 409.13 774.546 406.869 774.574 404.591V326.988C774.546 324.71 774.97 322.449 775.823 320.337C776.675 318.224 777.939 316.302 779.54 314.681C781.141 313.06 783.048 311.774 785.15 310.895C787.253 310.017 789.508 309.565 791.787 309.565C794.065 309.565 796.321 310.017 798.423 310.895C800.526 311.774 802.433 313.06 804.034 314.681C805.635 316.302 806.899 318.224 807.751 320.337C808.604 322.449 809.028 324.71 809 326.988" fill="black" fill-opacity="0.2"/>
<path d="M654.082 459.616V606.518C654.11 608.796 653.685 611.056 652.833 613.168C651.981 615.281 650.717 617.203 649.116 618.823C647.515 620.444 645.609 621.73 643.507 622.608C641.405 623.486 639.149 623.939 636.871 623.939C634.593 623.939 632.338 623.486 630.236 622.608C628.134 621.73 626.227 620.444 624.626 618.823C623.025 617.203 621.762 615.281 620.909 613.168C620.057 611.056 619.632 608.796 619.66 606.518V459.616C619.632 457.339 620.057 455.078 620.909 452.966C621.762 450.854 623.025 448.932 624.626 447.311C626.227 445.691 628.134 444.404 630.236 443.526C632.338 442.648 634.593 442.196 636.871 442.196C639.149 442.196 641.405 442.648 643.507 443.526C645.609 444.404 647.515 445.691 649.116 447.311C650.717 448.932 651.981 450.854 652.833 452.966C653.685 455.078 654.11 457.339 654.082 459.616" fill="black" fill-opacity="0.2"/>
<path d="M499.168 606.518V640.939C499.113 645.467 497.275 649.79 494.052 652.972C490.83 656.154 486.484 657.939 481.955 657.939C477.426 657.939 473.079 656.154 469.857 652.972C466.635 649.79 464.797 645.467 464.742 640.939V606.518C464.797 601.99 466.635 597.667 469.857 594.485C473.079 591.302 477.426 589.518 481.955 589.518C486.484 589.518 490.83 591.302 494.052 594.485C497.275 597.667 499.113 601.99 499.168 606.518Z" fill="black" fill-opacity="0.2"/>
<path d="M499.169 154.892V537.682C499.113 542.21 497.275 546.533 494.053 549.715C490.831 552.898 486.485 554.682 481.956 554.682C477.427 554.682 473.08 552.898 469.858 549.715C466.636 546.533 464.798 542.21 464.743 537.682V154.892C464.715 152.614 465.139 150.353 465.992 148.241C466.844 146.128 468.108 144.206 469.709 142.585C471.31 140.964 473.217 139.678 475.319 138.799C477.422 137.921 479.677 137.469 481.956 137.469C484.234 137.469 486.49 137.921 488.592 138.799C490.695 139.678 492.602 140.964 494.203 142.585C495.804 144.206 497.067 146.128 497.92 148.241C498.772 150.353 499.197 152.614 499.169 154.892Z" fill="black" fill-opacity="0.2"/>
<path d="M585.231 456.221C588.635 456.221 591.963 457.23 594.793 459.121C597.624 461.012 599.83 463.7 601.132 466.844C602.435 469.988 602.776 473.448 602.112 476.787C601.448 480.125 599.809 483.191 597.403 485.598C594.996 488.005 591.929 489.644 588.59 490.308C585.252 490.973 581.791 490.632 578.646 489.33C575.501 488.028 572.813 485.823 570.921 482.993C569.029 480.163 568.02 476.836 568.019 473.433C568.019 471.173 568.464 468.935 569.328 466.846C570.193 464.758 571.461 462.861 573.059 461.263C574.658 459.664 576.555 458.396 578.644 457.531C580.732 456.666 582.97 456.221 585.231 456.221Z" fill="black" fill-opacity="0.2"/>
<path d="M602.445 265.856V404.591C602.445 409.155 600.632 413.533 597.404 416.76C594.176 419.987 589.798 421.8 585.233 421.8C580.669 421.8 576.291 419.987 573.063 416.76C569.835 413.533 568.021 409.155 568.021 404.591V265.856C568.021 261.292 569.835 256.915 573.063 253.688C576.291 250.46 580.669 248.647 585.233 248.647C589.798 248.647 594.176 250.46 597.404 253.688C600.632 256.915 602.445 261.292 602.445 265.856" fill="black" fill-opacity="0.2"/>
<path d="M447.53 459.616V606.518C447.53 611.082 445.717 615.459 442.489 618.687C439.261 621.914 434.883 623.727 430.318 623.727C425.753 623.727 421.375 621.914 418.147 618.687C414.919 615.459 413.106 611.082 413.106 606.518V459.616C413.106 455.052 414.919 450.675 418.147 447.447C421.375 444.22 425.753 442.407 430.318 442.407C434.883 442.407 439.261 444.22 442.489 447.447C445.717 450.675 447.53 455.052 447.53 459.616" fill="black" fill-opacity="0.2"/>
<path d="M447.53 326.988V390.777C447.53 395.341 445.717 399.719 442.489 402.946C439.261 406.173 434.883 407.986 430.318 407.986C425.753 407.986 421.375 406.173 418.147 402.946C414.919 399.719 413.106 395.341 413.106 390.777V326.988C413.106 322.424 414.919 318.047 418.147 314.819C421.375 311.592 425.753 309.779 430.318 309.779C434.883 309.779 439.261 311.592 442.489 314.819C445.717 318.047 447.53 322.424 447.53 326.988" fill="black" fill-opacity="0.2"/>
<path d="M654.082 223.731V390.775C654.11 393.052 653.685 395.313 652.833 397.425C651.981 399.537 650.717 401.459 649.116 403.08C647.515 404.7 645.609 405.987 643.507 406.865C641.405 407.743 639.149 408.195 636.871 408.195C634.593 408.195 632.338 407.743 630.236 406.865C628.134 405.987 626.227 404.7 624.626 403.08C623.025 401.459 621.762 399.537 620.909 397.425C620.057 395.313 619.632 393.052 619.66 390.775V223.731C619.632 221.453 620.057 219.193 620.909 217.081C621.762 214.968 623.025 213.046 624.626 211.426C626.227 209.805 628.134 208.519 630.236 207.641C632.338 206.763 634.593 206.311 636.871 206.311C639.149 206.311 641.405 206.763 643.507 207.641C645.609 208.519 647.515 209.805 649.116 211.426C650.717 213.046 651.981 214.968 652.833 217.081C653.685 219.193 654.11 221.453 654.082 223.731" fill="black" fill-opacity="0.2"/>
<path d="M705.72 154.892V258.149C705.72 262.713 703.907 267.09 700.679 270.318C697.451 273.545 693.073 275.358 688.508 275.358C683.943 275.358 679.565 273.545 676.337 270.318C673.109 267.09 671.296 262.713 671.296 258.149V154.892C671.296 150.328 673.109 145.951 676.337 142.723C679.565 139.496 683.943 137.683 688.508 137.683C693.073 137.683 697.451 139.496 700.679 142.723C703.907 145.951 705.72 150.328 705.72 154.892" fill="black" fill-opacity="0.2"/>
<path d="M447.53 223.731V258.146C447.53 262.711 445.717 267.088 442.489 270.315C439.261 273.542 434.883 275.356 430.318 275.356C425.753 275.356 421.375 273.542 418.147 270.315C414.919 267.088 413.106 262.711 413.106 258.146V223.731C413.106 219.167 414.919 214.79 418.147 211.562C421.375 208.335 425.753 206.522 430.318 206.522C434.883 206.522 439.261 208.335 442.489 211.562C445.717 214.79 447.53 219.167 447.53 223.731" fill="black" fill-opacity="0.2"/>
<path d="M550.808 17.2117V258.149C550.836 260.427 550.411 262.688 549.559 264.8C548.706 266.913 547.443 268.835 545.842 270.456C544.24 272.077 542.333 273.364 540.231 274.242C538.129 275.12 535.873 275.572 533.594 275.572C531.316 275.572 529.06 275.12 526.958 274.242C524.856 273.364 522.949 272.077 521.347 270.456C519.746 268.835 518.483 266.913 517.63 264.8C516.778 262.688 516.353 260.427 516.381 258.149V17.2117C516.353 14.9338 516.778 12.673 517.63 10.5604C518.483 8.44782 519.746 6.52544 521.347 4.90474C522.949 3.28405 524.856 1.99728 526.958 1.11904C529.06 0.240803 531.316 -0.211426 533.594 -0.211426C535.873 -0.211426 538.129 0.240803 540.231 1.11904C542.333 1.99728 544.24 3.28405 545.842 4.90474C547.443 6.52544 548.706 8.44782 549.559 10.5604C550.411 12.673 550.836 14.9338 550.808 17.2117" fill="black" fill-opacity="0.2"/>
</g>
<defs>
<clipPath id="clip0_321_2555">
<rect width="809" height="766" fill="white"/>
</clipPath>
</defs>
</svg>