<svg width="692" height="655" viewBox="0 0 692 655" fill="none" xmlns="http://www.w3.org/2000/svg">
<g clip-path="url(#clip0_302_1775)">
<path d="M250.296 279.605V459.767C250.248 463.638 248.676 467.335 245.921 470.055C243.165 472.776 239.448 474.301 235.574 474.301C231.701 474.301 227.984 472.776 225.228 470.055C222.472 467.335 220.9 463.638 220.853 459.767V279.605C220.829 277.657 221.192 275.724 221.921 273.918C222.65 272.112 223.731 270.468 225.1 269.083C226.469 267.697 228.1 266.597 229.898 265.846C231.696 265.095 233.626 264.708 235.574 264.708C237.523 264.708 239.452 265.095 241.25 265.846C243.048 266.597 244.679 267.697 246.049 269.083C247.418 270.468 248.499 272.112 249.228 273.918C249.957 275.724 250.32 277.657 250.296 279.605" fill="#E1E9FF"/>
<path d="M294.465 327.502V640.28C294.465 644.183 292.914 647.926 290.153 650.686C287.392 653.445 283.647 654.995 279.742 654.995C275.838 654.995 272.093 653.445 269.332 650.686C266.571 647.926 265.02 644.183 265.02 640.28V327.502C265.02 323.599 266.571 319.857 269.332 317.097C272.093 314.337 275.838 312.787 279.742 312.787C283.647 312.787 287.392 314.337 290.153 317.097C292.914 319.857 294.465 323.599 294.465 327.502" fill="#E1E9FF"/>
<path d="M323.914 390.111C326.826 390.111 329.672 390.975 332.093 392.592C334.514 394.209 336.401 396.507 337.515 399.196C338.629 401.885 338.92 404.843 338.352 407.697C337.784 410.552 336.382 413.174 334.323 415.231C332.264 417.289 329.641 418.691 326.785 419.259C323.929 419.826 320.969 419.535 318.279 418.422C315.589 417.308 313.29 415.422 311.672 413.003C310.054 410.583 309.19 407.738 309.189 404.828C309.189 402.895 309.57 400.981 310.31 399.196C311.05 397.41 312.134 395.787 313.502 394.421C314.869 393.054 316.492 391.97 318.279 391.23C320.066 390.491 321.981 390.11 323.914 390.111" fill="#E1E9FF"/>
<path d="M338.637 279.605V345.962C338.637 349.865 337.086 353.608 334.325 356.368C331.564 359.127 327.819 360.678 323.914 360.678C320.009 360.678 316.265 359.127 313.504 356.368C310.743 353.608 309.191 349.865 309.191 345.962V279.605C309.191 275.702 310.743 271.959 313.504 269.199C316.265 266.44 320.009 264.889 323.914 264.889C327.819 264.889 331.564 266.44 334.325 269.199C337.086 271.959 338.637 275.702 338.637 279.605" fill="#E1E9FF"/>
<path d="M206.127 393.014V518.628C206.127 522.531 204.576 526.274 201.815 529.034C199.054 531.793 195.309 533.344 191.404 533.344C187.5 533.344 183.755 531.793 180.994 529.034C178.233 526.274 176.682 522.531 176.682 518.628V393.014C176.682 389.111 178.233 385.368 180.994 382.609C183.755 379.849 187.5 378.298 191.404 378.298C195.309 378.298 199.054 379.849 201.815 382.609C204.576 385.368 206.127 389.111 206.127 393.014" fill="#E1E9FF"/>
<path d="M73.6154 518.628V548.061C73.6154 549.994 73.2346 551.907 72.4947 553.692C71.7548 555.478 70.6703 557.1 69.3032 558.467C67.9361 559.833 66.3131 560.917 64.5268 561.656C62.7406 562.396 60.8261 562.777 58.8927 562.777C56.9592 562.777 55.0448 562.396 53.2585 561.656C51.4723 560.917 49.8492 559.833 48.4821 558.467C47.115 557.1 46.0305 555.478 45.2906 553.692C44.5507 551.907 44.1699 549.994 44.1699 548.061V518.628C44.1699 516.696 44.5507 514.782 45.2906 512.997C46.0305 511.212 47.115 509.589 48.4821 508.223C49.8492 506.857 51.4723 505.773 53.2585 505.033C55.0448 504.294 56.9592 503.913 58.8927 503.913C60.8261 503.913 62.7406 504.294 64.5268 505.033C66.3131 505.773 67.9361 506.857 69.3032 508.223C70.6703 509.589 71.7548 511.212 72.4947 512.997C73.2346 514.782 73.6154 516.696 73.6154 518.628" fill="#E1E9FF"/>
<path d="M73.6154 132.447V459.767C73.6154 463.67 72.0643 467.413 69.3032 470.172C66.5422 472.932 62.7974 474.482 58.8927 474.482C54.9879 474.482 51.2432 472.932 48.4821 470.172C45.7211 467.413 44.1699 463.67 44.1699 459.767V132.447C44.1699 130.514 44.5507 128.601 45.2906 126.816C46.0305 125.03 47.115 123.408 48.4821 122.042C49.8492 120.675 51.4723 119.591 53.2585 118.852C55.0448 118.112 56.9592 117.732 58.8927 117.732C60.8261 117.732 62.7406 118.112 64.5268 118.852C66.3131 119.591 67.9361 120.675 69.3032 122.042C70.6703 123.408 71.7548 125.03 72.4947 126.816C73.2346 128.601 73.6154 130.514 73.6154 132.447Z" fill="#E1E9FF"/>
<path d="M117.781 279.605V640.282C117.805 642.23 117.442 644.163 116.712 645.97C115.983 647.776 114.902 649.42 113.533 650.806C112.163 652.192 110.532 653.292 108.734 654.043C106.935 654.794 105.006 655.181 103.057 655.181C101.108 655.181 99.1785 654.794 97.3802 654.043C95.582 653.292 93.9507 652.192 92.5811 650.806C91.2115 649.42 90.1308 647.776 89.4016 645.97C88.6724 644.163 88.3092 642.23 88.3331 640.282V279.605C88.3092 277.657 88.6724 275.724 89.4016 273.917C90.1308 272.111 91.2115 270.467 92.5811 269.081C93.9507 267.695 95.582 266.595 97.3802 265.844C99.1785 265.093 101.108 264.706 103.057 264.706C105.006 264.706 106.935 265.093 108.734 265.844C110.532 266.595 112.163 267.695 113.533 269.081C114.902 270.467 115.983 272.111 116.712 273.917C117.442 275.724 117.805 277.657 117.781 279.605Z" fill="#E1E9FF"/>
<path d="M147.233 390.111C150.144 390.111 152.991 390.975 155.411 392.592C157.832 394.209 159.719 396.507 160.833 399.196C161.947 401.885 162.238 404.843 161.67 407.697C161.102 410.552 159.7 413.174 157.641 415.231C155.582 417.289 152.959 418.691 150.103 419.259C147.248 419.826 144.288 419.535 141.597 418.422C138.907 417.308 136.608 415.422 134.99 413.003C133.372 410.583 132.508 407.738 132.508 404.828C132.508 400.925 134.059 397.181 136.821 394.421C139.582 391.661 143.327 390.111 147.233 390.111Z" fill="#E1E9FF"/>
<path d="M161.957 227.331V345.962C161.981 347.91 161.617 349.843 160.888 351.65C160.159 353.456 159.078 355.1 157.709 356.486C156.339 357.872 154.708 358.972 152.91 359.723C151.111 360.474 149.182 360.861 147.233 360.861C145.284 360.861 143.354 360.474 141.556 359.723C139.758 358.972 138.127 357.872 136.757 356.486C135.387 355.1 134.307 353.456 133.577 351.65C132.848 349.843 132.485 347.91 132.509 345.962V227.331C132.485 225.384 132.848 223.45 133.577 221.644C134.307 219.837 135.387 218.194 136.757 216.808C138.127 215.422 139.758 214.322 141.556 213.571C143.354 212.82 145.284 212.433 147.233 212.433C149.182 212.433 151.111 212.82 152.91 213.571C154.708 214.322 156.339 215.422 157.709 216.808C159.078 218.194 160.159 219.837 160.888 221.644C161.617 223.45 161.981 225.384 161.957 227.331" fill="#E1E9FF"/>
<path d="M29.4455 393.014V518.628C29.4455 522.531 27.8943 526.274 25.1333 529.034C22.3722 531.793 18.6275 533.344 14.7227 533.344C10.818 533.344 7.07324 531.793 4.31219 529.034C1.55114 526.274 0 522.531 0 518.628L0 393.014C0 389.111 1.55114 385.368 4.31219 382.609C7.07324 379.849 10.818 378.298 14.7227 378.298C18.6275 378.298 22.3722 379.849 25.1333 382.609C27.8943 385.368 29.4455 389.111 29.4455 393.014" fill="#E1E9FF"/>
<path d="M29.4455 279.605V334.15C29.4455 338.053 27.8943 341.796 25.1333 344.556C22.3722 347.315 18.6275 348.866 14.7227 348.866C10.818 348.866 7.07324 347.315 4.31219 344.556C1.55114 341.796 0 338.053 0 334.15L0 279.605C0 275.702 1.55114 271.959 4.31219 269.199C7.07324 266.44 10.818 264.889 14.7227 264.889C18.6275 264.889 22.3722 266.44 25.1333 269.199C27.8943 271.959 29.4455 275.702 29.4455 279.605" fill="#E1E9FF"/>
<path d="M206.127 191.31V334.148C206.127 338.051 204.576 341.794 201.815 344.553C199.054 347.313 195.309 348.863 191.404 348.863C187.5 348.863 183.755 347.313 180.994 344.553C178.233 341.794 176.682 338.051 176.682 334.148V191.31C176.682 187.408 178.233 183.665 180.994 180.905C183.755 178.145 187.5 176.595 191.404 176.595C195.309 176.595 199.054 178.145 201.815 180.905C204.576 183.665 206.127 187.408 206.127 191.31" fill="#E1E9FF"/>
<path d="M250.296 132.447V220.741C250.32 222.689 249.957 224.622 249.228 226.428C248.499 228.234 247.418 229.877 246.049 231.263C244.679 232.649 243.048 233.749 241.25 234.5C239.452 235.251 237.523 235.637 235.574 235.637C233.626 235.637 231.696 235.251 229.898 234.5C228.1 233.749 226.469 232.649 225.1 231.263C223.731 229.877 222.65 228.234 221.921 226.428C221.192 224.622 220.829 222.689 220.853 220.741V132.447C220.829 130.499 221.192 128.567 221.921 126.76C222.65 124.954 223.731 123.311 225.1 121.925C226.469 120.539 228.1 119.439 229.898 118.688C231.696 117.937 233.626 117.551 235.574 117.551C237.523 117.551 239.452 117.937 241.25 118.688C243.048 119.439 244.679 120.539 246.049 121.925C247.418 123.311 248.499 124.954 249.228 126.76C249.957 128.567 250.32 130.499 250.296 132.447" fill="#E1E9FF"/>
<path d="M294.465 14.7175V268.636C294.465 272.539 292.914 276.282 290.153 279.042C287.392 281.801 283.647 283.352 279.742 283.352C275.838 283.352 272.093 281.801 269.332 279.042C266.571 276.282 265.02 272.539 265.02 268.636V14.7175C265.02 10.8148 266.571 7.07188 269.332 4.31222C272.093 1.55256 275.838 0.00219727 279.742 0.00219727C283.647 0.00219727 287.392 1.55256 290.153 4.31222C292.914 7.07188 294.465 10.8148 294.465 14.7175" fill="#E1E9FF"/>
<path d="M29.4455 191.31V220.739C29.4455 224.642 27.8943 228.385 25.1333 231.144C22.3722 233.904 18.6275 235.454 14.7227 235.454C10.818 235.454 7.07324 233.904 4.31219 231.144C1.55114 228.385 0 224.642 0 220.739L0 191.31C0 187.408 1.55114 183.665 4.31219 180.905C7.07324 178.145 10.818 176.595 14.7227 176.595C18.6275 176.595 22.3722 178.145 25.1333 180.905C27.8943 183.665 29.4455 187.408 29.4455 191.31" fill="#E1E9FF"/>
<path d="M603.656 518.628V548.061C603.656 551.964 602.105 555.707 599.344 558.467C596.583 561.226 592.838 562.777 588.934 562.777C585.029 562.777 581.284 561.226 578.523 558.467C575.762 555.707 574.211 551.964 574.211 548.061V518.628C574.211 514.726 575.762 510.983 578.523 508.223C581.284 505.463 585.029 503.913 588.934 503.913C592.838 503.913 596.583 505.463 599.344 508.223C602.105 510.983 603.656 514.726 603.656 518.628" fill="#E1E9FF"/>
<path d="M603.656 279.605V459.767C603.656 463.67 602.105 467.413 599.344 470.172C596.583 472.932 592.838 474.482 588.934 474.482C585.029 474.482 581.284 472.932 578.523 470.172C575.762 467.413 574.211 463.67 574.211 459.767V279.605C574.211 275.702 575.762 271.959 578.523 269.199C581.284 266.44 585.029 264.889 588.934 264.889C592.838 264.889 596.583 266.44 599.344 269.199C602.105 271.959 603.656 275.702 603.656 279.605" fill="#E1E9FF"/>
<path d="M647.826 327.502V640.28C647.826 644.183 646.275 647.926 643.514 650.686C640.753 653.445 637.008 654.995 633.104 654.995C629.199 654.995 625.454 653.445 622.693 650.686C619.932 647.926 618.381 644.183 618.381 640.28V327.502C618.381 323.599 619.932 319.857 622.693 317.097C625.454 314.337 629.199 312.787 633.104 312.787C637.008 312.787 640.753 314.337 643.514 317.097C646.275 319.857 647.826 323.599 647.826 327.502" fill="#E1E9FF"/>
<path d="M677.274 390.111C680.186 390.111 683.032 390.975 685.453 392.592C687.873 394.209 689.76 396.507 690.874 399.196C691.988 401.885 692.28 404.843 691.711 407.697C691.143 410.552 689.741 413.174 687.682 415.231C685.623 417.289 683 418.691 680.144 419.259C677.289 419.826 674.329 419.535 671.638 418.422C668.948 417.308 666.649 415.422 665.031 413.003C663.413 410.583 662.549 407.738 662.549 404.828C662.549 400.925 664.1 397.181 666.862 394.421C669.623 391.661 673.369 390.111 677.274 390.111" fill="#E1E9FF"/>
<path d="M692 279.605V345.962C692.024 347.91 691.66 349.843 690.931 351.65C690.202 353.456 689.121 355.1 687.752 356.486C686.382 357.872 684.751 358.972 682.953 359.723C681.154 360.474 679.225 360.861 677.276 360.861C675.327 360.861 673.397 360.474 671.599 359.723C669.801 358.972 668.17 357.872 666.8 356.486C665.43 355.1 664.35 353.456 663.62 351.65C662.891 349.843 662.528 347.91 662.552 345.962V279.605C662.528 277.657 662.891 275.724 663.62 273.917C664.35 272.111 665.43 270.467 666.8 269.081C668.17 267.695 669.801 266.595 671.599 265.844C673.397 265.093 675.327 264.706 677.276 264.706C679.225 264.706 681.154 265.093 682.953 265.844C684.751 266.595 686.382 267.695 687.752 269.081C689.121 270.467 690.202 272.111 690.931 273.917C691.66 275.724 692.024 277.657 692 279.605" fill="#E1E9FF"/>
<path d="M559.487 393.014V518.628C559.511 520.576 559.148 522.509 558.419 524.315C557.69 526.121 556.609 527.765 555.24 529.15C553.871 530.536 552.24 531.636 550.442 532.387C548.644 533.138 546.714 533.524 544.766 533.524C542.817 533.524 540.888 533.138 539.09 532.387C537.292 531.636 535.661 530.536 534.291 529.15C532.922 527.765 531.841 526.121 531.112 524.315C530.383 522.509 530.02 520.576 530.044 518.628V393.014C530.02 391.066 530.383 389.133 531.112 387.327C531.841 385.521 532.922 383.877 534.291 382.492C535.661 381.106 537.292 380.006 539.09 379.255C540.888 378.504 542.817 378.118 544.766 378.118C546.714 378.118 548.644 378.504 550.442 379.255C552.24 380.006 553.871 381.106 555.24 382.492C556.609 383.877 557.69 385.521 558.419 387.327C559.148 389.133 559.511 391.066 559.487 393.014" fill="#E1E9FF"/>
<path d="M426.977 518.628V548.061C426.929 551.933 425.357 555.63 422.601 558.351C419.845 561.072 416.127 562.598 412.253 562.598C408.379 562.598 404.661 561.072 401.905 558.351C399.149 555.63 397.577 551.933 397.529 548.061V518.628C397.577 514.757 399.149 511.06 401.905 508.338C404.661 505.617 408.379 504.092 412.253 504.092C416.127 504.092 419.845 505.617 422.601 508.338C425.357 511.06 426.929 514.757 426.977 518.628Z" fill="#E1E9FF"/>
<path d="M426.978 132.447V459.767C426.93 463.639 425.358 467.336 422.602 470.057C419.846 472.778 416.128 474.304 412.254 474.304C408.38 474.304 404.662 472.778 401.906 470.057C399.15 467.336 397.578 463.639 397.53 459.767V132.447C397.506 130.499 397.87 128.566 398.599 126.759C399.328 124.953 400.409 123.309 401.778 121.923C403.148 120.538 404.779 119.437 406.577 118.686C408.376 117.935 410.305 117.549 412.254 117.549C414.203 117.549 416.133 117.935 417.931 118.686C419.729 119.437 421.361 120.538 422.73 121.923C424.1 123.309 425.18 124.953 425.91 126.759C426.639 128.566 427.002 130.499 426.978 132.447Z" fill="#E1E9FF"/>
<path d="M500.594 390.111C503.506 390.111 506.352 390.974 508.773 392.591C511.194 394.207 513.081 396.505 514.196 399.194C515.31 401.883 515.602 404.842 515.034 407.696C514.466 410.55 513.064 413.172 511.005 415.231C508.946 417.289 506.323 418.69 503.467 419.258C500.612 419.826 497.651 419.535 494.961 418.422C492.271 417.308 489.971 415.423 488.353 413.003C486.735 410.583 485.872 407.739 485.871 404.828C485.871 402.896 486.251 400.982 486.991 399.196C487.731 397.411 488.815 395.788 490.182 394.422C491.55 393.055 493.173 391.971 494.959 391.231C496.746 390.491 498.66 390.111 500.594 390.111Z" fill="#E1E9FF"/>
<path d="M515.319 227.331V345.962C515.319 349.865 513.767 353.608 511.006 356.368C508.245 359.127 504.501 360.678 500.596 360.678C496.691 360.678 492.946 359.127 490.185 356.368C487.424 353.608 485.873 349.865 485.873 345.962V227.331C485.873 223.429 487.424 219.686 490.185 216.926C492.946 214.166 496.691 212.616 500.596 212.616C504.501 212.616 508.245 214.166 511.006 216.926C513.767 219.686 515.319 223.429 515.319 227.331" fill="#E1E9FF"/>
<path d="M382.807 393.014V518.628C382.807 522.531 381.256 526.274 378.495 529.034C375.734 531.793 371.989 533.344 368.084 533.344C364.179 533.344 360.435 531.793 357.674 529.034C354.912 526.274 353.361 522.531 353.361 518.628V393.014C353.361 389.111 354.912 385.368 357.674 382.609C360.435 379.849 364.179 378.298 368.084 378.298C371.989 378.298 375.734 379.849 378.495 382.609C381.256 385.368 382.807 389.111 382.807 393.014" fill="#E1E9FF"/>
<path d="M382.807 279.605V334.15C382.807 338.053 381.256 341.796 378.495 344.556C375.734 347.315 371.989 348.866 368.084 348.866C364.179 348.866 360.435 347.315 357.674 344.556C354.912 341.796 353.361 338.053 353.361 334.15V279.605C353.361 275.702 354.912 271.959 357.674 269.199C360.435 266.44 364.179 264.889 368.084 264.889C371.989 264.889 375.734 266.44 378.495 269.199C381.256 271.959 382.807 275.702 382.807 279.605" fill="#E1E9FF"/>
<path d="M559.487 191.31V334.148C559.511 336.095 559.148 338.028 558.419 339.835C557.69 341.641 556.609 343.284 555.24 344.67C553.871 346.056 552.24 347.156 550.442 347.907C548.644 348.657 546.714 349.044 544.766 349.044C542.817 349.044 540.888 348.657 539.09 347.907C537.292 347.156 535.661 346.056 534.291 344.67C532.922 343.284 531.841 341.641 531.112 339.835C530.383 338.028 530.02 336.095 530.044 334.148V191.31C530.02 189.363 530.383 187.43 531.112 185.624C531.841 183.818 532.922 182.174 534.291 180.788C535.661 179.403 537.292 178.303 539.09 177.552C540.888 176.801 542.817 176.414 544.766 176.414C546.714 176.414 548.644 176.801 550.442 177.552C552.24 178.303 553.871 179.403 555.24 180.788C556.609 182.174 557.69 183.818 558.419 185.624C559.148 187.43 559.511 189.363 559.487 191.31" fill="#E1E9FF"/>
<path d="M603.656 132.447V220.741C603.656 224.644 602.105 228.387 599.344 231.146C596.583 233.906 592.838 235.456 588.934 235.456C585.029 235.456 581.284 233.906 578.523 231.146C575.762 228.387 574.211 224.644 574.211 220.741V132.447C574.211 128.544 575.762 124.801 578.523 122.042C581.284 119.282 585.029 117.732 588.934 117.732C592.838 117.732 596.583 119.282 599.344 122.042C602.105 124.801 603.656 128.544 603.656 132.447" fill="#E1E9FF"/>
<path d="M382.807 191.31V220.739C382.807 224.642 381.256 228.385 378.495 231.144C375.734 233.904 371.989 235.454 368.084 235.454C364.179 235.454 360.435 233.904 357.674 231.144C354.912 228.385 353.361 224.642 353.361 220.739V191.31C353.361 187.408 354.912 183.665 357.674 180.905C360.435 178.145 364.179 176.595 368.084 176.595C371.989 176.595 375.734 178.145 378.495 180.905C381.256 183.665 382.807 187.408 382.807 191.31" fill="#E1E9FF"/>
<path d="M471.148 14.7176V220.741C471.172 222.689 470.809 224.622 470.08 226.429C469.35 228.235 468.27 229.879 466.9 231.265C465.53 232.65 463.899 233.751 462.101 234.502C460.303 235.253 458.373 235.639 456.424 235.639C454.475 235.639 452.546 235.253 450.747 234.502C448.949 233.751 447.318 232.65 445.948 231.265C444.579 229.879 443.498 228.235 442.769 226.429C442.04 224.622 441.676 222.689 441.7 220.741V14.7176C441.676 12.7698 442.04 10.8366 442.769 9.03012C443.498 7.22366 444.579 5.57985 445.948 4.19401C447.318 2.80816 448.949 1.70786 450.747 0.956883C452.546 0.205911 454.475 -0.180786 456.424 -0.180786C458.373 -0.180786 460.303 0.205911 462.101 0.956883C463.899 1.70786 465.53 2.80816 466.9 4.19401C468.27 5.57985 469.35 7.22366 470.08 9.03012C470.809 10.8366 471.172 12.7698 471.148 14.7176" fill="#E1E9FF"/>
</g>
<defs>
<clipPath id="clip0_302_1775">
<rect width="692" height="655" fill="white"/>
</clipPath>
</defs>
</svg>
