<?xml version="1.0" encoding="UTF-8"?>
<svg width="1512" height="1512" version="1.1" viewBox="0 0 1512 1512" xml:space="preserve" xmlns="http://www.w3.org/2000/svg"><defs><clipPath id="clipPath24"><path d="m0 1134h1134v-1134h-1134z"/></clipPath></defs><g transform="matrix(1.333 0 0 -1.333 0 1512)"><path d="m0 0.028h1134v1134h-1134z" fill="#ef3143"/><g transform="translate(158.3 985.3)"><path d="m0 0h0.342v-175h38.43v228.6h-30.7l-35.4-41.49v-40.1h0.346z" fill="#fff"/></g><g clip-path="url(#clipPath24)"><g transform="translate(873.2 592.9)"><path d="m0 0c0 17.36 14.08 31.4 31.42 31.4 17.3 0 31.33-14.05 31.33-31.4 0-17.34-14.02-31.39-31.33-31.39-17.34 0-31.42 14.05-31.42 31.39" fill="#fff"/></g><g transform="translate(941.3 549.4)"><path d="m0 0c21.3-1.924 38-19.85 38-41.68v-87.01c0-6.688-5.445-12.15-12.15-12.15-6.749 0-12.19 5.463-12.19 12.15v74.71c0 2.811-0.799 6.618-5.942 6.618-3.53 0-4.267-3.762-4.4-6.147v-224c0-9.613-7.788-17.49-17.47-17.49-9.686 0-17.53 7.877-17.53 17.49v129.1c-0.035 1.428-0.513 5.127-4.949 5.127h-0.035c-4.453 0-4.994-3.699-5.038-5.127v-129.1c0-9.613-7.787-17.49-17.47-17.49-9.685 0-17.47 7.877-17.47 17.49v224c-0.142 2.385-0.896 6.147-4.4 6.147-5.162 0-5.942-3.807-5.942-6.618v-74.71c0-6.688-5.445-12.15-12.18-12.15-6.724 0-12.14 5.463-12.14 12.15v87.01c0 21.83 16.71 39.75 38.03 41.68l2.305 0.203h68.6l2.377-0.203" fill="#fff"/></g><g transform="translate(686.6 576.4)"><path d="m0 0c0 16.41-13.26 29.76-29.69 29.76-16.44 0-29.74-13.35-29.74-29.76 0-16.42 13.3-29.73 29.74-29.73 16.43 0 29.69 13.31 29.69 29.73" fill="#fff"/></g><g transform="translate(597 509.1)"><path d="m0 0-24.7-80.44s-4.409-14.75 8.101-18.42c12.44-3.682 16.24 10.71 16.24 10.71l19.92 67.11s1.082 5.162 4.966 4.045c3.868-1.117 2.413-6.617 2.413-6.617l-34.68-125.8h32.27v-90.1c0-8.506 6.936-15.46 15.49-15.46 8.55 0 15.48 6.953 15.48 15.46v90.1h8.79v-90.1c0-8.506 6.902-15.46 15.47-15.46 8.586 0 15.52 6.953 15.52 15.46v90.1h32.23l-34.64 125.8s-1.472 5.5 2.414 6.617c3.884 1.117 4.966-4.045 4.966-4.045l19.91-67.11s3.805-14.4 16.22-10.71c12.52 3.67 8.115 18.42 8.115 18.42l-24.72 80.44s-8.834 23.24-28.38 23.24h-62.99c-19.53 0-28.39-23.24-28.39-23.24" fill="#fff"/></g><g transform="translate(508.5 576.4)"><path d="m0 0c0 16.41-13.29 29.76-29.7 29.76-16.43 0-29.73-13.35-29.73-29.76 0-16.42 13.3-29.73 29.73-29.73 16.41 0 29.7 13.31 29.7 29.73" fill="#fff"/></g><g transform="translate(418.9 509.1)"><path d="m0 0-24.69-80.44s-4.413-14.75 8.102-18.42c12.43-3.682 16.22 10.71 16.22 10.71l19.92 67.11s1.077 5.162 4.953 4.045c3.898-1.117 2.435-6.617 2.435-6.617l-34.66-125.8h32.23v-90.1c0-8.506 6.972-15.46 15.5-15.46 8.567 0 15.48 6.953 15.48 15.46v90.1h8.803v-90.1c0-8.506 6.892-15.46 15.47-15.46 8.586 0 15.49 6.953 15.49 15.46v90.1h32.27l-34.65 125.8s-1.481 5.5 2.386 6.617c3.893 1.117 4.984-4.045 4.984-4.045l19.91-67.11s3.788-14.4 16.22-10.71c12.53 3.67 8.103 18.42 8.103 18.42l-24.71 80.44s-8.808 23.24-28.37 23.24h-62.98c-19.54 0-28.4-23.24-28.4-23.24" fill="#fff"/></g><g transform="translate(786.4 410.1)"><path d="m0 0c13.68 0 24.73 11.07 24.73 24.75 0 13.68-11.05 24.73-24.73 24.73-13.69 0-24.75-11.04-24.75-24.73 0-13.69 11.06-24.75 24.75-24.75" fill="#fff"/></g><g transform="translate(727.1 333.2)"><path d="m0 0c-1.206-2.883-2.199-9.02 3.602-11.72 6.811-3.113 10.6 3.469 10.6 3.469l13.46 42.89s2.323 2.882 2.323-0.088v-101h0.063c0-7.023 5.658-12.68 12.7-12.68 7.016 0 12.68 5.658 12.68 12.68v39.86s-0.728 5.623 3.804 5.623c4.55 0 3.841-5.623 3.841-5.623v-39.86c0-7.023 5.694-12.68 12.73-12.68 6.998 0 12.71 5.658 12.71 12.68v101c0 2.97 1.57 0.842 1.57 0.842l10.55-29.37s4.567-13.12 5.987-13.7c4.763-1.994 10.25 0.286 12.25 5.075 1.331 3.138 0.825 6.482-0.993 9.019l0.089 0.098c-0.302 0.957-15.76 38.84-17.56 44.17-5.588 16.28-15.75 16.15-25.53 16.41-9.793 0.24-15.64 0-15.64 0s-6.253 0.266-19.16-0.123c-12.9-0.408-16.97-6.998-31.19-43.6-2.023-5.275-8.888-22.31-8.977-23.34z" fill="#fff"/></g><g transform="translate(211.6 561.5)"><path d="m0 0c17.34 0 31.41 14.06 31.41 31.39 0 17.34-14.08 31.4-31.41 31.4-17.33 0-31.35-14.06-31.35-31.4 0-17.32 14.02-31.39 31.35-31.39" fill="#fff"/></g><g transform="translate(249.1 549.5)"><path d="m0 0-3.149 0.328h-68.6l-2.878-0.328c-21.29-1.916-38.5-19.96-38.5-41.8v-87.01c0-4.647 3.104-8.682 6.958-10.72l-0.106-1.055-27.75-147.7c-0.484-2.492 1.237-4.914 3.729-5.365l0.896-0.09c2.164 0 4.116 1.543 4.515 3.744l27.9 147.7-0.67 1.721c5.282 1.322 8.532 6.119 8.532 11.78v74.73c0 2.813 1.633 6.6 6.764 6.6 3.53 0 5.237-3.762 5.237-6.147v-224c0-9.63 8.316-17.49 18-17.49 9.655 0 18.02 7.86 18.02 17.49v129.1c0 1.41-0.812 4.879 3.641 4.879h0.013c4.448 0 4.346-3.469 4.346-4.879v-129.1c0-9.63 8.32-17.49 17.98-17.49 9.703 0 18.01 7.86 18.01 17.49v224c0 2.385-0.266 6.147 3.242 6.147 5.162 0 4.758-3.787 4.758-6.6v-74.73c0-6.688 7.296-12.17 14.02-12.17 6.731 0 14 5.48 14 12.17v87.01c0 21.85-17.54 39.88-38.87 41.8" fill="#fff"/></g><g transform="translate(369.6 369.2)"><path d="m0 0 23.08 41.66s2.843 6.012 2.843 7.432c0 4.949-4.027 8.974-9.012 8.974-3.272 0-6.049-1.666-7.632-4.203l-0.097 0.053c-0.724-0.621-12.27-21.51-16.08-25.31-4.045-4.063-7.641-3.922-7.641-3.922h-29.98s-3.641-0.141-7.659 3.922c-3.845 3.804-15.35 24.53-16.08 25.13l-0.08 0.037c-1.623 2.553-4.412 4.266-7.636 4.266-4.968 0-9.011-4.018-9.011-8.976 0-1.428 0.882-3.928 0.882-3.928l24.98-45.14s1.565-3.113 1.565-5.959v-8.879l-13.23-48.48h13.23v-39.98h-0.027c0-8 5.282-11.97 12.03-11.97 6.728 0 12 5.651 12 12.41v38.23l0.329 1.313h7.371l0.301-1.313v-38.23c0-6.758 5.251-12.2 12-12.2 6.724 0 11.99 5.438 11.99 12.2v39.54h13.31l-13.31 48.78v8.576c0 2.846 1.565 5.959 1.565 5.959" fill="#fff"/></g><g transform="translate(340 410.1)"><path d="m0 0c13.68 0 24.73 11.07 24.73 24.75 0 13.68-11.05 24.73-24.73 24.73-13.69 0-24.72-11.04-24.72-24.73 0-13.69 11.04-24.75 24.72-24.75" fill="#fff"/></g><g transform="translate(358 946.1)"><path d="m0 0h16.45l-18.51 51.12 18.09 41.8h-15.35l-17-40.84v40.84h-15.62v-92.92h15.62v45.23zm37.39 0 2.741 16.99h16.58l2.879-16.99h16.04l-17.68 92.92h-17.82l-17.55-92.92zm10.97 66.76h0.129l6.174-37.29h-12.48z" fill="#fff"/></g><g transform="translate(463 958)"><path d="m0 0c-5.486 0-7.952 3.978-7.952 9.605v49.89c0 5.609 2.466 9.587 7.952 9.587 5.619 0 8.089-3.978 8.089-9.587v-49.89c0-5.627-2.47-9.605-8.089-9.605m0-13.01c16.58 0 23.71 10.68 23.71 25.08v44.96c0 14.53-7.126 25.09-23.71 25.09-16.45 0-23.58-10.56-23.58-25.09v-44.96c0-14.39 7.127-25.08 23.58-25.08m31.22 81.28h12.88v-80.19h15.77v80.19h12.88v12.74h-41.53z" fill="#fff"/></g><g transform="translate(550.6 946.1)"><path d="m0 0 2.749 16.99h16.58l2.878-16.99h16.03l-17.68 92.92h-17.81l-17.55-92.92zm10.97 66.76h0.137l6.174-37.29h-12.48zm50.55-54v67.44h6.582c6.438 0 8.913-3.844 8.913-9.326v-48.66c0-5.623-2.475-9.454-8.913-9.454zm8.497 80.17h-24.12v-92.92h24.12c16.73 0 22.62 10.7 22.62 24.95v43.03c0 14.39-5.89 24.94-22.62 24.94" fill="#fff"/></g><g transform="translate(663.9 946.1)"><path d="m0 0 2.74 16.99h16.59l2.873-16.99h16.04l-17.67 92.92h-17.83l-17.54-92.92zm10.97 66.76h0.132l6.165-37.29h-12.47z" fill="#fff"/></g><g transform="translate(756.2 946.1)"><path d="m0 0h16.44l-18.5 51.12 18.09 41.8h-15.35l-17-40.84v40.84h-15.63v-92.92h15.63v45.23zm44.66 11.92c-5.49 0-7.965 3.978-7.965 9.605v49.89c0 5.609 2.475 9.587 7.965 9.587 5.614 0 8.089-3.978 8.089-9.587v-49.89c0-5.627-2.475-9.605-8.089-9.605m0-13.01c16.59 0 23.71 10.68 23.71 25.08v44.96c0 14.53-7.122 25.09-23.71 25.09-16.45 0-23.58-10.56-23.58-25.09v-44.96c0-14.39 7.123-25.08 23.58-25.08m-6.582 97.72c0 1.37 0.817 2.053 1.916 2.053 2.059 0 5.349-2.315 9.314-2.315 6.865 0 9.331 5.202 9.596 11.64h-7.663c0-1.366-0.825-2.054-1.933-2.054-2.049 0-5.34 2.333-9.314 2.333-6.855 0-9.312-5.22-9.596-11.66z" fill="#fff"/></g><path d="m833.7 946.1h15.63v92.92h-15.63zm56.88 0h16.44l-18.51 51.12 18.1 41.8h-15.36l-16.99-40.84v40.84h-15.63v-92.92h15.63v45.23zm48.48 92.92v-73.46c0-4.807-1.641-7.548-5.889-7.548-4.115 0-5.756 2.741-5.756 7.406v18.78h-14.8v-18.5c0-11.79 4.382-20.69 20.56-20.69 15.63 0 21.52 8.772 21.52 22.2v71.82zm36.99-92.92 2.749 16.99h16.58l2.882-16.99h16.04l-17.69 92.92h-17.81l-17.55-92.92zm10.97 66.76h0.132l6.173-37.29h-12.48zm33.96-66.76h34.27v12.75h-18.65v80.17h-15.62z" fill="#fff"/><g transform="translate(361.4 903)"><path d="m0 0-10.96-64.83h-0.133l-10.7 64.83h-15.9l17.69-92.92h17l17.68 92.92zm27.81-92.92 2.74 16.99h16.58l2.878-16.99h16.04l-17.68 92.92h-17.82l-17.55-92.92zm10.97 66.74h0.129l6.173-37.27h-12.47z" fill="#fff"/></g><g transform="translate(434.9 810)"><path d="m0 0h37.28v12.74h-21.66v28.24h15.49v12.62h-15.49v26.58h21.66v12.75h-37.28zm67.28-1.104c15.9 0 22.76 9.046 22.76 21.8v4.515c0 10.29-4.115 15.49-12.61 24.13l-10 9.863c-4.528 4.39-7.406 7.405-7.406 12.62v1.911c0 5.215 3.015 7.677 7.406 7.677 4.932 0 7.401-2.608 7.401-7.956v-8.088h14.25v7.551c0 13.43-6.173 21.1-21.8 21.1-15.21 0-21.93-8.905-21.93-20.42v-3.163c0-10.68 4.111-16.03 13.02-24.8l9.181-9.18c4.803-4.532 6.993-7.809 6.993-13.16v-3.57c0-4.926-2.19-8.221-7.122-8.221-5.349 0-7.681 3.019-7.681 8.221v12.75h-14.53v-12.47c0-12.2 6.169-21.11 22.07-21.11m62.34 94.03v-71.82c0-5.481-2.19-9.184-7.672-9.184-5.485 0-7.681 3.703-7.681 9.184v71.82h-15.62v-70.31c0-14.4 6.847-23.72 23.3-23.72 15.9 0 22.07 9.325 22.07 23.72v70.31zm44.94-94.03c15.89 0 22.75 9.046 22.75 21.8v4.515c0 10.29-4.117 15.49-12.61 24.13l-10 9.863c-4.524 4.39-7.407 7.405-7.407 12.62v1.911c0 5.215 3.016 7.677 7.407 7.677 4.931 0 7.397-2.608 7.397-7.956v-8.088h14.25v7.551c0 13.43-6.174 21.1-21.78 21.1-15.22 0-21.94-8.905-21.94-20.42v-3.163c0-10.68 4.116-16.03 13.02-24.8l9.188-9.18c4.799-4.532 6.991-7.809 6.991-13.16v-3.57c0-4.926-2.192-8.221-7.123-8.221-5.348 0-7.681 3.019-7.681 8.221v12.75h-14.53v-12.47c0-12.2 6.164-21.11 22.08-21.11" fill="#fff"/></g></g></g></svg>
