<?xml version="1.0" encoding="UTF-8"?>
<svg width="1512" height="1512" version="1.1" viewBox="0 0 1512 1512" xml:space="preserve" xmlns="http://www.w3.org/2000/svg"><defs><clipPath id="clipPath20"><path d="m0 1134h1134v-1134h-1134z"/></clipPath></defs><g transform="matrix(1.333 0 0 -1.333 0 1512)"><path d="m0 3e-3h1134v1134h-1134z" fill="#9b1f3a"/><g clip-path="url(#clipPath20)"><g transform="translate(181.9 862.1)"><path d="m0 0c0-13.84-5.056-23.6-18.88-23.6-13.49 0-18.55 9.765-18.55 23.6v37.09c0 13.81 5.055 23.59 18.55 23.59 13.82 0 18.88-9.779 18.88-23.59zm-36.08 126.4c0 13.84 4.736 21.93 17.21 21.93 12.8 0 17.54-8.088 17.54-21.93v-15.5c0-13.81-4.737-21.93-17.54-21.93-12.47 0-17.21 8.115-17.21 21.93zm74.52-122.4v24.96c0 21.9-7.734 37.76-25.62 45.86 15.16 7.401 22.24 20.88 22.24 39.77v9.454c0 35.75-18.54 54.95-53.95 54.95-35.07 0-53.29-19.21-53.29-54.95v-9.454c0-18.55 6.759-32.37 21.57-39.77-17.86-8.102-25.29-23.96-25.29-45.86v-24.96c0-34.73 16.53-59.01 57.01-59.01 40.8 0 57.32 24.28 57.32 59.01" fill="#fff"/></g><g transform="translate(782.1 576)"><path d="m0 0-115.2-109.6c-4.337-4.328-6.59-7.503-6.59-16.47v-307.2c0-3.602 2.963-6.565 6.59-6.565h119.1c3.628 0 6.554 2.963 6.554 6.565v430.6c0 3.61-2.838 10.23-10.36 2.75" fill="#fff"/></g><g transform="translate(450.1 433.2)"><path d="m0 0-115.3-109.6c-4.329-4.328-6.564-7.503-6.564-16.44v-164.5c0-3.592 2.945-6.546 6.564-6.546h119c3.655 0 6.573 2.954 6.573 6.546v287.8c0 3.628-2.865 10.27-10.35 2.749" fill="#fff"/></g><g transform="translate(834.5 709)"><path d="m0 0-0.976 2.51-2.128 0.931-0.639-0.044-0.941-0.044-88.25-19.92-1.597-0.16-1.721-0.905v-4.745l1.003-0.993 20.14-20.14-200-199.9-92.35 92.34h-3.761l-25.07-25.06-9e-3 -0.028-148.1-148v-3.76l25.09-25.08h3.734l146.2 146.2 67.01-67.02 0.213-0.319 25.08-25.04h3.761l226.9 226.9 21.16-21.14h4.7l0.967 2.173 0.018 0.274 19.38 90.08z" fill="#fff"/></g><g transform="translate(616.7 414)"><path d="m0 0-55.77-56.2-3.592 0.124-50.51 51.5c-9.25 9.207-11.26 1.729-11.26-1.88v-264.8c0-3.609 2.918-6.553 6.537-6.553h119.1c3.619 0 6.563 2.944 6.563 6.553v269.2c0 3.618-2.856 10.28-11.03 2.074" fill="#fff"/></g><g transform="translate(324.2 1026)"><path d="m0 0h12.88v-80.19h15.77v80.19h12.88v12.75h-41.53zm72.76-68.26c-5.49 0-7.947 3.977-7.947 9.587v49.9c0 5.623 2.457 9.601 7.947 9.601 5.615 0 8.089-3.978 8.089-9.601v-49.9c0-5.61-2.474-9.587-8.089-9.587m0-13.03c16.59 0 23.71 10.7 23.71 25.1v44.95c0 14.53-7.123 25.08-23.71 25.08-16.45 0-23.58-10.55-23.58-25.08v-44.95c0-14.4 7.122-25.1 23.58-25.1m-14.95 97.33h13.3v11.79h-13.3zm16.59 0h13.3v11.79h-13.3zm54.94-84.3c-5.481 0-7.947 3.977-7.947 9.587v49.9c0 5.623 2.466 9.601 7.947 9.601 5.624 0 8.09-3.978 8.09-9.601v-49.9c0-5.61-2.466-9.587-8.09-9.587m0-13.03c16.59 0 23.72 10.7 23.72 25.1v44.95c0 14.53-7.131 25.08-23.72 25.08-16.44 0-23.58-10.55-23.58-25.08v-44.95c0-14.4 7.132-25.1 23.58-25.1m-14.94 97.33h13.29v11.79h-13.29zm16.59 0h13.3v11.79h-13.3zm62.07-96.23h15.75v92.94h-15.75v-39.34h-15.09v39.34h-15.62v-92.94h15.62v40.99h15.09zm48.62 11.93c-5.481 0-7.947 3.977-7.947 9.587v49.9c0 5.623 2.466 9.601 7.947 9.601 5.624 0 8.089-3.978 8.089-9.601v-49.9c0-5.61-2.465-9.587-8.089-9.587m0-13.03c16.58 0 23.71 10.7 23.71 25.1v44.95c0 14.53-7.131 25.08-23.71 25.08-16.44 0-23.58-10.55-23.58-25.08v-44.95c0-14.4 7.132-25.1 23.58-25.1m-6.581 97.74c0 1.371 0.825 2.053 1.916 2.053 2.066 0 5.357-2.332 9.33-2.332 6.844 0 9.31 5.22 9.594 11.66h-7.678c0-1.371-0.824-2.054-1.916-2.054-2.057 0-5.348 2.315-9.33 2.315-6.848 0-9.313-5.202-9.597-11.64zm39.59-96.64h15.62v92.94h-15.62zm60.43 92.94-10.96-64.83h-0.142l-10.69 64.83h-15.91l17.69-92.94h17l17.69 92.94zm21.49-92.94h37.29v12.75h-21.66v28.24h15.49v12.61h-15.49v26.59h21.66v12.75h-37.29zm86.74 92.94v-73.47c0-4.794-1.65-7.534-5.898-7.534-4.116 0-5.748 2.74-5.748 7.401v18.77h-14.81v-18.49c0-11.79 4.382-20.71 20.56-20.71 15.63 0 21.52 8.776 21.52 22.21v71.83zm37.12-92.94 2.733 17.01h16.6l2.883-17.01h16.04l-17.69 92.94h-17.83l-17.54-92.94zm10.96 66.75h0.142l6.156-37.28h-12.47z" fill="#fff"/></g><g transform="translate(369.7 807.5)"><path d="m0 0 14.24 0.204-1.295 92.94-19.74-0.275-8.319-52.49h-0.124l-10.88 52.21-18.23-0.249 1.295-92.94 12.89 0.186-0.843 60.3h0.266l12.5-60.14 7.264 0.106 9.712 60.45h0.417zm36 0.506 2.502 17.04 16.59 0.24 3.122-16.97 16.04 0.231-18.98 92.68-17.82-0.249-16.25-93.17zm10.04 66.91h0.133l6.679-37.19-12.46-0.177zm59.77 27.02 1.029-73.47c0.062-4.79-1.553-7.548-5.792-7.601-4.116-0.062-5.801 2.652-5.872 7.308l-0.257 18.78-14.8-0.204 0.266-18.51c0.159-11.79 4.683-20.64 20.84-20.4 15.63 0.213 21.39 9.064 21.21 22.5l-1.001 71.82zm38.56-92.42 2.501 17.04 16.58 0.231 3.113-16.96 16.04 0.23-18.97 92.68-17.82-0.249-16.25-93.18zm10.02 66.9h0.134l6.697-37.18-12.47-0.178zm66.69-65.82 13.7 0.187-1.295 92.93-13.02-0.177 0.745-53.32-17.6 53.07-15.35-0.204 1.295-92.94 13.16 0.186-0.816 58.39zm38.58 13.29-0.949 67.43 6.581 0.098c6.44 0.088 8.958-3.716 9.048-9.207l0.674-48.66c0.08-5.615-2.342-9.49-8.772-9.579zm7.389 80.3-24.13-0.337 1.295-92.93 24.13 0.337c16.72 0.23 22.46 11.02 22.26 25.25l-0.603 43.05c-0.195 14.38-6.245 24.86-22.96 24.62m63.01 0.887 1.003-71.83c0.071-5.481-2.067-9.206-7.548-9.277-5.482-0.08-7.734 3.592-7.806 9.073l-1.003 71.81-15.62-0.217 0.976-70.33c0.213-14.37 7.184-23.61 23.63-23.37 15.9 0.213 21.93 9.632 21.74 24.01l-0.984 70.33zm46.37-93.39c15.89 0.212 22.64 9.348 22.45 22.1l-0.061 4.515c-0.143 10.29-4.328 15.43-12.95 23.96l-10.14 9.721c-4.586 4.328-7.514 7.299-7.584 12.5l-0.028 1.925c-0.07 5.197 2.911 7.725 7.301 7.778 4.932 0.08 7.433-2.501 7.504-7.849l0.123-8.089 14.25 0.204-0.107 7.53c-0.177 13.44-6.457 21.03-22.09 20.81-15.21-0.217-21.8-9.21-21.64-20.74l0.044-3.14c0.151-10.7 4.338-15.97 13.37-24.61l9.313-9.065c4.861-4.461 7.097-7.725 7.176-13.07l0.045-3.556c0.07-4.941-2.077-8.266-7.008-8.319-5.358-0.072-7.717 2.899-7.787 8.115l-0.178 12.75-14.54-0.204 0.168-12.48c0.178-12.21 6.475-21.03 22.37-20.79" fill="#fff"/></g><g transform="translate(808.4 810)"><path d="m0 0h16.44l-18.5 51.13 18.09 41.81h-15.35l-17-40.84v40.84h-15.62v-92.94h15.62v45.23zm37.39 0 2.741 17h16.59l2.883-17h16.04l-17.69 92.94h-17.82l-17.54-92.94zm10.97 66.76h0.133l6.164-37.28h-12.47z" fill="#fff"/></g><g transform="translate(912 808.9)"><path d="m0 0c15.9 0 22.76 9.047 22.76 21.8v4.515c0 10.29-4.115 15.49-12.61 24.13l-10 9.862c-4.524 4.39-7.407 7.406-7.407 12.6v1.925c0 5.206 3.016 7.681 7.407 7.681 4.931 0 7.397-2.608 7.397-7.956v-8.089h14.26v7.539c0 13.43-6.174 21.11-21.8 21.11-15.22 0-21.94-8.909-21.94-20.43v-3.149c0-10.7 4.124-16.03 13.03-24.8l9.179-9.197c4.799-4.523 6.998-7.814 6.998-13.16v-3.557c0-4.939-2.199-8.23-7.13-8.23-5.34 0-7.682 3.016-7.682 8.23v12.75h-14.53v-12.48c0-12.2 6.172-21.11 22.07-21.11m65.9 94.03-10.96-64.83h-0.132l-10.7 64.83h-15.9l17.69-92.94h17l17.69 92.94z" fill="#fff"/></g></g></g></svg>
