<?xml version="1.0" encoding="UTF-8"?>
<svg width="1512" height="1512" version="1.1" viewBox="0 0 1512 1512" xml:space="preserve" xmlns="http://www.w3.org/2000/svg"><defs><clipPath id="clipPath20"><path d="m0 1134h1134v-1134h-1134z"/></clipPath></defs><g transform="matrix(1.333 0 0 -1.333 0 1512)"><path d="m0 3.923h1130v1130h-1130z" fill="#3ba043"/><g clip-path="url(#clipPath20)"><g transform="translate(161.2 808.2)"><path d="m0 0c38.64 0 55.45 20.5 55.45 52.08v33.6c0 20.82-9.074 34.27-28.23 38.65 15.8 5.024 26.22 17.79 26.22 36.94v19.83c0 32.26-15.46 52.08-50.73 52.08-39.66 0-53.44-23.5-53.44-57.11v-20.15h34.94v23.16c0 14.12 4.382 22.18 16.48 22.18 12.11 0 16.44-8.058 16.44-20.49v-24.54c0-12.09-8.053-18.48-20.49-18.48h-14.46v-29.25h16.15c13.43 0 18.79-6.368 18.79-18.46v-37.64c0-12.08-5.366-20.5-17.13-20.5-13.1 0-17.82 8.74-17.82 22.18v32.58h-34.92v-29.88c0-34.62 13.76-56.79 52.74-56.79" fill="#fff"/></g><g transform="translate(944.5 427.7)"><path d="m0 0c0 31.8-20.41 57.56-51.31 57.56-15.44 0-34.08-16.92-44.21-27.32-10.11 10.41-27.52 27.35-42.98 27.35-30.88 0-52.54-25.78-52.54-57.58 0-15.89 6.244-30.3 16.39-40.73l79.21-79.33 79.1 79.26-0.052 0.036c10.13 10.43 16.4 24.83 16.4 40.74" fill="#fff"/></g><g transform="translate(607.3 178.1)"><path d="m0 0-0.799 0.035c-6.04 0.356-11.01 4.843-12.02 10.77l-40.24 234.3-60.96-113c-2.652-4.958-8.231-7.627-13.71-6.634-5.526 0.976-9.801 5.393-10.61 10.96l-25.87 180.8-47.34-106.3c-2.084-4.682-6.749-7.697-11.88-7.697h-184c-7.193 0-13.01 5.817-13.01 12.99 0 7.184 5.819 12.99 13.01 12.99h175.5l62.26 139.9c2.368 5.286 7.938 8.381 13.69 7.592 5.738-0.799 10.26-5.304 11.08-11.04l26.67-186.5 60.1 111.4c2.652 4.905 8.08 7.574 13.57 6.679 5.463-0.905 9.774-5.161 10.7-10.64l37.28-217 135.8 451c1.543 5.126 6.084 8.785 11.42 9.206 5.375 0.408 10.41-2.474 12.75-7.312l71.45-148.1c3.121-6.466 0.398-14.24-6.059-17.37-6.466-3.122-14.25-0.407-17.38 6.067l-56.92 118-142.1-471.9c-1.649-5.518-6.74-9.26-12.44-9.26" fill="#fff"/></g><g transform="translate(323.1 1027)"><path d="m0 0h12.83v-79.93h15.72v79.93h12.84v12.7h-41.4zm48.74-79.93h37.16v12.7h-21.59v28.14h15.44v12.58h-15.44v26.5h21.59v12.7h-37.16zm75.79 0h16.4l-14.9 42.08c8.888 2.04 12.44 7.929 12.44 17.89v11.89c0 12.97-5.738 20.76-21.46 20.76h-22.68v-92.63h15.58v42.49zm-9.428 79.93c5.339 0 7.654-2.465 7.654-7.521v-13.65c0-4.923-2.315-7.65-7.654-7.65h-5.18v28.82zm67.18 12.7-10.93-64.62h-0.142l-10.64 64.62h-15.85l17.62-92.63h16.94l17.62 92.63zm21.14-92.63h15.58v92.63h-15.58zm45.89-1.091c15.85 0 22.68 9.02 22.68 21.72v4.501c0 10.24-4.097 15.45-12.57 24.04l-9.983 9.836c-4.505 4.372-7.371 7.388-7.371 12.58v1.911c0 5.188 3.007 7.649 7.371 7.649 4.926 0 7.383-2.594 7.383-7.929v-8.057h14.21v7.521c0 13.39-6.146 21.04-21.72 21.04-15.18 0-21.86-8.891-21.86-20.36v-3.148c0-10.65 4.089-15.98 12.98-24.73l9.153-9.152c4.785-4.501 6.968-7.778 6.968-13.11v-3.557c0-4.909-2.183-8.19-7.109-8.19-5.322 0-7.646 3.002-7.646 8.19v12.7h-14.48v-12.42c0-12.16 6.147-21.04 22-21.04m71.26 93.72v-73.22c0-4.794-1.633-7.521-5.873-7.521-4.098 0-5.738 2.727-5.738 7.374v18.73h-14.75v-18.45c0-11.75 4.364-20.63 20.49-20.63 15.58 0 21.45 8.741 21.45 22.13v71.59zm36.72-92.63 2.731 16.95h16.53l2.866-16.95h15.99l-17.63 92.63h-17.76l-17.49-92.63zm10.93 66.54h0.132l6.147-37.16h-12.43z" fill="#fff"/></g><g transform="translate(355.5 811.1)"><path d="m0 0h15.71v92.63h-15.71v-39.21h-15.03v39.21h-15.57v-92.63h15.57v40.86h15.03zm24.68 0h37.15v12.71h-21.57v28.15h15.43v12.56h-15.43v26.5h21.57v12.7h-37.15zm57.89 0 2.732 16.95h16.53l2.874-16.95h15.98l-17.63 92.63h-17.76l-17.48-92.63zm10.94 66.54h0.134l6.146-37.16h-12.43zm57.2-54.64c-5.463 0-7.929 3.961-7.929 9.557v49.73c0 5.596 2.466 9.56 7.929 9.56 5.606 0 8.063-3.964 8.063-9.56v-49.73c0-5.596-2.457-9.557-8.063-9.557m0-12.98c16.53 0 23.63 10.66 23.63 25.01v44.81c0 14.48-7.095 25.01-23.63 25.01-16.39 0-23.5-10.52-23.5-25.01v-44.81c0-14.34 7.104-25.01 23.5-25.01m32.62 1.091h34.15v12.71h-18.58v79.92h-15.57zm72.25 92.63v-71.59c0-5.464-2.19-9.149-7.654-9.149s-7.646 3.685-7.646 9.149v71.59h-15.58v-70.09c0-14.34 6.838-23.64 23.23-23.64 15.84 0 22 9.295 22 23.64v70.09z" fill="#fff"/></g></g></g></svg>
