<?xml version="1.0" encoding="UTF-8"?>
<svg width="1512" height="1512" version="1.1" viewBox="0 0 1512 1512" xml:space="preserve" xmlns="http://www.w3.org/2000/svg"><defs><clipPath id="clipPath28"><path d="m0 1134h1134v-1134h-1134z"/></clipPath></defs><g transform="matrix(1.333 0 0 -1.333 0 1512)"><path d="m0 0.03h1134v1134h-1134z" fill="#1b375a"/><g transform="translate(169.7 1039)"><path d="m0 0v-228.6h-38.44v175h-0.346l-26.96-27.99h-0.337v40.13l35.4 41.45z" fill="#fff"/></g><g transform="translate(187.2 1039)"><path d="m0 0h96.44v-35.38l-50.25-193.2h-38.12l51.27 197.2h-59.34z" fill="#fff"/></g><g clip-path="url(#clipPath28)"><g transform="translate(674 436.4)"><path d="m0 0c29.08 26.99 47.33 65.49 47.33 108.2 0 6.377-0.435 12.67-1.242 18.86 59.11-6.319 105.3-56.47 105.3-117.2 0-34.54-15.01-65.54-38.76-87.14-22.23 41.64-63.81 71.41-112.7 77.3m100.2-146.6c0-65.02-52.92-117.9-117.9-117.9-21.16 0-40.97 5.676-58.16 15.46 25.09 26.49 40.54 62.21 40.54 101.5 0 9.677-0.959 19.12-2.733 28.27 21.2-11.8 45.56-18.53 71.52-18.53 23.06 0 44.92 5.34 64.39 14.82 1.561-7.637 2.377-15.52 2.377-23.57m-401.2-0.993c0 8.399 0.905 16.57 2.582 24.45 19.44-9.41 41.22-14.7 64.21-14.7 25.86 0 50.15 6.687 71.31 18.4-1.642-8.798-2.555-17.88-2.555-27.16 0-39.88 15.94-76.1 41.74-102.7-17.46-10.23-37.69-16.19-59.33-16.19-65.05 0-118 52.9-118 117.9m-51.16 157.4c0 60.76 46.19 110.9 105.3 117.2-0.789-6.191-1.233-12.48-1.233-18.86 0-43.17 18.62-82.06 48.25-109.1-49-5.579-90.78-35.18-113.2-76.72-23.92 21.58-39.08 52.74-39.08 87.43m251.7 216.3c48.34 0 89.9-29.24 108.1-70.92-47.99-8.469-88.05-40.13-108.1-82.98-20.05 42.86-60.13 74.53-108.1 82.98 18.2 41.68 59.78 70.92 108.1 70.92m28.08-268.3c16.34 8.568 34.88 13.49 54.58 13.49 46.35 0 86.46-26.97 105.7-65.97-16.34-8.577-34.88-13.49-54.56-13.49-46.41 0-86.48 26.96-105.7 65.97m-56.54-0.789c-19.4-38.59-59.27-65.18-105.3-65.18-19.54 0-37.93 4.851-54.18 13.29 19.41 38.59 59.28 65.19 105.3 65.19 19.54 0 37.94-4.86 54.17-13.3m-87.93 169.3c56.79-8.44 100.6-57.38 100.6-116.5 0-6.164-0.63-12.2-1.544-18.13-56.81 8.453-100.6 57.4-100.6 116.5 0 6.19 0.612 12.22 1.543 18.12m116.9-357.4c-22.09 21.46-35.85 51.37-35.85 84.48 0 32.61 13.32 62.15 34.76 83.51 22.08-21.44 35.86-51.35 35.86-84.5 0-32.57-13.32-62.14-34.77-83.49m117.4 339.3c0-59.1-43.74-108.1-100.5-116.5-0.923 5.934-1.552 11.96-1.552 18.13 0 59.12 43.76 108.1 100.6 116.5 0.93-5.902 1.544-11.93 1.544-18.12m163.6-98.38c0 79.62-63.35 144.7-142.3 147.5-20.3 57.31-75.05 98.49-139.2 98.49-64.18 0-118.9-41.18-139.2-98.49-78.91-2.883-142.2-67.92-142.2-147.5 0-47.25 22.34-89.36 57-116.4-3.761-13.03-5.845-26.77-5.845-40.99 0-81.36 66.25-147.6 147.7-147.6 30.91 0 59.6 9.56 83.34 25.84 23.48-15.71 51.65-24.87 81.95-24.87 81.43 0 147.7 66.24 147.7 147.6 0 13.93-1.969 27.4-5.597 40.18 34.52 27.06 56.77 69.1 56.77 116.2" fill="#fff"/></g><g transform="translate(392.8 1039)"><path d="m0 0v-71.82c0-5.481-2.2-9.179-7.681-9.179-5.472 0-7.681 3.698-7.681 9.179v71.82h-15.62v-70.31c0-14.39 6.847-23.72 23.3-23.72 15.9 0 22.07 9.33 22.07 23.72v70.31zm-22.89 3.299h13.3v11.79h-13.3zm16.59 0h13.29v11.79h-13.29zm30.12-96.22h34.27v12.75h-18.65v80.17h-15.62zm41.93 0h37.28v12.75h-21.66v28.22h15.5v12.62h-15.5v26.58h21.66v12.74h-37.28zm46.17 0h15.62v92.92h-15.62zm25.21 0h34.26v12.75h-18.64v80.17h-15.63zm84.96 0h14.25v92.92h-19.73l-9.047-52.35h-0.133l-10.16 52.35h-18.23v-92.92h12.9v60.3h0.257l11.66-60.3h7.264l10.56 60.3h0.408zm55.2 0h13.71v92.92h-13.03v-53.31l-16.86 53.31h-15.34v-92.92h13.16v58.4zm23.14 0h37.28v12.75h-21.66v28.22h15.5v12.62h-15.5v26.58h21.66v12.74h-37.28z" fill="#fff"/></g><g transform="translate(393.8 810.1)"><path d="m0 0h16.45l-18.51 51.11 18.1 41.81h-15.36l-16.99-40.84v40.84h-15.62v-92.92h15.62v45.22zm44.67 11.92c-5.481 0-7.956 3.974-7.956 9.587v49.89c0 5.624 2.475 9.605 7.956 9.605 5.605 0 8.089-3.981 8.089-9.605v-49.89c0-5.613-2.484-9.587-8.089-9.587m0-13.03c16.59 0 23.71 10.7 23.71 25.09v44.96c0 14.53-7.122 25.07-23.71 25.07-16.45 0-23.58-10.55-23.58-25.07v-44.96c0-14.4 7.131-25.09 23.58-25.09" fill="#fff"/></g><g transform="translate(494.5 822)"><path d="m0 0c-5.481 0-7.956 3.974-7.956 9.587v49.89c0 5.623 2.475 9.605 7.956 9.605 5.615 0 8.089-3.982 8.089-9.605v-49.89c0-5.613-2.474-9.587-8.089-9.587m0-13.03c16.59 0 23.71 10.7 23.71 25.09v44.96c0 14.53-7.122 25.07-23.71 25.07-16.45 0-23.58-10.55-23.58-25.07v-44.96c0-14.4 7.122-25.09 23.58-25.09m54.26 0c15.9 0 22.75 9.047 22.75 21.8v4.515c0 10.29-4.107 15.48-12.6 24.13l-10.01 9.862c-4.514 4.39-7.406 7.406-7.406 12.6v1.925c0 5.215 3.016 7.681 7.406 7.681 4.941 0 7.406-2.608 7.406-7.956v-8.089h14.25v7.548c0 13.42-6.165 21.1-21.78 21.1-15.21 0-21.93-8.905-21.93-20.42v-3.157c0-10.68 4.116-16.04 13.02-24.81l9.18-9.179c4.808-4.532 6.99-7.823 6.99-13.17v-3.556c0-4.94-2.182-8.213-7.123-8.213-5.348 0-7.68 2.998-7.68 8.213v12.75h-14.53v-12.48c0-12.2 6.164-21.11 22.08-21.11m29.57 81.28h12.9v-80.17h15.75v80.17h12.88v12.75h-41.53zm72.76-68.25c-5.472 0-7.938 3.974-7.938 9.587v49.89c0 5.623 2.466 9.605 7.938 9.605 5.632 0 8.089-3.982 8.089-9.605v-49.89c0-5.613-2.457-9.587-8.089-9.587m0-13.03c16.59 0 23.73 10.7 23.73 25.09v44.96c0 14.53-7.14 25.07-23.73 25.07-16.44 0-23.58-10.55-23.58-25.07v-44.96c0-14.4 7.14-25.09 23.58-25.09m-14.94 97.32h13.3v11.8h-13.3zm16.59 0h13.3v11.8h-13.3z" fill="#fff"/></g><g transform="translate(707.1 822)"><path d="m0 0c-5.481 0-7.947 3.974-7.947 9.587v49.89c0 5.623 2.466 9.605 7.947 9.605 5.623 0 8.089-3.982 8.089-9.605v-49.89c0-5.613-2.466-9.587-8.089-9.587m0-13.03c16.58 0 23.73 10.7 23.73 25.09v44.96c0 14.53-7.15 25.07-23.73 25.07-16.45 0-23.58-10.55-23.58-25.07v-44.96c0-14.4 7.131-25.09 23.58-25.09m-14.94 97.32h13.29v11.8h-13.29zm16.58 0h13.3v11.8h-13.3z" fill="#fff"/></g></g></g></svg>
