<?xml version="1.0" encoding="UTF-8"?>
<svg width="1512" height="1512" version="1.1" viewBox="0 0 1512 1512" xml:space="preserve" xmlns="http://www.w3.org/2000/svg"><defs><clipPath id="clipPath20"><path d="m0 1134h1134v-1134h-1134z"/></clipPath></defs><g transform="matrix(1.333 0 0 -1.333 0 1512)"><path d="m0 0.028h1134v1134h-1134z" fill="#4bc2de"/><g clip-path="url(#clipPath20)"><g transform="translate(153.7 903.3)"><path d="m0 0c0.666 12.81 6.076 20.9 18.2 20.9 13.15 0 18.21-8.089 18.21-22.92v-39.8c0-14.48-5.375-22.92-18.53-22.92-12.82 0-17.88 8.758-17.88 22.92zm17.88-96.1c40.77 0 56.64 22.25 56.64 57.66v33.74c0 37.42-14.84 56.29-42.49 56.29-16.19 0-25.95-7.428-31.7-18.55h-0.328v49.24c0 13.83 4.382 23.59 18.2 23.59 13.83 0 17.88-8.102 17.88-22.25v-15.18h35.07v12.15c0 33.72-11.13 57.31-53.62 57.31-40.45 0-55.64-25.97-55.64-61.68v-111.3c0-35.41 15.52-61.04 55.99-61.04" fill="#fff"/></g><g transform="translate(747.3 587.4)"><path d="m0 0c-11.15 4.896-25.28 3.14-38.87-2.359-51.03-20.69-85.77-28.12-139.4-11.31-33.8 10.58-65.44 32.73-102.8 19.24-24.82-8.94-47.94-17.44-75.99-17.22l-16.21 83.06h385zm-130.5-246.7s-18.68-19.19-49.08-17.13c-30.47-2.066-49.14 17.13-49.14 17.13-30.82 30.78-19.83 69.08-9.109 88.89 6.653 12.4 53.98 83.47 58.06 89.54v0.478l0.186-0.248 0.169 0.248v-0.478c3.956-6.067 51.39-77.14 57.99-89.54 10.75-19.8 21.71-58.1-9.082-88.89m159 334.6c-0.958 1.051-2.253 1.632-3.717 1.632h-411.3c-1.436 0-2.74-0.581-3.707-1.632l-1.029-3.889 69.11-417.9c0.364-2.315 2.395-4.036 4.737-4.036h84.83l5.801-68.07-35.7-0.054 83.06-83.03 83.24 83.24-35.68-0.044 5.801 67.96h86.31c2.378 0 4.373 1.721 4.711 4.107l64.66 417.9c0.231 1.428-0.185 2.798-1.082 3.889" fill="#fff"/></g><g transform="translate(326 946.1)"><path d="m0 0h15.62v31.52h7.548c15.75 0 21.53 7.956 21.53 20.98v19.6c0 13.01-5.775 20.82-21.53 20.82h-23.17zm21.38 80.19c5.349 0 7.682-2.474 7.682-7.547v-21.37c0-5.073-2.333-7.681-7.682-7.681h-5.756v36.6zm63.03 12.74v-71.82c0-5.481-2.181-9.184-7.68-9.184-5.473 0-7.664 3.703-7.664 9.184v71.82h-15.62v-70.31c0-14.4 6.847-23.71 23.28-23.71 15.91 0 22.08 9.312 22.08 23.71v70.31zm54.66-92.92h15.77v92.92h-15.77v-39.33h-15.07v39.33h-15.64v-92.92h15.64v40.98h15.07zm37.67 0 2.741 16.99h16.59l2.883-16.99h16.03l-17.67 92.92h-17.83l-17.54-92.92zm10.96 66.76h0.142l6.164-37.29h-12.47zm55.62-67.85c15.9 0 22.76 9.033 22.76 21.79v4.527c0 10.28-4.116 15.49-12.61 24.12l-9.992 9.867c-4.531 4.386-7.405 7.401-7.405 12.62v1.911c0 5.216 2.998 7.677 7.405 7.677 4.923 0 7.393-2.595 7.393-7.943v-8.084h14.25v7.534c0 13.43-6.182 21.11-21.8 21.11-15.21 0-21.94-8.918-21.94-20.43v-3.149c0-10.7 4.116-16.04 13.03-24.82l9.18-9.18c4.798-4.519 6.998-7.809 6.998-13.16v-3.57c0-4.926-2.2-8.221-7.123-8.221-5.348 0-7.68 3.02-7.68 8.221v12.75h-14.53v-12.47c0-12.2 6.165-21.1 22.06-21.1m82.07 94.02-10.98-64.83h-0.124l-10.7 64.83h-15.9l17.68-92.92h17l17.68 92.92zm21.76-92.92h37.29v12.75h-21.65v28.23h15.47v12.62h-15.47v26.59h21.65v12.74h-37.29zm67.56-1.091c15.9 0 22.74 9.033 22.74 21.79v4.527c0 10.28-4.107 15.49-12.6 24.12l-10.01 9.867c-4.515 4.386-7.398 7.401-7.398 12.62v1.911c0 5.216 3.016 7.677 7.398 7.677 4.94 0 7.405-2.595 7.405-7.943v-8.084h14.25v7.534c0 13.43-6.164 21.11-21.78 21.11-15.22 0-21.93-8.918-21.93-20.43v-3.149c0-10.7 4.106-16.04 13.01-24.82l9.198-9.18c4.789-4.519 6.979-7.809 6.979-13.16v-3.57c0-4.926-2.19-8.221-7.13-8.221-5.349 0-7.681 3.02-7.681 8.221v12.75h-14.53v-12.47c0-12.2 6.182-21.1 22.08-21.1m31.63 1.091h15.63v92.92h-15.63zm66.33 92.92v-73.46c0-4.807-1.651-7.547-5.908-7.547-4.106 0-5.756 2.74-5.756 7.405v18.78h-14.8v-18.5c0-11.79 4.39-20.69 20.56-20.69 15.63 0 21.53 8.771 21.53 22.2v71.82zm37.39-92.92 2.741 16.99h16.58l2.874-16.99h16.04l-17.68 92.92h-17.82l-17.55-92.92zm10.95 66.76h0.133l6.182-37.29h-12.48z" fill="#fff"/></g><g transform="translate(347.3 808.9)"><path d="m0 0c15.9 0 22.75 9.046 22.75 21.8v4.514c0 10.29-4.106 15.49-12.6 24.13l-10.01 9.862c-4.514 4.39-7.406 7.406-7.406 12.62v1.911c0 5.215 3.033 7.676 7.406 7.676 4.94 0 7.406-2.607 7.406-7.955v-8.089h14.26v7.552c0 13.43-6.173 21.1-21.8 21.1-15.21 0-21.92-8.904-21.92-20.42v-3.162c0-10.68 4.106-16.03 13.02-24.8l9.189-9.18c4.789-4.531 6.989-7.809 6.989-13.16v-3.57c0-4.927-2.2-8.222-7.14-8.222-5.331 0-7.663 3.02-7.663 8.222v12.75h-14.53v-12.47c0-12.2 6.165-21.11 22.06-21.11m43.71 1.104 2.741 16.99h16.58l2.891-16.99h16.03l-17.68 92.92h-17.82l-17.55-92.92zm10.95 66.74h0.15l6.165-37.27h-12.48zm65.63-66.74h13.7v92.92h-13.01v-53.32l-16.86 53.32h-15.36v-92.92h13.16v58.39zm23 0h15.62v92.92h-15.62z" fill="#fff"/></g><g transform="translate(514.7 890.2)"><path d="m0 0h12.88v-80.18h15.77v80.18h12.88v12.75h-41.53zm56.46-80.18 2.732 16.99h16.58l2.882-16.99h16.04l-17.68 92.92h-17.82l-17.54-92.92zm10.95 66.74h0.151l6.164-37.27h-12.48z" fill="#fff"/></g><g transform="translate(630.6 810)"><path d="m0 0 2.741 16.99h16.59l2.882-16.99h16.03l-17.68 92.92h-17.82l-17.54-92.92zm10.97 66.74h0.132l6.165-37.27h-12.47zm65.07-66.74h16.45l-14.94 42.22c8.905 2.053 12.48 7.942 12.48 17.95v11.92c0 13.03-5.756 20.84-21.53 20.84h-22.75v-92.92h15.62v42.62zm-9.455 80.18c5.348 0 7.681-2.461 7.681-7.534v-13.71c0-4.927-2.333-7.663-7.681-7.663h-5.207v28.91zm33-80.18h15.63v92.92h-15.63zm38.09 0 2.741 16.99h16.59l2.882-16.99h16.03l-17.67 92.92h-17.83l-17.54-92.92zm10.96 66.74h0.142l6.164-37.27h-12.47z" fill="#fff"/></g></g></g></svg>
