<?xml version="1.0" encoding="UTF-8"?>
<svg width="1512" height="1512" version="1.1" viewBox="0 0 1512 1512" xml:space="preserve" xmlns="http://www.w3.org/2000/svg"><defs><clipPath id="clipPath24"><path d="m0 1134h1134v-1134h-1134z"/></clipPath></defs><g transform="matrix(1.333 0 0 -1.333 0 1512)"><path d="m0 0.03h1134v1134h-1134z" fill="#2d703f"/><g transform="translate(143.1 1039)"><path d="m0 0v-228.5h-38.43v174.9h-0.346l-26.95-27.98h-0.354v40.11l35.39 41.46z" fill="#fff"/></g><g clip-path="url(#clipPath24)"><g transform="translate(269.9 989.2)"><path d="m0 0v-19.88c0-19.2-10.45-32-26.28-37.07 19.2-4.364 28.3-17.84 28.3-38.76v-33.7c0-31.66-16.85-52.23-55.61-52.23-39.12 0-52.95 22.24-52.95 56.97v29.99h35.09v-32.71c0-13.47 4.701-22.21 17.86-22.21 11.78 0 17.15 8.408 17.15 20.54v37.75c0 12.13-5.375 18.54-18.86 18.54h-16.16v29.31h14.49c12.45 0 20.52 6.43 20.52 18.54v24.61c0 12.48-4.346 20.57-16.48 20.57-12.13 0-16.52-8.089-16.52-22.25v-23.25h-35.07v20.21c0 33.69 13.82 57.3 53.59 57.3 35.4 0 50.91-19.89 50.91-52.26" fill="#fff"/></g><g transform="translate(747 382.7)"><path d="m0 0c-4.684 1.287-24.34 28.44-8.799 46.31 2.581 2.946-5.224 11.58-3.086 11.76 8.514 0.656 13.02-4.603 15.25-12.21 0.187-3.353 0.302-6.732 0.302-10.16 0-12.23-1.286-24.18-3.663-35.71m-47.93-88.34c-1.756 0.496-3.547 1.056-5.498 2.031-9.535 4.869-8.4-2.918-13.09-1.197-4.728 1.765 5.303 12.65-8.817 3.441-14.04-9.197-10.25 1.411-16.39 16.99-6.191 15.57 7.06 33.37 18.13 37.39 15.18 5.49 24.63 6.608 31.75 8.373 21.02 5.25 25.47 17.72 29.29 10.13 0.718-1.41 1.418-2.767 2.049-4.054 1.223-2.252 2.634-6.856 2.696-11.39-8.915-23.39-22.7-44.37-40.12-61.72m-123.4-50.93c-17.1 0-33.59 2.475-49.18 7.041-2.235 1.819-3.521 4.879-2.12 8.551 5.42 14.12 21.54 19.63 34.28 20.85 28.36 2.784 65.66-18.4 71.6-14.99 5.961 3.423 17.94 19.02 35.55 18.36 12.01-0.451 11.92-2.465 15.95-4.008-29.43-22.44-66.17-35.8-106.1-35.8m-23.78 114c-2.422-3.929-8.985-33.36-13.41-29.94-4.444 3.441 1.774 34.13 3.069 36.47 6.909 12.66 21.85 12.04 10.34-6.528m71.46 34.74c-3.459-3.07-12.31-1.952-16.73 1.515-4.399 3.415 2.793 9.092 5.419 9.313 5.889 0.506 14.74-7.707 11.31-10.83m77.23-0.293c-1.88 0.701-3.539 2.492-4.976 6.775-1.428 4.284 2.183 6.75 5.712 5.029 3.601-1.818 8.258-7.183 8.258-10.04 0-2.874-7.061-2.536-8.994-1.764m7.441-5.384c5.881 0.479 14.72-7.672 11.26-10.8-3.451-3.104-12.27-1.977-16.69 1.49-4.408 3.433 2.785 9.1 5.428 9.313m-187.7-69.77c-3.406-13.38-7.379-18.2-10.74-22.41-3.388-4.274-15.93-9.72-23.87-9.126-7.965 0.585-9.064 21.83-9.064 32.74 0 3.78-5.358-7.405-8.143 15.32-1.773 14.55-11.11-1.517-11.76 8.204-0.683 9.676-5.339 7.752-10.25 13.81-4.887 6.04-10.98-0.594-17.79-3.655-6.795-3.015-4.001-4.62-13.64-1.569l-0.62 0.249c-8.852 20.92-13.75 43.93-13.75 68.08 0 5.926 0.31 11.73 0.86 17.47l1.082 1.632c9.26 10.95 9.056 13.51 9.056 13.51l10.24 3.538s16.36-2.517 28.67-7.138c10.15-3.805 26.13-12.42 35.41-8.63 6.715 2.759 11.97 6.431 11.34 12.03-0.753 7.025-6.288 8.684-12.96 3.965-2.483-1.756-7.734 10.57-11.87 9.951-4.115-0.612 5.1-14.47 1.614-15.05-3.512-0.603-10.55 14.44-11.76 16.87-1.189 2.421-6.635 8.451-11.51 3.848-10.32-9.809-27.08-9.206-30.46-11.73-10.24-7.663-12.95 2.527-12.72 8.726 0.408 1.42 0.851 2.866 1.295 4.258 3.335 3.69 15.34 4.913 19.48 2.155 4.515-3.024 7.77 0.79 9.526 2.625 1.81 1.783 1.171 4.692 0.045 7.113-1.144 2.43 2.261 4.213 4.594 4.834 2.368 0.63 10.16 6.084 13.27 7.902 3.149 1.792 19.33 3.77 26.57 0.143 7.264-3.655 13.9-0.666 17.46 3.511 4.479 5.322 10.16 9.358 12.7 10.58 2.536 1.198-6.263 9.402-13.46 0.453-7.237-8.887-10.93-9.703-14.32-9.703s-23.6 5.038-26.08 11.42c-2.466 6.368 6.315 11.15 13.76 14.76 7.451 3.557 27.85 3.504 33.08 4.684 10.59 2.332 24.15 7.662 30.97 3.015 6.803-4.558-28.52-12.6-16.9-18.87 4.133-2.27 22.8 10.72 29.2 14.05 15.04 7.769-14.59 10.33-10.75 26.11 4.347 17.83-36.36 10.93-56.66 9.414 27.23 17.43 59.55 27.58 94.24 27.58 82.57 0 151.7-57.19 170.2-134.1 0.124-3.805-0.48-6.528-0.852-8.107-1.579-6.288-13.55-11.72-20.49-1.552-1.774 2.545-9.278 9.631-9.03-2.484 0.249-12.13 11.8-13.37 0.604-20.66-11.18-7.265-13.22-5.527-18.38-7.353-5.172-1.818-10.16-14.31-8.941-20.99 1.242-6.687 17.2-24.92 5.367-24.18-2.778 0.203-23.68 14.48-27.15 23.66-3.619 9.676-7.61 19.14-10.43 26.42-2.857 7.273-10.24 9.126-16.49 4.852-6.217-4.267 1.747-8.505-2.741-17.63-4.452-9.108-7.654-17.22-14.24-9.703-17.07 19.57-41.89 9.907-45.78 31.7-2.103 11.8-12.27 10.66-20.76 17.35-8.56 6.651-13.3 10.28-14.75 5.454-1.251-4.231 26.76-26.44 28.75-32.11 2.981-8.453-8.391-15.9-16.71-17.92-8.285-1.996-11.93 4.665-20.08 13.16-8.143 8.469-11.71 14.54-12.28 7.866-0.825-9.614 7.726-23.75 16.04-29.03 7.087-4.497 15.02-6.528 12.73-13.81-2.315-7.29-0.044-3.166-7.973-11.01-7.948-7.892-9.473-10.43-8.888-21.33 0.568-10.92-2.27-11.54-3.991-20.62-1.694-9.081-5.641-1.223-9.065-14.55m-94.02 192.8 0.922 1.065c3.158 3.584 9.438 4.363 13.8 5.047 4.347 0.745 10.16-1.463 10.86-4.346 0.744-2.883-10.92-8.16-13.06-10.16-6.04-5.552-15.5-16.89-21.04-18.11-1.809-0.399-3.282-0.133-4.506 0.461 3.619 9.082 7.983 17.81 13.02 26.04m8.993 17.84c2.253 3.326 9.775 12.82 10.7 14 1.916 2.492 5.774 3.007 8.462 3.485 2.67 0.524 6.217-0.993 6.652-2.988 0.461-2.014-1.029-9.792-2.359-11.13-3.672-3.823-13.27-9.215-18.56-8.355-4.079 0.63-5.676 3.797-4.896 4.984m556.3-103.4c-29.87 41.91-165 209.2-416.2 209.2-251.2 0-386.3-167.3-416.2-209.2-1.295-1.8-2.377-3.343-3.282-4.657 0.905-1.347 1.987-2.89 3.282-4.7 29.91-41.88 165-209.2 416.2-209.2 251.2 0 386.3 167.3 416.2 209.2 1.303 1.81 2.377 3.353 3.246 4.7-0.869 1.314-1.943 2.857-3.246 4.657" fill="#fff"/></g><g transform="translate(371.9 946.1)"><path d="m0 0h16.44l-18.5 51.12 18.09 41.8h-15.36l-16.99-40.84v40.84h-15.63v-92.92h15.63v45.23zm20.39 0h34.26v12.74h-18.64v80.19h-15.62zm39.46 0h15.61v92.92h-15.61zm65.78 0h14.24v92.92h-19.74l-9.038-52.36h-0.142l-10.15 52.36h-18.23v-92.92h12.89v60.3h0.275l11.65-60.3h7.273l10.55 60.3h0.408zm33.54 0 2.741 16.99h16.6l2.873-16.99h16.04l-17.68 92.92h-17.82l-17.54-92.92zm10.96 66.74h0.142l6.173-37.28h-12.47zm74.82-66.74h14.24v92.92h-19.74l-9.055-52.36h-0.125l-10.15 52.36h-18.23v-92.92h12.89v60.3h0.265l11.66-60.3h7.264l10.56 60.3h0.416zm52.18 92.92v-71.82c0-5.481-2.191-9.18-7.672-9.18-5.482 0-7.681 3.699-7.681 9.18v71.82h-15.62v-70.31c0-14.39 6.848-23.72 23.3-23.72 15.89 0 22.07 9.33 22.07 23.72v70.31zm52.34 0v-71.82c0-5.481-2.192-9.18-7.682-9.18-5.481 0-7.672 3.699-7.672 9.18v71.82h-15.63v-70.31c0-14.39 6.857-23.72 23.3-23.72 15.9 0 22.07 9.33 22.07 23.72v70.31zm19.57-12.74h12.89v-80.18h15.77v80.18h12.88v12.74h-41.54zm77.84 12.74v-71.82c0-5.481-2.2-9.18-7.681-9.18s-7.672 3.699-7.672 9.18v71.82h-15.63v-70.31c0-14.39 6.857-23.72 23.3-23.72 15.91 0 22.07 9.33 22.07 23.72v70.31zm42.61-94.03c15.9 0 22.74 9.046 22.74 21.8v4.514c0 10.29-4.115 15.5-12.6 24.13l-10.01 9.871c-4.513 4.382-7.396 7.397-7.396 12.61v1.916c0 5.215 3.015 7.672 7.396 7.672 4.942 0 7.406-2.608 7.406-7.956v-8.079h14.25v7.547c0 13.42-6.173 21.1-21.78 21.1-15.23 0-21.94-8.904-21.94-20.42v-3.167c0-10.68 4.115-16.03 13.02-24.8l9.19-9.18c4.799-4.532 6.988-7.822 6.988-13.16v-3.565c0-4.94-2.189-8.222-7.131-8.222-5.34 0-7.672 3.016-7.672 8.222v12.74h-14.53v-12.47c0-12.2 6.165-21.12 22.08-21.12m27.24 81.28h12.89v-80.18h15.76v80.18h12.89v12.74h-41.54zm46.86-80.18h37.29v12.74h-21.66v28.24h15.49v12.6h-15.49v26.6h21.66v12.74h-37.29z" fill="#fff"/></g><g transform="translate(375.4 903)"><path d="m0 0-10.97-64.83h-0.133l-10.7 64.83h-15.89l17.68-92.94h17l17.69 92.94zm25.06-92.94 2.741 17h16.59l2.874-17h16.04l-17.69 92.94h-17.82l-17.54-92.94zm10.96 66.75h0.133l6.173-37.27h-12.47z" fill="#fff"/></g><g transform="translate(463.9 808.9)"><path d="m0 0c15.9 0 22.75 9.047 22.75 21.8v4.515c0 10.29-4.106 15.48-12.61 24.13l-10 9.862c-4.523 4.39-7.397 7.406-7.397 12.6v1.925c0 5.206 3.015 7.681 7.397 7.681 4.932 0 7.407-2.608 7.407-7.956v-8.089h14.25v7.548c0 13.42-6.164 21.1-21.79 21.1-15.21 0-21.93-8.905-21.93-20.43v-3.149c0-10.7 4.115-16.04 13.02-24.81l9.189-9.188c4.79-4.523 6.989-7.814 6.989-13.16v-3.557c0-4.939-2.199-8.212-7.131-8.212-5.339 0-7.681 2.998-7.681 8.212v12.75h-14.53v-12.48c0-12.2 6.173-21.11 22.08-21.11m26.97 81.28h12.89v-80.19h15.76v80.19h12.9v12.75h-41.54z" fill="#fff"/></g><g transform="translate(544.5 810)"><path d="m0 0 2.741 17h16.58l2.883-17h16.04l-17.69 92.94h-17.82l-17.54-92.94zm10.96 66.75h0.142l6.164-37.27h-12.48zm52.76-67.84c15.89 0 22.74 9.047 22.74 21.8v4.515c0 10.29-4.115 15.48-12.6 24.13l-10.01 9.863c-4.516 4.39-7.399 7.406-7.399 12.6v1.925c0 5.206 3.016 7.68 7.399 7.68 4.939 0 7.405-2.608 7.405-7.955v-8.089h14.25v7.548c0 13.42-6.172 21.1-21.78 21.1-15.23 0-21.94-8.905-21.94-20.43v-3.148c0-10.7 4.116-16.04 13.02-24.81l9.187-9.189c4.799-4.522 6.991-7.813 6.991-13.16v-3.557c0-4.94-2.192-8.212-7.131-8.212-5.34 0-7.673 2.997-7.673 8.212v12.75h-14.53v-12.48c0-12.2 6.164-21.11 22.08-21.11m28.75 1.091h37.28v12.75h-21.65v28.24h15.49v12.6h-15.49v26.59h21.65v12.75h-37.28zm59.06 12.75v67.43h6.573c6.449 0 8.914-3.832 8.914-9.322v-48.66c0-5.614-2.465-9.455-8.914-9.455zm8.489 80.19h-24.12v-92.94h24.12c16.74 0 22.62 10.7 22.62 24.95v43.04c0 14.39-5.88 24.95-22.62 24.95m84.54-92.94h14.25v92.94h-19.74l-9.038-52.35h-0.134l-10.15 52.35h-18.24v-92.94h12.89v60.31h0.275l11.66-60.31h7.255l10.56 60.31h0.417zm20.93 0h37.29v12.75h-21.65v28.24h15.48v12.6h-15.48v26.59h21.65v12.75h-37.29zm43.44 0h37.28v12.75h-21.65v28.24h15.49v12.6h-15.49v26.59h21.65v12.75h-37.28zm41.64 80.19h12.89v-80.19h15.77v80.19h12.88v12.75h-41.54zm89.63-80.19h14.24v92.94h-19.73l-9.047-52.35h-0.142l-10.15 52.35h-18.23v-92.94h12.89v60.31h0.267l11.65-60.31h7.264l10.56 60.31h0.407zm20.93 0h37.29v12.75h-21.66v28.24h15.49v12.6h-15.49v26.59h21.66v12.75h-37.29z" fill="#fff"/></g><g transform="translate(1064 822.8)"><path d="m0 0v67.43h6.58c6.457 0 8.914-3.831 8.914-9.322v-48.66c0-5.615-2.457-9.455-8.914-9.455zm8.506 80.19h-24.12v-92.94h24.12c16.72 0 22.62 10.7 22.62 24.95v43.04c0 14.39-5.898 24.95-22.62 24.95" fill="#fff"/></g></g></g></svg>
