<?xml version="1.0" encoding="UTF-8"?>
<svg width="1512" height="1512" version="1.1" viewBox="0 0 1512 1512" xml:space="preserve" xmlns="http://www.w3.org/2000/svg"><defs><clipPath id="clipPath895"><path d="m0 1134h1134v-1134h-1134z"/></clipPath></defs><g transform="matrix(1.333 0 0 -1.333 0 1512)"><path d="m0 0.028h1134v1134h-1134z" fill="#c92c32"/><g transform="translate(143.5 877.3)"><path d="m0 0 34.42 94.15h0.336v-94.15zm34.08-67.13h36.44v37.12h15.52v30.02h-15.52v161.6h-37.79l-66.47-168v-23.62h67.82z" fill="#fff"/></g><g transform="translate(502.8 525.9)"><path d="m0 0-203.3 117.4v-379.8l203.3-61.34z" fill="#fff"/></g><g transform="translate(525.1 525.1)"><path d="m0 0v-323.1l204.7 61.53v379.8z" fill="#fff"/></g><g clip-path="url(#clipPath895)"><g transform="translate(889.5 652.9)"><path d="m0 0c0 13.29-10.78 24.08-24.05 24.08-13.3 0-24.08-10.78-24.08-24.08v-25.94h48.13z" fill="#fff"/></g><g transform="translate(847.3 270.2)"><path d="m0 0h-5.96l24.06-84.08 24.03 84.08h-5.978 5.978v338h-48.11v-338z" fill="#fff"/></g><g transform="translate(773.5 627)"><path d="m0 0-21.8 17.21v-391l-226-73.01h-22.97l-224.9 62.83v401.2l-21.82-17.21v-399.3l245.7-68.01h25.02l226.7 71.96 20.02 5.889z" fill="#fff"/></g><g transform="translate(358 946.1)"><path d="m0 0h16.45l-18.51 51.12 18.1 41.8h-15.35l-17-40.84v40.84h-15.64v-92.92h15.64v45.23zm60.15 92.92-10.97-64.83h-0.124l-10.7 64.83h-15.91l17.69-92.92h16.99l17.69 92.92z" fill="#fff"/></g><g transform="translate(445.9 946.1)"><path d="m0 0 2.741 16.99h16.58l2.891-16.99h16.05l-17.7 92.92h-17.82l-17.55-92.92zm10.97 66.76h0.132l6.165-37.29h-12.48zm34.36-66.76h34.27v12.75h-18.65v80.17h-15.62zm42.06 0h15.62v92.92h-15.62zm23.57 80.19h12.9v-80.19h15.75v80.19h12.9v12.74h-41.54zm49.45-80.19h37.29v12.75h-21.65v28.23h15.48v12.62h-15.48v26.59h21.65v12.74h-37.29zm46.3 0h37.29v12.75h-21.65v28.23h15.49v12.62h-15.49v26.59h21.65v12.74h-37.29zm44.53 80.19h12.88v-80.19h15.77v80.19h12.88v12.74h-41.53zm80.98-80.19h13.71v92.92h-13.03v-53.32l-16.86 53.32h-15.35v-92.92h13.16v58.39zm23.27 0h37.29v12.75h-21.67v28.23h15.5v12.62h-15.5v26.59h21.67v12.74h-37.29z" fill="#fff"/></g><g transform="translate(356.7 810)"><path d="m0 0h15.77v92.92h-15.77v-39.33h-15.07v39.33h-15.64v-92.92h15.64v40.98h15.07zm37.81 0 2.74 16.99h16.59l2.883-16.99h16.03l-17.69 92.92h-17.81l-17.54-92.92zm10.96 66.74h0.142l6.165-37.27h-12.47zm64.8-66.74h16.45l-14.95 42.22c8.923 2.053 12.48 7.942 12.48 17.95v11.92c0 13.03-5.748 20.84-21.51 20.84h-22.77v-92.92h15.63v42.62zm-9.455 80.18c5.348 0 7.681-2.461 7.681-7.534v-13.71c0-4.927-2.333-7.663-7.681-7.663h-5.215v28.91zm32.73-80.18h15.62v92.92h-15.62zm41.11 12.74v67.44h6.572c6.44 0 8.914-3.831 8.914-9.312v-48.66c0-5.623-2.474-9.472-8.914-9.472zm8.497 80.19h-24.13v-92.92h24.13c16.73 0 22.62 10.68 22.62 24.95v43.03c0 14.4-5.89 24.94-22.62 24.94m63.3 0v-71.82c0-5.481-2.2-9.184-7.682-9.184-5.49 0-7.681 3.703-7.681 9.184v71.82h-15.62v-70.31c0-14.4 6.843-23.72 23.3-23.72 15.9 0 22.08 9.325 22.08 23.72v70.31zm45.33-94.03c15.9 0 22.75 9.046 22.75 21.8v4.515c0 10.29-4.107 15.49-12.6 24.13l-10.01 9.863c-4.514 4.39-7.406 7.405-7.406 12.62v1.911c0 5.215 3.034 7.677 7.406 7.677 4.941 0 7.406-2.608 7.406-7.956v-8.088h14.25v7.551c0 13.43-6.155 21.1-21.79 21.1-15.21 0-21.93-8.905-21.93-20.42v-3.163c0-10.68 4.108-16.03 13.02-24.8l9.188-9.18c4.79-4.532 6.989-7.809 6.989-13.16v-3.57c0-4.926-2.199-8.221-7.14-8.221-5.33 0-7.662 3.02-7.662 8.221v12.75h-14.55v-12.47c0-12.2 6.181-21.11 22.08-21.11" fill="#fff"/></g></g></g></svg>
