<?xml version="1.0" encoding="UTF-8"?>
<svg width="1512" height="1512" version="1.1" viewBox="0 0 1512 1512" xml:space="preserve" xmlns="http://www.w3.org/2000/svg"><defs><clipPath id="clipPath20"><path d="m0 1134h1134v-1134h-1134z"/></clipPath><clipPath id="clipPath132"><path d="m0 1134h1134v-1134h-1134z"/></clipPath></defs><g transform="matrix(1.333 0 0 -1.333 0 1512)"><path d="m0.667 0h1133v1134h-1133z" fill="#40a7b9"/><g clip-path="url(#clipPath20)"><g transform="translate(810.3 710.8)"><path d="m0 0 167.4-544.3s-110 0.728-171.7 0.337c-382.8-2.423-642-1.594-643.5 2.288-31.35 83.63 33.67 203.2 121.7 264.6 61.36 42.77 79.73 19.5 145.3 71.16 17.72 13.95 66.49 53.16 101.9 120.8 25.58 48.86 35.34 81.79 35.34 81.79z" fill="none" stroke="#fff" stroke-miterlimit="10" stroke-width="25"/></g><g transform="translate(712.1 386.7)"><path d="m0 0c5.504-40.28-22.69-77.39-62.96-82.9-40.28-5.502-77.39 22.69-82.9 62.97s22.69 77.39 62.96 82.9c40.28 5.504 77.39-22.69 82.9-62.96" fill="#fff"/></g><g transform="translate(591.4 638.8)"><path d="m0 0h186" fill="none" stroke="#fff" stroke-miterlimit="10" stroke-width="10"/></g><g transform="translate(561.6 579.9)"><path d="m0 0h232.3" fill="none" stroke="#fff" stroke-miterlimit="10" stroke-width="10"/></g><g transform="translate(521.1 521.1)"><path d="m0 0h285.8" fill="none" stroke="#fff" stroke-miterlimit="10" stroke-width="10"/></g><g transform="translate(465.6 462.2)"><path d="m0 0h358.3" fill="none" stroke="#fff" stroke-miterlimit="10" stroke-width="10"/></g><g transform="translate(330.6 403.3)"><path d="m0 0h510.2" fill="none" stroke="#fff" stroke-miterlimit="10" stroke-width="10"/></g><g transform="translate(275.1 344.5)"><path d="m0 0h591.2" fill="none" stroke="#fff" stroke-miterlimit="10" stroke-width="10"/></g><g transform="translate(236.1 285.6)"><path d="m0 0h650.7" fill="none" stroke="#fff" stroke-miterlimit="10" stroke-width="10"/></g><g transform="translate(221.1 226.8)"><path d="m0 0h682.7" fill="none" stroke="#fff" stroke-miterlimit="10" stroke-width="10"/></g><g transform="translate(790.5 638.8)"><path d="m0 0c0-6.627-5.372-12-12-12s-12 5.372-12 12 5.373 12 12 12 12-5.373 12-12" fill="#fff"/></g><g transform="translate(604.8 638.8)"><path d="m0 0c0-6.627-5.372-12-12-12s-12 5.372-12 12 5.372 12 12 12 12-5.373 12-12" fill="#fff"/></g><g transform="translate(809.2 579.8)"><path d="m0 0c0-6.627-5.373-12-12-12s-12 5.372-12 12 5.372 12 12 12 12-5.373 12-12" fill="#fff"/></g><g transform="translate(576.2 578.8)"><path d="m0 0c0-6.627-5.373-12-12-12s-12 5.372-12 12 5.372 12 12 12 12-5.373 12-12" fill="#fff"/></g><g transform="translate(827.5 520.8)"><path d="m0 0c0-6.627-5.372-12-12-12s-12 5.373-12 12 5.373 12 12 12 12-5.372 12-12" fill="#fff"/></g><g transform="translate(535.5 520.8)"><path d="m0 0c0-6.627-5.372-12-12-12s-12 5.373-12 12 5.373 12 12 12 12-5.372 12-12" fill="#fff"/></g><g transform="translate(845.2 462.1)"><path d="m0 0c0-6.627-5.373-12-12-12s-12 5.372-12 12 5.372 12 12 12 12-5.372 12-12" fill="#fff"/></g><g transform="translate(481.2 462.1)"><path d="m0 0c0-6.627-5.373-12-12-12s-12 5.372-12 12 5.372 12 12 12 12-5.372 12-12" fill="#fff"/></g><g transform="translate(862.2 404.8)"><path d="m0 0c0-6.627-5.373-12-12-12s-12 5.373-12 12 5.372 12 12 12 12-5.372 12-12" fill="#fff"/></g><g transform="translate(346.2 404.8)"><path d="m0 0c0-6.627-5.373-12-12-12s-12 5.373-12 12 5.372 12 12 12 12-5.372 12-12" fill="#fff"/></g><g transform="translate(880.5 344.8)"><path d="m0 0c0-6.627-5.372-12-12-12s-12 5.373-12 12 5.373 12 12 12 12-5.372 12-12" fill="#fff"/></g><g transform="translate(287.5 344.8)"><path d="m0 0c0-6.627-5.372-12-12-12s-12 5.373-12 12 5.373 12 12 12 12-5.372 12-12" fill="#fff"/></g><g transform="translate(899.2 285.4)"><path d="m0 0c0-6.627-5.373-12-12-12s-12 5.372-12 12 5.372 12 12 12 12-5.373 12-12" fill="#fff"/></g><g transform="translate(249.8 285.4)"><path d="m0 0c0-6.627-5.372-12-12-12s-12 5.372-12 12 5.372 12 12 12 12-5.373 12-12" fill="#fff"/></g><g transform="translate(918.2 227.4)"><path d="m0 0c0-6.627-5.373-12-12-12s-12 5.372-12 12 5.372 12 12 12 12-5.373 12-12" fill="#fff"/></g><g transform="translate(234.2 227.4)"><path d="m0 0c0-6.627-5.373-12-12-12s-12 5.372-12 12 5.372 12 12 12 12-5.373 12-12" fill="#fff"/></g></g><g clip-path="url(#clipPath132)"><g transform="translate(698.6 949.2)"><path d="m0 0h16.4l-14.9 42.08c8.888 2.04 12.44 7.929 12.44 17.89v11.89c0 12.97-5.738 20.76-21.46 20.76h-22.68v-92.63h15.58v42.49z" fill="#fff"/></g><g transform="translate(689.2 1029)"><path d="m0 0c5.339 0 7.654-2.465 7.654-7.52v-13.65c0-4.923-2.315-7.65-7.654-7.65h-5.181v28.82z" fill="#40a7b9"/></g><g transform="translate(509.1 1029)"><path d="m0 0h12.83v-79.93h15.72v79.93h12.84v12.7h-41.4z" fill="#fff"/></g><g transform="translate(590.1 1042)"><path d="m0 0v-71.59c0-5.464-2.19-9.149-7.654-9.149s-7.646 3.685-7.646 9.149v71.59h-15.58v-70.09c0-14.34 6.838-23.64 23.23-23.64 15.84 0 22 9.295 22 23.64v70.09z" fill="#fff"/></g><g transform="translate(645 1042)"><path d="m0 0v-71.59c0-5.464-2.19-9.149-7.654-9.149s-7.646 3.685-7.646 9.149v71.59h-15.58v-70.09c0-14.34 6.838-23.64 23.23-23.64 15.84 0 22 9.295 22 23.64v70.09z" fill="#fff"/></g><g transform="translate(447.6 1042)"><path d="m0 0v-71.59c0-5.464-2.19-9.149-7.654-9.149s-7.646 3.685-7.646 9.149v71.59h-15.58v-70.09c0-14.34 6.838-23.64 23.23-23.64 15.84 0 22 9.295 22 23.64v70.09z" fill="#fff"/></g><g transform="translate(472.8 949.2)"><path d="m0 0h34.15v12.71h-18.58v79.92h-15.56z" fill="#fff"/></g><g transform="translate(391.8 948.9)"><path d="m0 0h16.45l-18.51 51.11 18.1 41.81h-15.36l-16.99-40.84v40.84h-15.62v-92.92h15.62v45.22z" fill="#fff"/></g><g transform="translate(262.9 864.1)"><path d="m0 0c0-13.84-5.056-23.6-18.88-23.6-13.49 0-18.55 9.765-18.55 23.6v37.09c0 13.81 5.056 23.59 18.55 23.59 13.82 0 18.88-9.779 18.88-23.59zm-36.08 126.4c0 13.84 4.736 21.93 17.21 21.93 12.8 0 17.54-8.088 17.54-21.93v-15.5c0-13.81-4.736-21.93-17.54-21.93-12.47 0-17.21 8.115-17.21 21.93zm74.52-122.4v24.96c0 21.9-7.734 37.76-25.62 45.86 15.16 7.401 22.24 20.88 22.24 39.77v9.454c0 35.75-18.54 54.95-53.95 54.95-35.07 0-53.29-19.21-53.29-54.95v-9.454c0-18.55 6.759-32.37 21.57-39.77-17.86-8.102-25.29-23.96-25.29-45.86v-24.96c0-34.73 16.53-59.01 57.01-59.01 40.8 0 57.32 24.28 57.32 59.01" fill="#fff"/></g><g transform="translate(173.7 1040)"><path d="m0 0v-228.6h-38.44v175h-0.346l-26.96-27.99h-0.337v40.13l35.4 41.45z" fill="#fff"/></g></g></g></svg>
