<?xml version="1.0" encoding="UTF-8"?>
<svg width="1512" height="1512" version="1.1" viewBox="0 0 1512 1512" xml:space="preserve" xmlns="http://www.w3.org/2000/svg"><defs><clipPath id="clipPath20"><path d="m0 1134h1134v-1134h-1134z"/></clipPath></defs><g transform="matrix(1.333 0 0 -1.333 0 1512)"><path d="m0 0.012h1134v1134h-1134z" fill="#f14c31"/><g clip-path="url(#clipPath20)"><g transform="translate(169.6 946.2)"><path d="m0 0c-0.674-12.81-6.067-20.9-18.19-20.9-13.14 0-18.2 8.089-18.2 22.92v39.77c0 14.48 5.384 22.9 18.53 22.9 12.82 0 17.86-8.74 17.86-22.9zm38.1 35.05c0 35.4-15.51 61-55.96 61-40.78 0-56.62-22.23-56.62-57.63v-33.69c0-37.42 14.82-56.28 42.48-56.28 16.17 0 25.93 7.414 31.67 18.51h0.328v-49.18c0-13.82-5.384-23.59-19.21-23.59-13.81 0-18.87 8.088-18.87 22.24v15.16h-35.05v-12.13c0-33.69 12.14-57.29 54.61-57.29 40.43 0 56.62 25.95 56.62 61.67z" fill="#fff"/></g><g transform="translate(842.8 225)"><path d="m0 0-121-69.81v139.7l121 69.86zm-399.7-69.81v129l111.8-64.54zm-18.4 0-121 69.81v139.7l121-69.86zm130.2 386.3-111.8-64.54v129.1zm148.5-64.54-111.7 64.54 111.7 64.54zm-111.7-96.35 120.9 69.82 121-69.82-121-69.85zm-27.6 15.92-111.8 64.52 111.8 64.54zm130.2 64.5-111.8-64.5v129.1zm-130.2-225.4-111.8 64.54 111.8 64.56zm292.5 153-134.8 77.77v155.6c0 3.272-1.739 6.324-4.595 7.964l-139.3 80.44c-2.861 1.641-6.355 1.641-9.202 0l-139.4-80.44c-2.847-1.64-4.604-4.692-4.604-7.964v-155.6l-134.8-77.77c-2.848-1.641-4.595-4.674-4.595-7.955v-160.9c0-3.29 1.747-6.305 4.595-7.956l139.4-80.45c1.41-0.816 2.989-1.224 4.603-1.224 1.579 0 3.175 0.408 4.585 1.224l134.8 77.8 134.8-77.8c1.437-0.816 3.017-1.224 4.595-1.224 1.597 0 3.176 0.408 4.594 1.224l139.4 80.45c2.848 1.651 4.596 4.666 4.596 7.956v160.9c0 3.281-1.748 6.323-4.596 7.955" fill="#fff"/></g><g transform="translate(328.2 1026)"><path d="m0 0h12.88v-80.18h15.77v80.18h12.88v12.75h-41.53zm70.57-68.26c-5.482 0-7.947 3.977-7.947 9.587v49.9c0 5.623 2.465 9.601 7.947 9.601 5.623 0 8.089-3.978 8.089-9.601v-49.9c0-5.61-2.466-9.587-8.089-9.587m0-13.03c16.59 0 23.72 10.7 23.72 25.1v44.95c0 14.53-7.131 25.08-23.72 25.08-16.45 0-23.58-10.55-23.58-25.08v-44.95c0-14.4 7.123-25.1 23.58-25.1m-14.94 97.33h13.3v11.79h-13.3zm16.59 0h13.29v11.79h-13.29zm52.74-84.3c-5.481 0-7.947 3.977-7.947 9.587v49.9c0 5.623 2.466 9.601 7.947 9.601 5.624 0 8.089-3.978 8.089-9.601v-49.9c0-5.61-2.465-9.587-8.089-9.587m0-13.03c16.59 0 23.72 10.7 23.72 25.1v44.95c0 14.53-7.13 25.08-23.72 25.08-16.44 0-23.58-10.55-23.58-25.08v-44.95c0-14.4 7.131-25.1 23.58-25.1m-14.94 97.33h13.3v11.79h-13.3zm16.59 0h13.3v11.79h-13.3zm50.42-97.33c15.89 0 22.75 9.051 22.75 21.8v4.519c0 10.29-4.106 15.49-12.61 24.13l-10 9.862c-4.524 4.386-7.406 7.406-7.406 12.61v1.92c0 5.219 3.015 7.68 7.406 7.68 4.931 0 7.406-2.607 7.406-7.955v-8.089h14.24v7.548c0 13.44-6.155 21.1-21.78 21.1-15.22 0-21.94-8.905-21.94-20.42v-3.162c0-10.68 4.107-16.03 13.02-24.8l9.18-9.18c4.798-4.532 6.989-7.827 6.989-13.16v-3.574c0-4.936-2.191-8.218-7.122-8.218-5.349 0-7.681 3.016-7.681 8.218v12.75h-14.53v-12.48c0-12.2 6.174-21.12 22.08-21.12m27.39 81.28h12.88v-80.18h15.77v80.18h12.88v12.75h-41.53zm77.97 12.75v-71.83c0-5.477-2.19-9.179-7.681-9.179-5.472 0-7.664 3.702-7.664 9.179v71.83h-15.63v-70.31c0-14.39 6.847-23.72 23.29-23.72 15.9 0 22.08 9.33 22.08 23.72v70.31zm42.73-94.04c15.9 0 22.76 9.051 22.76 21.8v4.519c0 10.29-4.106 15.49-12.61 24.13l-10 9.862c-4.524 4.386-7.398 7.406-7.398 12.61v1.92c0 5.219 3.016 7.68 7.398 7.68 4.932 0 7.406-2.607 7.406-7.955v-8.089h14.25v7.548c0 13.44-6.174 21.1-21.8 21.1-15.21 0-21.92-8.905-21.92-20.42v-3.162c0-10.68 4.107-16.03 13.02-24.8l9.189-9.18c4.79-4.532 6.989-7.827 6.989-13.16v-3.574c0-4.936-2.199-8.218-7.131-8.218-5.349 0-7.682 3.016-7.682 8.218v12.75h-14.53v-12.48c0-12.2 6.173-21.12 22.07-21.12m45.21 16.04h-14.8l-1.916-22.21h8.771l7.947 20.97zm50.7 77.99v-71.83c0-5.477-2.192-9.179-7.673-9.179-5.482 0-7.681 3.702-7.681 9.179v71.83h-15.62v-70.31c0-14.39 6.847-23.72 23.3-23.72 15.89 0 22.07 9.33 22.07 23.72v70.31zm52.47 0v-71.83c0-5.477-2.19-9.179-7.672-9.179-5.49 0-7.68 3.702-7.68 9.179v71.83h-15.63v-70.31c0-14.39 6.856-23.72 23.31-23.72 15.89 0 22.07 9.33 22.07 23.72v70.31zm21.49-92.93h37.29v12.74h-21.66v28.24h15.49v12.61h-15.49v26.59h21.66v12.75h-37.29zm75.37 0h13.71v92.93h-13.03v-53.32l-16.85 53.32h-15.36v-92.93h13.16v58.39zm36.44 12.74v67.44h6.572c6.448 0 8.905-3.832 8.905-9.313v-48.67c0-5.609-2.457-9.458-8.905-9.458zm8.496 80.19h-24.12v-92.93h24.12c16.71 0 22.61 10.68 22.61 24.95v43.03c0 14.4-5.898 24.95-22.61 24.95m60.69 0v-71.83c0-5.477-2.191-9.179-7.681-9.179-5.473 0-7.664 3.702-7.664 9.179v71.83h-15.63v-70.31c0-14.39 6.847-23.72 23.29-23.72 15.91 0 22.08 9.33 22.08 23.72v70.31zm42.73-94.04c15.91 0 22.76 9.051 22.76 21.8v4.519c0 10.29-4.108 15.49-12.61 24.13l-10 9.862c-4.524 4.386-7.399 7.406-7.399 12.61v1.92c0 5.219 3.017 7.68 7.399 7.68 4.931 0 7.406-2.607 7.406-7.955v-8.089h14.25v7.548c0 13.44-6.173 21.1-21.8 21.1-15.21 0-21.93-8.905-21.93-20.42v-3.162c0-10.68 4.115-16.03 13.02-24.8l9.188-9.18c4.79-4.532 6.989-7.827 6.989-13.16v-3.574c0-4.936-2.199-8.218-7.13-8.218-5.349 0-7.673 3.016-7.673 8.218v12.75h-14.53v-12.48c0-12.2 6.164-21.12 22.06-21.12" fill="#fff"/></g><g transform="translate(355.9 903)"><path d="m0 0v-73.47c0-4.798-1.649-7.529-5.898-7.529-4.107 0-5.756 2.731-5.756 7.397v18.77h-14.81v-18.5c0-11.78 4.391-20.69 20.57-20.69 15.63 0 21.53 8.772 21.53 22.21v71.82zm34.51-92.94 2.74 17h16.59l2.882-17h16.04l-17.68 92.94h-17.83l-17.54-92.94zm10.97 66.76h0.134l6.164-37.28h-12.47z" fill="#fff"/></g><g transform="translate(444.9 890.2)"><path d="m0 0h12.89v-80.19h15.76v80.19h12.88v12.75h-41.53zm54.4-80.19 2.741 17h16.59l2.874-17h16.04l-17.68 92.94h-17.82l-17.54-92.94zm10.96 66.76h0.142l6.165-37.28h-12.47z" fill="#fff"/></g><g transform="translate(573.3 810)"><path d="m0 0h16.47l-14.96 42.22c8.918 2.066 12.48 7.955 12.48 17.97v11.92c0 13.02-5.757 20.83-21.52 20.83h-22.75v-92.94h15.62v42.63zm-9.455 80.19c5.349 0 7.682-2.457 7.682-7.53v-13.71c0-4.94-2.333-7.681-7.682-7.681h-5.206v28.92zm30.82-80.19h15.63v92.94h-15.63zm44.81-1.091c15.9 0 22.76 9.047 22.76 21.8v4.515c0 10.29-4.116 15.49-12.61 24.13l-10 9.863c-4.523 4.39-7.397 7.406-7.397 12.6v1.925c0 5.206 3.016 7.68 7.397 7.68 4.932 0 7.398-2.608 7.398-7.955v-8.089h14.26v7.548c0 13.42-6.173 21.1-21.8 21.1-15.22 0-21.93-8.91-21.93-20.43v-3.148c0-10.7 4.107-16.03 13.02-24.8l9.18-9.198c4.798-4.522 6.998-7.813 6.998-13.16v-3.557c0-4.94-2.2-8.212-7.132-8.212-5.348 0-7.68 2.997-7.68 8.212v12.75h-14.53v-12.48c0-12.2 6.165-21.11 22.07-21.11m28.07 81.28h12.89v-80.19h15.76v80.19h12.89v12.75h-41.54z" fill="#fff"/></g><g transform="translate(745.2 903)"><path d="m0 0v-71.82c0-5.481-2.2-9.179-7.682-9.179-5.481 0-7.681 3.698-7.681 9.179v71.82h-15.63v-70.32c0-14.38 6.864-23.71 23.31-23.71 15.9 0 22.07 9.322 22.07 23.71v70.32z" fill="#fff"/></g></g></g></svg>
