<svg width="1512" height="1512" viewBox="0 0 1512 1512" fill="none" xmlns="http://www.w3.org/2000/svg">
<path d="M0.88916 1512H1511.18V0.378052H0.88916V1512Z" fill="#40A7B9"/>
<path d="M1080.13 564.504L1303.27 1290.06C1303.27 1290.06 1156.64 1289.09 1074.4 1289.61C564.126 1292.84 218.612 1291.73 216.613 1286.56C174.823 1175.08 261.495 1015.69 378.839 933.845C460.632 876.832 485.119 907.851 572.524 838.988C596.144 820.393 661.155 768.126 708.356 677.962C742.454 612.831 755.464 568.936 755.464 568.936L1080.13 564.504Z" stroke="white" stroke-width="33.325" stroke-miterlimit="10"/>
<path d="M949.23 996.529C956.566 1050.22 918.984 1099.69 865.304 1107.03C811.611 1114.37 762.143 1076.79 754.798 1023.1C747.453 969.402 785.044 919.935 838.724 912.59C892.417 905.253 941.885 942.836 949.23 996.516" fill="white"/>
<path d="M788.336 660.48H1036.27" stroke="white" stroke-width="13.33" stroke-miterlimit="10"/>
<path d="M748.613 738.993H1058.27" stroke="white" stroke-width="13.33" stroke-miterlimit="10"/>
<path d="M694.626 817.374H1075.6" stroke="white" stroke-width="13.33" stroke-miterlimit="10"/>
<path d="M620.645 895.887H1098.26" stroke="white" stroke-width="13.33" stroke-miterlimit="10"/>
<path d="M440.69 974.401H1120.79" stroke="white" stroke-width="13.33" stroke-miterlimit="10"/>
<path d="M366.708 1052.78H1154.78" stroke="white" stroke-width="13.33" stroke-miterlimit="10"/>
<path d="M314.722 1131.3H1182.1" stroke="white" stroke-width="13.33" stroke-miterlimit="10"/>
<path d="M294.727 1209.68H1204.77" stroke="white" stroke-width="13.33" stroke-miterlimit="10"/>
<path d="M1053.74 660.48C1053.74 669.313 1046.58 676.476 1037.74 676.476C1028.91 676.476 1021.74 669.315 1021.74 660.48C1021.74 651.644 1028.91 644.484 1037.74 644.484C1046.57 644.484 1053.74 651.646 1053.74 660.48Z" fill="white"/>
<path d="M806.199 660.48C806.199 669.313 799.038 676.476 790.203 676.476C781.367 676.476 774.207 669.315 774.207 660.48C774.207 651.644 781.367 644.484 790.203 644.484C799.038 644.484 806.199 651.646 806.199 660.48Z" fill="white"/>
<path d="M1078.66 739.127C1078.66 747.96 1071.5 755.123 1062.67 755.123C1053.83 755.123 1046.67 747.962 1046.67 739.127C1046.67 730.291 1053.83 723.131 1062.67 723.131C1071.5 723.131 1078.66 730.293 1078.66 739.127Z" fill="white"/>
<path d="M768.075 740.46C768.075 749.293 760.913 756.456 752.079 756.456C743.245 756.456 736.083 749.295 736.083 740.46C736.083 731.625 743.244 724.464 752.079 724.464C760.914 724.464 768.075 731.626 768.075 740.46Z" fill="white"/>
<path d="M1103.06 817.774C1103.06 826.607 1095.9 833.77 1087.06 833.77C1078.23 833.77 1071.07 826.607 1071.07 817.774C1071.07 808.94 1078.23 801.778 1087.06 801.778C1095.9 801.778 1103.06 808.938 1103.06 817.774Z" fill="white"/>
<path d="M713.822 817.774C713.822 826.607 706.661 833.77 697.826 833.77C688.99 833.77 681.83 826.607 681.83 817.774C681.83 808.94 688.992 801.778 697.826 801.778C706.659 801.778 713.822 808.938 713.822 817.774Z" fill="white"/>
<path d="M1126.65 896.021C1126.65 904.854 1119.49 912.017 1110.66 912.017C1101.82 912.017 1094.66 904.856 1094.66 896.021C1094.66 887.186 1101.82 880.025 1110.66 880.025C1119.49 880.025 1126.65 887.186 1126.65 896.021Z" fill="white"/>
<path d="M641.44 896.021C641.44 904.854 634.278 912.017 625.444 912.017C616.61 912.017 609.448 904.856 609.448 896.021C609.448 887.186 616.609 880.025 625.444 880.025C634.279 880.025 641.44 887.186 641.44 896.021Z" fill="white"/>
<path d="M1149.31 972.402C1149.31 981.235 1142.15 988.398 1133.32 988.398C1124.48 988.398 1117.32 981.235 1117.32 972.402C1117.32 963.568 1124.48 956.406 1133.32 956.406C1142.15 956.406 1149.31 963.567 1149.31 972.402Z" fill="white"/>
<path d="M461.485 972.402C461.485 981.235 454.322 988.398 445.489 988.398C436.655 988.398 429.493 981.235 429.493 972.402C429.493 963.568 436.654 956.406 445.489 956.406C454.324 956.406 461.485 963.567 461.485 972.402Z" fill="white"/>
<path d="M1173.71 1052.38C1173.71 1061.22 1166.55 1068.38 1157.71 1068.38C1148.88 1068.38 1141.71 1061.22 1141.71 1052.38C1141.71 1043.55 1148.88 1036.39 1157.71 1036.39C1166.54 1036.39 1173.71 1043.55 1173.71 1052.38Z" fill="white"/>
<path d="M383.238 1052.38C383.238 1061.22 376.077 1068.38 367.242 1068.38C358.406 1068.38 351.246 1061.22 351.246 1052.38C351.246 1043.55 358.408 1036.39 367.242 1036.39C376.075 1036.39 383.238 1043.55 383.238 1052.38Z" fill="white"/>
<path d="M1198.63 1131.56C1198.63 1140.4 1191.47 1147.56 1182.64 1147.56C1173.8 1147.56 1166.64 1140.4 1166.64 1131.56C1166.64 1122.73 1173.8 1115.57 1182.64 1115.57C1191.47 1115.57 1198.63 1122.73 1198.63 1131.56Z" fill="white"/>
<path d="M332.984 1131.56C332.984 1140.4 325.823 1147.56 316.988 1147.56C308.153 1147.56 300.992 1140.4 300.992 1131.56C300.992 1122.73 308.153 1115.57 316.988 1115.57C325.823 1115.57 332.984 1122.73 332.984 1131.56Z" fill="white"/>
<path d="M1223.96 1208.88C1223.96 1217.71 1216.8 1224.87 1207.96 1224.87C1199.13 1224.87 1191.97 1217.71 1191.97 1208.88C1191.97 1200.04 1199.13 1192.88 1207.96 1192.88C1216.8 1192.88 1223.96 1200.04 1223.96 1208.88Z" fill="white"/>
<path d="M312.189 1208.88C312.189 1217.71 305.027 1224.87 296.193 1224.87C287.359 1224.87 280.197 1217.71 280.197 1208.88C280.197 1200.04 287.358 1192.88 296.193 1192.88C305.028 1192.88 312.189 1200.04 312.189 1208.88Z" fill="white"/>
<path d="M350.446 360.155C350.446 378.603 343.706 391.614 325.279 391.614C307.296 391.614 300.552 378.597 300.552 360.155V310.714C300.552 292.305 307.291 279.268 325.279 279.268C343.701 279.268 350.446 292.304 350.446 310.714V360.155ZM302.351 191.663C302.351 173.215 308.664 162.431 325.292 162.431C342.354 162.431 348.673 173.212 348.673 191.663V212.325C348.673 230.734 342.36 241.558 325.292 241.558C308.669 241.558 302.351 230.74 302.351 212.325V191.663ZM401.686 354.823V321.551C401.686 292.358 391.377 271.217 367.535 260.42C387.743 250.554 397.181 232.587 397.181 207.406V194.804C397.181 147.149 372.467 121.556 325.265 121.556C278.517 121.556 254.23 147.163 254.23 194.804V207.406C254.23 232.133 263.24 250.555 282.983 260.42C259.175 271.22 249.271 292.358 249.271 321.551V354.823C249.271 401.118 271.305 433.483 325.265 433.483C379.652 433.483 401.673 401.118 401.673 354.823" fill="white"/>
<path d="M231.542 125.68V430.404H180.302V197.129H179.841L143.903 234.439H143.454V180.946L190.642 125.693L231.542 125.68Z" fill="white"/>
<path d="M522.408 248.672C513.389 248.672 506.296 246.899 501.128 243.352C496.061 239.805 492.515 234.992 490.488 228.912C488.461 222.731 487.448 215.637 487.448 207.632V163.704C487.448 155.293 488.461 147.997 490.488 141.816C492.515 135.635 496.061 130.872 501.128 127.528C506.296 124.184 513.389 122.512 522.408 122.512C530.92 122.512 537.557 123.981 542.32 126.92C547.184 129.757 550.629 133.861 552.656 139.232C554.683 144.603 555.696 150.835 555.696 157.928V168.264H534.112V157.624C534.112 154.179 533.909 151.037 533.504 148.2C533.2 145.363 532.237 143.133 530.616 141.512C529.096 139.789 526.411 138.928 522.56 138.928C518.709 138.928 515.872 139.84 514.048 141.664C512.325 143.387 511.211 145.768 510.704 148.808C510.197 151.747 509.944 155.091 509.944 158.84V212.344C509.944 216.803 510.299 220.501 511.008 223.44C511.717 226.277 512.984 228.456 514.808 229.976C516.733 231.395 519.317 232.104 522.56 232.104C526.309 232.104 528.944 231.243 530.464 229.52C532.085 227.696 533.099 225.315 533.504 222.376C533.909 219.437 534.112 216.144 534.112 212.496V201.4H555.696V211.28C555.696 218.576 554.733 225.061 552.808 230.736C550.883 236.309 547.488 240.717 542.624 243.96C537.861 247.101 531.123 248.672 522.408 248.672ZM597.502 248.672C588.382 248.672 581.289 247 576.222 243.656C571.155 240.312 567.659 235.549 565.734 229.368C563.809 223.187 562.846 215.789 562.846 207.176V123.88H584.734V209.76C584.734 213.611 584.987 217.259 585.494 220.704C586.001 224.048 587.166 226.784 588.99 228.912C590.915 230.939 593.753 231.952 597.502 231.952C601.454 231.952 604.291 230.939 606.014 228.912C607.838 226.784 609.003 224.048 609.51 220.704C610.118 217.259 610.422 213.611 610.422 209.76V123.88H632.158V207.176C632.158 215.789 631.195 223.187 629.27 229.368C627.345 235.549 623.849 240.312 618.782 243.656C613.817 247 606.723 248.672 597.502 248.672ZM642.252 247V123.88H664.748V231.496H694.54V247H642.252ZM704.854 247V140.448H685.246V123.88H746.654V140.448H727.35V247H704.854ZM783.999 248.672C774.879 248.672 767.785 247 762.719 243.656C757.652 240.312 754.156 235.549 752.231 229.368C750.305 223.187 749.343 215.789 749.343 207.176V123.88H771.231V209.76C771.231 213.611 771.484 217.259 771.991 220.704C772.497 224.048 773.663 226.784 775.487 228.912C777.412 230.939 780.249 231.952 783.999 231.952C787.951 231.952 790.788 230.939 792.511 228.912C794.335 226.784 795.5 224.048 796.007 220.704C796.615 217.259 796.919 213.611 796.919 209.76V123.88H818.655V207.176C818.655 215.789 817.692 223.187 815.767 229.368C813.841 235.549 810.345 240.312 805.279 243.656C800.313 247 793.22 248.672 783.999 248.672ZM828.749 247V123.88H858.237C866.546 123.88 873.538 124.893 879.213 126.92C884.989 128.845 889.346 132.189 892.285 136.952C895.325 141.715 896.845 148.2 896.845 156.408C896.845 161.373 896.389 165.832 895.477 169.784C894.565 173.736 892.994 177.131 890.765 179.968C888.637 182.704 885.647 184.832 881.797 186.352L898.973 247H876.477L861.581 190.608H851.245V247H828.749ZM851.245 176.472H858.237C862.594 176.472 866.039 175.864 868.573 174.648C871.207 173.331 873.082 171.304 874.197 168.568C875.311 165.731 875.869 162.133 875.869 157.776C875.869 151.595 874.703 146.984 872.373 143.944C870.143 140.803 865.837 139.232 859.453 139.232H851.245V176.472ZM906.352 247V123.88H958.032V139.688H928.848V175.104H951.8V190.76H928.848V231.496H958.336V247H906.352Z" fill="white"/>
</svg>
