<?xml version="1.0" encoding="UTF-8"?>
<svg width="1512" height="1512" version="1.1" viewBox="0 0 1512 1512" xml:space="preserve" xmlns="http://www.w3.org/2000/svg"><defs><clipPath id="clipPath20"><path d="m0 1134h1134v-1134h-1134z"/></clipPath></defs><g transform="matrix(1.333 0 0 -1.333 0 1512)"><path d="m4e-3 0.028h1134v1134h-1134z" fill="#d58e2d"/><g clip-path="url(#clipPath20)"><g transform="translate(211.5 841.2)"><path d="m0 0h-62.36v10.68c0 17.66 6.351 24.33 16.02 34.66l24.32 25.68c19.67 21 24.02 34.34 24.02 57.02v22.02c0 32.33-15.68 47.66-49.69 47.66-33.34 0-50.35-17.66-50.35-49.34v-27.34h34.68v28.36c0 13.65 6.67 17.66 14.68 17.66 7.327 0 13.66-3.015 13.66-17v-18.68c0-18.68-1.668-26.01-14-39.01l-21.36-22.69c-20.65-22-28.34-36.68-28.34-59v-41.68h98.72z" fill="#fff"/></g><g transform="translate(452.3 170.4)"><path d="m0 0v-15.92l-0.053-0.373 0.053-0.371c0.168-3.956 3.388-7.087 7.362-7.176l0.142-9e-3 0.186 9e-3h187l0.159-9e-3 0.17 9e-3c4.08 0.089 7.343 3.414 7.37 7.494l0.035 0.053-0.035 0.045v18.05c105.3 34.52 184.2 119.8 201.5 223.8l0.107 0.602 0.106 1.056c0 4.195-3.37 7.565-7.565 7.565h-596.1c-4.204 0-7.574-3.37-7.574-7.565l0.39-3.379c18.22-105 99.26-190.8 206.7-223.9" fill="#fff"/></g><g transform="translate(654.5 659.6)"><path d="m0 0c-2.465-3.499-60.05-86.39 1.287-153.4 28.12-30.78 25.68-57.92 17.65-76.26h39.35c7.965 27.08 4.675 61.03-27.27 95.93-45.19 49.38 0.578 116.2 1.269 117.2 5.393 7.618 2.502 17.43-6.387 22.02-8.922 4.546-20.49 2.111-25.91-5.45" fill="#fff"/></g><g transform="translate(554.9 430)"><path d="m0 0h39.37c7.929 27.08 4.63 61.02-27.3 95.93-45.22 49.42 0.524 116.2 1.26 117.2 5.347 7.579 2.519 17.39-6.413 21.98-8.888 4.533-20.47 2.124-25.87-5.45-2.467-3.468-60.1-86.41 1.276-153.5 28.14-30.76 25.69-57.92 17.68-76.24" fill="#fff"/></g><g transform="translate(417.3 659.6)"><path d="m0 0c-2.501-3.499-60.08-86.39 1.26-153.4 28.14-30.79 25.71-57.93 17.7-76.26h39.35c7.956 27.06 4.656 61.02-27.31 95.93-45.21 49.38 0.567 116.2 1.286 117.2 5.339 7.592 2.484 17.4-6.431 21.99-8.878 4.572-20.46 2.124-25.86-5.45" fill="#fff"/></g><g transform="translate(358 946.1)"><path d="m0 0h16.44l-18.51 51.13 18.1 41.79h-15.35l-17-40.84v40.84h-15.63v-92.92h15.63v45.23zm37.38 0 2.749 16.99h16.59l2.873-16.99h16.05l-17.69 92.92h-17.82l-17.54-92.92zm10.97 66.76h0.133l6.173-37.29h-12.47z" fill="#fff"/></g><g transform="translate(463 958)"><path d="m0 0c-5.481 0-7.947 3.978-7.947 9.605v49.89c0 5.609 2.466 9.587 7.947 9.587 5.615 0 8.089-3.978 8.089-9.587v-49.89c0-5.627-2.474-9.605-8.089-9.605m0-13.01c16.59 0 23.72 10.68 23.72 25.08v44.96c0 14.53-7.132 25.09-23.72 25.09-16.44 0-23.58-10.56-23.58-25.09v-44.96c0-14.39 7.132-25.08 23.58-25.08m31.22 81.28h12.88v-80.19h15.77v80.19h12.88v12.74h-41.53z" fill="#fff"/></g><g transform="translate(550.6 946.1)"><path d="m0 0 2.741 16.99h16.59l2.873-16.99h16.04l-17.67 92.92h-17.83l-17.54-92.92zm10.97 66.76h0.132l6.165-37.29h-12.47zm50.54-54v67.44h6.582c6.44 0 8.914-3.845 8.914-9.326v-48.66c0-5.623-2.474-9.454-8.914-9.454zm8.498 80.17h-24.12v-92.92h24.12c16.73 0 22.63 10.7 22.63 24.95v43.03c0 14.39-5.898 24.94-22.63 24.94" fill="#fff"/></g><g transform="translate(663.9 946.1)"><path d="m0 0 2.74 16.99h16.59l2.883-16.99h16.04l-17.69 92.92h-17.82l-17.54-92.92zm10.96 66.76h0.141l6.165-37.29h-12.47z" fill="#fff"/></g><g transform="translate(357.4 810)"><path d="m0 0h13.71v92.92h-13.03v-53.32l-16.85 53.32h-15.36v-92.92h13.16v58.39zm36.16 0 2.74 16.99h16.59l2.882-16.99h16.04l-17.69 92.92h-17.82l-17.54-92.92zm10.96 66.76h0.142l6.164-37.29h-12.47zm-14.25 29.46h13.3v11.79h-13.3zm16.6 0h13.29v11.79h-13.29zm32.59-96.22h34.27v12.75h-18.64v80.17h-15.63zm68.51 92.92v-73.47c0-4.793-1.642-7.534-5.89-7.534-4.115 0-5.765 2.741-5.765 7.406v18.78h-14.8v-18.5c0-11.79 4.382-20.7 20.56-20.7 15.63 0 21.52 8.771 21.52 22.21v71.82zm37.94-92.92 2.741 16.99h16.59l2.883-16.99h16.04l-17.68 92.92h-17.82l-17.54-92.92zm10.96 66.76h0.143l6.164-37.29h-12.47zm65.63-66.76h15.77v92.92h-15.77v-39.33h-15.07v39.33h-15.63v-92.92h15.63v40.98h15.07zm38.22 0 2.742 16.99h16.59l2.874-16.99h16.04l-17.69 92.92h-17.82l-17.55-92.92zm10.96 66.76h0.142l6.165-37.29h-12.48zm-14.24 29.46h13.29v11.79h-13.29zm16.58 0h13.3v11.79h-13.3zm48.22-83.47v67.42h6.582c6.448 0 8.914-3.832 8.914-9.313v-48.66c0-5.623-2.466-9.454-8.914-9.454zm8.507 80.17h-24.13v-92.92h24.13c16.72 0 22.62 10.68 22.62 24.95v43.03c0 14.39-5.898 24.94-22.62 24.94" fill="#fff"/></g><g transform="translate(772.1 810)"><path d="m0 0 2.732 16.99h16.59l2.873-16.99h16.04l-17.67 92.92h-17.83l-17.54-92.92zm10.96 66.76h0.124l6.173-37.29h-12.47z" fill="#fff"/></g></g></g></svg>
