<?xml version="1.0" encoding="UTF-8"?>
<svg width="1512" height="1512" version="1.1" viewBox="0 0 1512 1512" xml:space="preserve" xmlns="http://www.w3.org/2000/svg"><defs><clipPath id="clipPath24"><path d="m0 1134h1134v-1134h-1134z"/></clipPath></defs><g transform="matrix(1.333 0 0 -1.333 0 1512)"><path d="m0 0.872h1133v1133h-1133z" fill="#2f5a98"/><g transform="translate(87.17 997.4)"><path d="m0 0v-40.11h0.346l26.95 27.96h0.346v-174.8h38.4v228.4h-30.65z" fill="#fff"/></g><g clip-path="url(#clipPath24)"><g transform="translate(249.6 861.9)"><path d="m0 0c0-14.48-5.384-22.91-18.52-22.91-12.8 0-17.85 8.745-17.85 22.91v41.76c0.657 12.81 6.05 20.91 18.19 20.91 13.12 0 18.17-8.106 18.17-22.93zm38.09 3.353v33.7c0 37.39-14.84 56.28-42.46 56.28-16.2 0-25.94-7.414-31.66-18.54h-0.338v49.2c0 13.83 4.364 23.59 18.19 23.59 13.8 0 17.85-8.088 17.85-22.23v-15.18h35.04v12.14c0 33.68-11.11 57.27-53.56 57.27-40.45 0-55.6-25.94-55.6-61.66v-111.2c0-35.39 15.5-60.98 55.94-60.98 40.76 0 56.61 22.23 56.61 57.59" fill="#fff"/></g><g transform="translate(793 747.5)"><path d="m0 0s-13.06-17.34-9.269-34.23c3.814-16.9 23.1-26.96 23.1-26.96s13.06 17.34 9.251 34.24c-3.805 16.9-23.08 26.94-23.08 26.94" fill="#fff"/></g><g transform="translate(771.7 648.5)"><path d="m0 0s13.06 17.36 9.25 34.26c-3.813 16.9-23.08 26.93-23.08 26.93s-13.07-17.34-9.27-34.24c3.815-16.89 23.1-26.94 23.1-26.94" fill="#fff"/></g><g transform="translate(825.4 667.1)"><path d="m0 0s13.78-13.9 29.49-12.5c15.7 1.393 27.34 17.54 27.34 17.54s-13.77 13.92-29.48 12.53c-15.7-1.419-27.35-17.58-27.35-17.58" fill="#fff"/></g><g transform="translate(848 741.4)"><path d="m0 0c-12.77-12.97-10.98-35.9-10.98-35.9s22.54-1.952 35.34 11c12.76 12.96 10.95 35.89 10.95 35.89s-22.53 1.951-35.32-10.99" fill="#fff"/></g><g transform="translate(819.8 615.5)"><path d="m0 0c15.66-1.854 30.37 11.57 30.37 11.57s-10.65 16.44-26.31 18.29c-15.66 1.845-30.37-11.6-30.37-11.6s10.65-16.41 26.31-18.26" fill="#fff"/></g><g transform="translate(833.8 343.7)"><path d="m0 0h-117c-9.155 0-16.57-7.388-16.57-16.52s7.415-16.57 16.57-16.57h117c9.136 0 16.55 7.433 16.55 16.57s-7.415 16.52-16.55 16.52" fill="#fff"/></g><g transform="translate(833.8 161.3)"><path d="m0 0h-117c-9.155 0-16.57-7.387-16.57-16.56 0-9.117 7.415-16.55 16.57-16.55h117c9.136 0 16.55 7.431 16.55 16.55 0 9.172-7.415 16.56-16.55 16.56" fill="#fff"/></g><g transform="translate(307.7 383.9)"><path d="m0 0c-2.75 0.842-5.473 1.604-8.125 2.084 0 0 3.007-0.923 8.125-2.084" fill="#fff"/></g><g transform="translate(497.3 312.3)"><path d="m0 0c7.69-0.133 15.44 0.098 23.19 0.621v-61.1l-23.19 0.524zm332.2-13.22h-108.4c-5.188 0-9.419-4.22-9.419-9.41v-32.83l-70.76-7.761-103.4 2.36v63.14c13.73 1.748 27.47 4.488 41.12 8.337 99.51 28.08 121.2 110.3 119 167.2-2.173 57.98 16.38 80.47 43.05 90.49 7.619 2.856 15.17 4.674 22.08 5.854 0.303-14.25 3.203-30.78 9.563-50.51 2.367 0.133 4.701 0.345 7.051 0.594-6.733 20.17-9.588 36.77-9.748 50.91 13.76 1.632 23.59 0.71 23.59 0.71s-9.312 4.984-22.46 15.99c4.47 27.45 20.83 44.3 37.69 61.53 9.252 9.491 18.82 19.3 26.36 30.97l-5.871 3.787c-7.141-11.1-16.5-20.64-25.51-29.86-16.44-16.82-33.02-34-38.63-61.24-5.348 4.825-11.12 10.52-17.06 17.15-24.53 27.51-56.12 7.299-101.2-34.64-45.08-41.9-101.7-43.35-157.1 13.28-73.02 74.74-136.7 74.33-180.4 70.08 29.87-12.72 40.33-40.64 55.45-111.6 15.84-74.43 55.81-108.1 110.5-112.8-30.42-10.74-31.94-27.91-72.68-56.04-31.83-21.96-76.6-15.02-94.75-10.9 33.31-10.38 72.78-45.32 108.1-57.5 20.55-7.07 42.22-11.46 64.43-13.21v-60.44l-185.2 4.223v-42.17l345.8 7.93 70.76-7.778v-32.81c0-5.188 4.231-9.428 9.419-9.428h108.4c5.206 0 9.445 4.24 9.445 9.428v107.5c0 5.19-4.239 9.41-9.445 9.41" fill="#fff"/></g><g transform="translate(284.9 221.7)"><path d="m0 0c0-8.887-6.2-16.1-13.85-16.1h-8.328c-7.637 0-13.86 7.211-13.86 16.1v29.14c0 8.904 6.227 16.1 13.86 16.1h8.328c7.646 0 13.85-7.201 13.85-16.1z" fill="#fff"/></g><g transform="translate(383.4 971.3)"><path d="m0 0h12l-10.89 30.78c6.493 1.507 9.101 5.8 9.101 13.1v8.692c0 9.499-4.205 15.19-15.7 15.19h-16.59v-67.77h11.39v31.1zm-6.892 58.47c3.903 0 5.597-1.791 5.597-5.49v-9.995c0-3.601-1.694-5.597-5.597-5.597h-3.796v21.08zm34.48-58.47 1.978 12.4h12.1l2.094-12.4h11.71l-12.9 67.77h-13l-12.79-67.77zm7.983 48.68h0.107l4.496-27.19h-9.091z" fill="#fff"/></g><g transform="translate(467 971.3)"><path d="m0 0h11.49v67.77h-11.49v-28.69h-11.01v28.69h-11.39v-67.77h11.39v29.89h11.01zm40.96 67.77v-52.37c0-4-1.588-6.696-5.597-6.696-4 0-5.588 2.696-5.588 6.696v52.37h-11.4v-51.27c0-10.49 4.994-17.3 16.98-17.3 11.59 0 16.11 6.811 16.11 17.3v51.27zm48.77-67.77h10.4v67.77h-14.4l-6.608-38.17h-0.088l-7.398 38.17h-13.3v-67.77h9.393v43.97h0.196l8.497-43.97h5.304l7.699 43.97h0.301zm17.27 0h27.19v9.295h-15.8v20.59h11.3v9.188h-11.3v19.4h15.8v9.295h-27.19zm33.67 0h27.19v9.295h-15.8v20.59h11.3v9.188h-11.3v19.4h15.8v9.295h-27.19zm33.67 0h25v9.295h-13.61v58.47h-11.4zm46.08-0.807c11.6 0 16.59 6.607 16.59 15.9v3.291c0 7.503-2.99 11.31-9.181 17.6l-7.309 7.201c-3.298 3.184-5.401 5.393-5.401 9.189v1.401c0 3.787 2.218 5.597 5.401 5.597 3.602 0 5.412-1.907 5.412-5.801v-5.898h10.38v5.49c0 9.809-4.489 15.41-15.89 15.41-11.1 0-16-6.501-16-14.89v-2.306c0-7.796 2.998-11.7 9.499-18.1l6.706-6.688c3.494-3.308 5.1-5.693 5.1-9.596v-2.598c0-3.602-1.606-6.005-5.208-6.005-3.884 0-5.587 2.2-5.587 6.005v9.294h-10.6v-9.09c0-8.905 4.487-15.41 16.09-15.41m22.98 0.807h27.18v9.295h-15.78v20.59h11.29v9.188h-11.29v19.4h15.78v9.295h-27.18zm45.08 9.295v49.18h4.79c4.692 0 6.501-2.794 6.501-6.803v-35.48c0-4.098-1.809-6.891-6.501-6.891zm6.191 58.47h-17.59v-67.77h17.59c12.2 0 16.5 7.796 16.5 18.2v31.37c0 10.51-4.302 18.2-16.5 18.2m53.16 0v-53.58c0-3.494-1.215-5.489-4.302-5.489-2.998 0-4.195 1.995-4.195 5.392v13.69h-10.8v-13.49c0-8.603 3.193-15.1 15-15.1 11.4 0 15.7 6.403 15.7 16.2v52.37zm27.18-67.77 1.996 12.4h12.1l2.094-12.4h11.69l-12.88 67.77h-13l-12.79-67.77zm7.982 48.68h0.108l4.505-27.19h-9.101z" fill="#fff"/></g><g transform="translate(384.6 867.4)"><path d="m0 0h11.98l-13.48 37.29 13.2 30.48h-11.19l-12.4-29.78v29.78h-11.39v-67.78h11.39v32.99zm27.48 0 1.996 12.41h12.1l2.094-12.41h11.69l-12.88 67.78h-13l-12.8-67.78zm8.001 48.67h0.088l4.497-27.18h-9.091z" fill="#fff"/></g><g transform="translate(455.7 867.4)"><path d="m0 0 2.014 12.41h12.09l2.102-12.41h11.69l-12.89 67.78h-12.99l-12.8-67.78zm8 48.67h0.098l4.506-27.18h-9.109zm40.46-49.47c11.6 0 16.6 6.598 16.6 15.9v3.291c0 7.503-3.007 11.29-9.198 17.59l-7.3 7.202c-3.29 3.201-5.392 5.401-5.392 9.188v1.401c0 3.805 2.199 5.597 5.392 5.597 3.601 0 5.411-1.889 5.411-5.783v-5.907h10.39v5.499c0 9.792-4.506 15.39-15.9 15.39-11.09 0-15.98-6.483-15.98-14.89v-2.288c0-7.796 2.989-11.71 9.49-18.1l6.706-6.687c3.494-3.308 5.1-5.695 5.1-9.606v-2.59c0-3.6-1.606-6.004-5.207-6.004-3.893 0-5.596 2.2-5.596 6.004v9.295h-10.59v-9.108c0-8.887 4.488-15.39 16.08-15.39" fill="#fff"/></g><g transform="translate(536 867.4)"><path d="m0 0 1.996 12.41h12.09l2.111-12.41h11.7l-12.92 67.78h-12.98l-12.79-67.78zm7.991 48.67h0.098l4.506-27.18h-9.092zm46.46 19.1-8-47.28h-0.089l-7.801 47.28h-11.6l12.92-67.78h12.38l12.9 67.78z" fill="#fff"/></g><g transform="translate(610.9 867.4)"><path d="m0 0 2.005 12.41h12.1l2.101-12.41h11.68l-12.9 67.78h-12.98l-12.79-67.78zm8 48.67h0.098l4.488-27.18h-9.092zm37.08-39.37v49.18h4.789c4.693 0 6.502-2.803 6.502-6.803v-35.48c0-4.097-1.809-6.891-6.502-6.891zm6.191 58.47h-17.59v-67.78h17.59c12.2 0 16.5 7.796 16.5 18.19v31.39c0 10.49-4.301 18.2-16.5 18.2" fill="#fff"/></g><path d="m361.3 763.5h11.39v67.76h-11.39zm41.48 0h9.996v67.76h-9.5v-38.87l-12.3 38.87h-11.18v-67.76h9.597v42.58zm32.47-0.798c11.6 0 16.59 6.599 16.59 15.88v3.308c0 7.486-3.007 11.29-9.18 17.59l-7.318 7.193c-3.3 3.193-5.393 5.393-5.393 9.197v1.402c0 3.805 2.2 5.596 5.393 5.596 3.61 0 5.402-1.898 5.402-5.8v-5.889h10.4v5.49c0 9.8-4.488 15.4-15.89 15.4-11.1 0-16-6.501-16-14.9v-2.297c0-7.796 2.998-11.69 9.5-18.08l6.705-6.705c3.495-3.29 5.101-5.694 5.101-9.588v-2.607c0-3.601-1.606-5.986-5.216-5.986-3.894 0-5.597 2.199-5.597 5.986v9.295h-10.58v-9.091c0-8.887 4.489-15.39 16.09-15.39m21.78 59.26h9.393v-58.47h11.5v58.47h9.384v9.294h-30.28zm36.08-58.47h11.39v67.76h-11.39zm17.18 58.47h9.393v-58.47h11.49v58.47h9.419v9.294h-30.3zm58.66 9.294v-52.37c0-3.991-1.588-6.705-5.597-6.705-3.991 0-5.597 2.714-5.597 6.705v52.37h-11.4v-51.28c0-10.49 5.011-17.28 16.99-17.28 11.6 0 16.1 6.785 16.1 17.28v51.28zm16.18-9.294h9.402v-58.47h11.49v58.47h9.411v9.294h-30.3zm51.58-59.26c11.58 0 16.59 6.599 16.59 15.88v3.308c0 7.486-3.005 11.29-9.197 17.59l-7.3 7.193c-3.299 3.193-5.392 5.393-5.392 9.197v1.402c0 3.805 2.199 5.596 5.392 5.596 3.611 0 5.402-1.898 5.402-5.8v-5.889h10.4v5.49c0 9.8-4.488 15.4-15.89 15.4-11.1 0-16-6.501-16-14.9v-2.297c0-7.796 2.999-11.69 9.5-18.08l6.706-6.705c3.495-3.29 5.083-5.694 5.083-9.588v-2.607c0-3.601-1.588-5.986-5.199-5.986-3.893 0-5.596 2.199-5.596 5.986v9.295h-10.6v-9.091c0-8.887 4.506-15.39 16.11-15.39m23.07 0.798h11.4v67.76h-11.4zm35.68 8.683c-4.001 0-5.792 2.9-5.792 7.016v36.37c0 4.106 1.791 7.006 5.792 7.006 4.08 0 5.89-2.9 5.89-7.006v-36.37c0-4.116-1.81-7.016-5.89-7.016m0-9.481c12.1 0 17.29 7.796 17.29 18.29v32.79c0 10.59-5.188 18.29-17.29 18.29-12 0-17.19-7.699-17.19-18.29v-32.79c0-10.49 5.188-18.29 17.19-18.29m41.47 9.481c-3.992 0-5.801 2.9-5.801 7.016v36.37c0 4.106 1.809 7.006 5.801 7.006 4.089 0 5.899-2.9 5.899-7.006v-36.37c0-4.116-1.81-7.016-5.899-7.016m0-9.481c12.1 0 17.3 7.796 17.3 18.29v32.79c0 10.59-5.197 18.29-17.3 18.29-11.99 0-17.2-7.699-17.2-18.29v-32.79c0-10.49 5.207-18.29 17.2-18.29m47.28 0.798h9.996v67.76h-9.5v-38.87l-12.3 38.87h-11.19v-67.76h9.606v42.58zm16.98 0h11.4v67.76h-11.4z" fill="#fff"/><g transform="translate(831.7 772.7)"><path d="m0 0v49.17h4.799c4.691 0 6.492-2.802 6.492-6.794v-35.48c0-4.097-1.801-6.9-6.492-6.9zm6.191 58.46h-17.59v-67.76h17.59c12.2 0 16.5 7.796 16.5 18.19v31.39c0 10.49-4.293 18.18-16.5 18.18" fill="#fff"/></g></g></g></svg>
