<?xml version="1.0" encoding="UTF-8"?>
<svg width="1512" height="1512" version="1.1" viewBox="0 0 1512 1512" xml:space="preserve" xmlns="http://www.w3.org/2000/svg"><defs><clipPath id="clipPath24"><path d="m0 1134h1134v-1134h-1134z"/></clipPath></defs><g transform="matrix(1.333 0 0 -1.333 0 1512)"><path d="m0 0.047h1134v1134h-1134z" fill="#af6f23"/><g transform="translate(113.2 984.9)"><path d="m0 0h0.346v-175h38.44v228.6h-30.72l-35.4-41.49v-40.12h0.346z" fill="#fff"/></g><g clip-path="url(#clipPath24)"><g transform="translate(174.9 991.2)"><path d="m0 0v-27.63h35.06v28.66c0 13.81 6.767 17.85 14.84 17.85 7.433 0 13.85-3.015 13.85-17.19v-18.86c0-18.92-1.695-26.32-14.18-39.46l-21.57-22.94c-20.9-22.27-28.68-37.1-28.68-59.7v-42.15h99.84v31.37h-63.08v10.78c0 17.87 6.413 24.62 16.19 35.09l24.63 25.95c19.88 21.25 24.28 34.74 24.28 57.66v22.25c0 32.73-15.84 48.2-50.25 48.2-33.72 0-50.92-17.85-50.92-49.89" fill="#fff"/></g><g transform="translate(877.5 526.5)"><path d="m0 0c-46.24 36.52-101.7 40.45-123.4 40.45-11.45 0-22.03-1.02-29.78-2.865l-3.051-0.701c-29.27-6.922-78.29-18.48-135.4-89.29l-1.676-2.084c-0.949-1.358-1.428-2.785-1.428-4.302l1.002-3.743 1.295-2.129c9.42-15.74 17.24-29.43 23.45-41.06 2.244-4.31 8.204-5.711 12.22-1.711l1.064 1.508c49.29 68.16 87.92 77.25 113.5 83.25l3.158 0.754c3.53 0.834 9.242 1.33 15.67 1.33 11.88 0 53.18-1.969 85.4-27.41 28.68-22.64 43.21-58.78 43.21-107.4 0-81.52-39.45-113.3-72.54-125.7-12.65-4.719-26.24-7.114-40.45-7.114-34.1 0-60.33 13.64-60.68 13.84l-2.367 1.136c-28.46 12.37-70.99 38.13-111.2 118.8-82.38 165.5-151.6 181.1-197.4 191.5l-2.422 0.523c-3.512 0.798-13.42 2.652-29.52 2.652-26.54 0-77.59-5.215-121.4-40.13-29.86-23.82-65.48-70.12-65.48-155.3 0-51.89 10.69-86.16 38.09-122.2 5.171-7.024 52.9-68.69 144.6-68.69 13.6 0 27.66 1.384 41.86 4.116 16.73 3.202 42.56 11.46 71.41 32.64l24.1-21.75c2.688-2.456 7.362-2.208 9.784 0.443 1.179 1.251 1.791 2.927 1.729 4.585l18.64 114.8 9e-3 1.338c-0.027 1.969-0.87 3.832-2.227 5.02-1.224 1.144-2.811 1.757-4.834 1.757h-0.044l-111.8-30.89-2.111-0.346c-1.419-0.293-2.67-1.037-3.557-2.057-1.268-1.402-1.924-3.193-1.827-5.056 0.106-1.862 0.949-3.574 2.289-4.78l23.18-20.96c-12.19-7.459-24.36-12.4-36.19-14.7-10.08-1.925-20.06-2.901-29.67-2.901-63.35 0-94.52 41.57-95.8 43.33l-0.63 0.862c-19.28 25.32-25.79 46.86-25.79 85.42 0 48.82 14.31 84.98 42.48 107.5 31.35 25.02 71.7 26.97 83.33 26.97 6.351 0 12.12-0.497 15.82-1.339l2.484-0.55c36.59-8.293 86.69-19.64 156.1-159.1 36.67-73.65 82.68-121.8 140.5-147.2 6.732-3.424 42.6-20.53 88.56-20.53 21.46 0 42.24 3.689 61.78 10.96 33.77 12.6 112.3 55.66 112.3 183 0 85.11-36.13 131.5-66.45 155.4" fill="#fff"/></g><g transform="translate(363.1 945)"><path d="m0 0c15.9 0 22.75 9.051 22.75 21.8v4.519c0 10.29-4.106 15.49-12.6 24.13l-10.01 9.862c-4.514 4.386-7.406 7.406-7.406 12.62v1.907c0 5.22 3.016 7.68 7.406 7.68 4.941 0 7.406-2.607 7.406-7.955v-8.071h14.25v7.53c0 13.44-6.164 21.1-21.79 21.1-15.21 0-21.92-8.904-21.92-20.42v-3.148c0-10.7 4.106-16.04 13.01-24.82l9.18-9.18c4.808-4.532 6.989-7.813 6.989-13.16v-3.574c0-4.922-2.181-8.217-7.122-8.217-5.348 0-7.681 3.015-7.681 8.217v12.75h-14.53v-12.48c0-12.2 6.164-21.12 22.08-21.12m42.04 1.108 2.758 16.99h16.59l2.865-16.99h16.04l-17.69 92.93h-17.81l-17.54-92.93zm10.98 66.75h0.124l6.183-37.29h-12.47zm-14.25 29.47h13.29v11.79h-13.29zm16.58 0h13.3v11.79h-13.3z" fill="#fff"/></g><g transform="translate(463.3 946.1)"><path d="m0 0 2.741 16.99h16.59l2.864-16.99h16.04l-17.68 92.93h-17.81l-17.54-92.93zm10.96 66.75h0.124l6.182-37.29h-12.47zm-14.25 29.47h13.29v11.79h-13.29zm16.58 0h13.3v11.79h-13.3zm51.78-97.33c15.9 0 22.76 9.05 22.76 21.8v4.518c0 10.29-4.107 15.49-12.61 24.13l-9.995 9.863c-4.542 4.386-7.406 7.405-7.406 12.62v1.906c0 5.22 3.015 7.681 7.406 7.681 4.922 0 7.397-2.607 7.397-7.956v-8.07h14.25v7.529c0 13.44-6.164 21.1-21.8 21.1-15.21 0-21.94-8.904-21.94-20.42v-3.148c0-10.7 4.116-16.04 13.03-24.82l9.18-9.18c4.798-4.532 6.998-7.814 6.998-13.16v-3.575c0-4.922-2.2-8.217-7.122-8.217-5.358 0-7.681 3.016-7.681 8.217v12.75h-14.53v-12.47c0-12.2 6.165-21.12 22.06-21.12m28.35 81.28h12.9v-80.18h15.75v80.18h12.88v12.75h-41.52zm47.95-80.18h37.28v12.75h-21.66v28.23h15.49v12.62h-15.49v26.58h21.66v12.75h-37.28zm80.16 92.93-10.97-64.83h-0.133l-10.7 64.83h-15.9l17.68-92.93h17l17.68 92.93zm32.03-12.75h12.89v-80.18h15.77v80.18h12.88v12.75h-41.54zm71.52-68.26c-5.473 0-7.939 3.978-7.939 9.605v49.88c0 5.623 2.466 9.601 7.939 9.601 5.623 0 8.106-3.978 8.106-9.601v-49.88c0-5.627-2.483-9.605-8.106-9.605m0-13.03c16.6 0 23.72 10.7 23.72 25.1v44.95c0 14.53-7.122 25.08-23.72 25.08-16.44 0-23.57-10.55-23.57-25.08v-44.95c0-14.4 7.131-25.1 23.57-25.1m55.36 13.03c-5.49 0-7.956 3.978-7.956 9.605v49.88c0 5.623 2.466 9.601 7.956 9.601 5.614 0 8.089-3.978 8.089-9.601v-49.88c0-5.627-2.475-9.605-8.089-9.605m0-13.03c16.59 0 23.71 10.7 23.71 25.1v44.95c0 14.53-7.121 25.08-23.71 25.08-16.45 0-23.58-10.55-23.58-25.08v-44.95c0-14.4 7.123-25.1 23.58-25.1m29.98 81.28h12.9v-80.18h15.75v80.18h12.9v12.75h-41.54zm90.99-80.18h14.26v92.93h-19.74l-9.038-52.36h-0.142l-10.15 52.36h-18.23v-92.93h12.88v60.3h0.283l11.66-60.3h7.255l10.55 60.3h0.409zm22.31 0h15.64v92.93h-15.64zm55.36 0h13.71v92.93h-13.03v-53.32l-16.86 53.32h-15.34v-92.93h13.16v58.39zm21.78 0h37.27v12.75h-21.65v28.23h15.49v12.62h-15.49v26.58h21.65v12.75h-37.27z" fill="#fff"/></g><g transform="translate(367.8 903)"><path d="m0 0v-73.47c0-4.798-1.632-7.529-5.881-7.529-4.115 0-5.756 2.731-5.756 7.397v18.77h-14.81v-18.49c0-11.79 4.39-20.7 20.57-20.7 15.62 0 21.52 8.772 21.52 22.21v71.82zm35.21-92.94 2.741 17h16.58l2.891-17h16.03l-17.68 92.94h-17.82l-17.54-92.94zm10.97 66.76h0.132l6.165-37.28h-12.48z" fill="#fff"/></g><g transform="translate(458.9 890.2)"><path d="m0 0h12.88v-80.19h15.77v80.19h12.88v12.75h-41.53zm55.08-80.19 2.74 17h16.59l2.882-17h16.04l-17.68 92.94h-17.83l-17.54-92.94zm10.96 66.76h0.143l6.164-37.28h-12.47z" fill="#fff"/></g><g transform="translate(588.6 810)"><path d="m0 0h16.45l-14.94 42.23c8.904 2.057 12.48 7.946 12.48 17.96v11.92c0 13.02-5.773 20.83-21.52 20.83h-22.76v-92.94h15.64v42.63zm-9.455 80.19c5.35 0 7.682-2.457 7.682-7.53v-13.71c0-4.923-2.332-7.681-7.682-7.681h-5.201v28.92zm31.23-80.19h24.26c15.63 0 21.52 7.272 21.52 20.43v12.34c0 8.497-3.84 13.7-11.65 15.48 6.439 2.066 9.314 6.998 9.314 14.8v9.464c0 13.15-5.207 20.42-20.83 20.42h-22.62zm22.34 41.81c5.473 0 7.806-2.599 7.806-7.539v-13.97c0-4.94-2.457-7.548-7.681-7.548h-6.847v29.06zm-6.722 38.38h5.347c5.207 0 7.539-2.457 7.539-7.53v-11.38c0-4.94-2.332-7.538-7.406-7.538h-5.48zm37.25-80.19h15.64v92.94h-15.64zm67.02 0h14.25v92.94h-19.73l-9.047-52.35h-0.133l-10.15 52.35h-18.23v-92.94h12.88v60.31h0.284l11.64-60.31h7.272l10.56 60.31h0.408zm22.44 0h15.64v92.94h-15.64zm55.5 0h13.7v92.94h-13.01v-53.32l-16.86 53.32h-15.36v-92.94h13.17v58.4z" fill="#fff"/></g><g transform="translate(829.4 810)"><path d="m0 0h37.27v12.75h-21.65v28.24h15.48v12.6h-15.48v26.59h21.65v12.75h-37.27z" fill="#fff"/></g></g></g></svg>
