<?xml version="1.0" encoding="UTF-8"?>
<svg width="1512" height="1512" version="1.1" viewBox="0 0 1512 1512" xml:space="preserve" xmlns="http://www.w3.org/2000/svg"><defs><clipPath id="clipPath28"><path d="m0 1134h1134v-1134h-1134z"/></clipPath></defs><g transform="matrix(1.333 0 0 -1.333 0 1512)"><path d="m0 0.047h1134v1134h-1134z" fill="#f57c2c"/><g transform="translate(81.24 997.3)"><path d="m0 0v-40.1h0.337l26.97 27.99h0.355v-175h38.44v228.6h-30.71z" fill="#fff"/></g><g transform="translate(168.9 997.3)"><path d="m0 0v-40.1h0.337l26.98 27.99h0.328v-175h38.44v228.6h-30.66z" fill="#fff"/></g><g clip-path="url(#clipPath28)"><g transform="translate(195.1 270.7)"><path d="m0 0h170.6c2.297 0 4.177 1.881 4.177 4.195l-1.108 2.768-0.24 0.266-84.85 109.8-0.816 0.923-3.087 1.366-2.758-1.073-0.506-0.603-0.807-0.887-82.79-108.6-1.269-1.552-0.709-2.342c0-2.314 1.88-4.195 4.195-4.195" fill="#fff"/></g><g transform="translate(365.1 255.2)"><path d="m0 0h-170.9c-2.315 0-4.195-1.871-4.195-4.186v-133.7c0-2.315 1.88-4.213 4.195-4.213h55.01v84.16c0 2.316 1.871 4.169 4.169 4.169h51.06c2.324 0 4.186-1.853 4.186-4.169v-84.16h56.47c2.297 0 4.177 1.898 4.177 4.213v133.7c0 2.315-1.88 4.186-4.177 4.186" fill="#fff"/></g><g transform="translate(940.4 235.5)"><path d="m0 0c0-2.208-1.854-4.019-4.143-4.019h-50.52c-2.288 0-4.142 1.811-4.142 4.019v30.74c0 2.208 1.854 4.018 4.142 4.018h50.52c2.289 0 4.143-1.81 4.143-4.018zm0-56.74c0-2.236-1.854-4.036-4.143-4.036h-50.52c-2.288 0-4.142 1.8-4.142 4.036v30.69c0 2.262 1.854 4.054 4.142 4.054h50.52c2.289 0 4.143-1.792 4.143-4.054zm-77.24 56.74c0-2.208-1.836-4.019-4.106-4.019h-50.56c-2.29 0-4.143 1.811-4.143 4.019v30.74c0 2.208 1.853 4.018 4.143 4.018h50.56c2.27 0 4.106-1.81 4.106-4.018zm0-56.74c0-2.236-1.836-4.036-4.106-4.036h-50.56c-2.29 0-4.143 1.8-4.143 4.036v30.69c0 2.262 1.853 4.054 4.143 4.054h50.56c2.27 0 4.106-1.792 4.106-4.054zm92.55 111.5h-169.2c-2.287 0-4.124-1.784-4.124-4.036v-170.8c0-2.218 1.837-4.009 4.124-4.009h169.2c2.297 0 4.151 1.791 4.151 4.009v170.8c0 2.252-1.854 4.036-4.151 4.036" fill="#fff"/></g><g transform="translate(538.4 565.2)"><path d="m0 0-2.2-2.156h-37.89l-2.156 2.156v42.24l2.156 2.191h37.89l2.2-2.191zm0-96.97-2.2-2.156h-37.89l-2.156 2.156v42.24l2.156 2.156h37.89l2.2-2.156zm0-96.99-2.2-2.173h-37.89l-2.156 2.173v42.24l2.156 2.182h37.89l2.2-2.182zm0-96.97-2.2-2.173h-37.89l-2.156 2.173v42.22l2.156 2.182h37.89l2.2-2.182zm0-97.01-2.2-2.155h-37.89l-2.156 2.155v42.24l2.156 2.173h37.89l2.2-2.173zm-74.34 387.9-2.173-2.156h-37.9l-2.174 2.156v42.24l2.174 2.191h37.9l2.173-2.191zm0-96.97-2.173-2.156h-37.9l-2.174 2.156v42.24l2.174 2.156h37.9l2.173-2.156zm0-96.99-2.173-2.173h-37.9l-2.174 2.173v42.24l2.174 2.182h37.9l2.173-2.182zm0-96.97-2.173-2.173h-37.9l-2.174 2.173v42.22l2.174 2.182h37.9l2.173-2.182zm0-97.01-2.173-2.155h-37.9l-2.174 2.155v42.24l2.174 2.173h37.9l2.173-2.173zm98.47 509.3h-165.5c-2.208 0-4.044-1.791-4.044-4.053v-565.6c0-2.234 1.836-4.035 4.044-4.035h165.5c2.209 0 4.08 1.801 4.08 4.035v565.6c0 2.262-1.871 4.053-4.08 4.053" fill="#fff"/></g><g transform="translate(959.7 307.4)"><path d="m0 0c0-1.89-1.535-3.406-3.416-3.406h-170.2c-1.863 0-3.397 1.516-3.397 3.406v34.04c0 1.881 1.534 3.414 3.397 3.414h170.2c1.881 0 3.416-1.533 3.416-3.414z" fill="#fff"/></g><g transform="translate(743.7 407)"><path d="m0 0c0-2.244-1.827-4.045-4.054-4.045h-49.32c-2.27 0-4.079 1.801-4.079 4.045v30.86c0 2.28 1.809 4.071 4.079 4.071h49.32c2.227 0 4.054-1.791 4.054-4.071zm0-57.07c0-2.236-1.827-4.028-4.054-4.028h-49.32c-2.27 0-4.079 1.792-4.079 4.028v30.89c0 2.227 1.809 4.036 4.079 4.036h49.32c2.227 0 4.054-1.809 4.054-4.036zm0-57.06c0-2.217-1.827-4.026-4.054-4.026h-49.32c-2.27 0-4.079 1.809-4.079 4.026v30.91c0 2.226 1.809 4.036 4.079 4.036h49.32c2.227 0 4.054-1.81 4.054-4.036zm0-57.05c0-2.227-1.827-4.036-4.054-4.036h-49.32c-2.27 0-4.079 1.809-4.079 4.036v30.88c0 2.252 1.809 4.036 4.079 4.036h49.32c2.227 0 4.054-1.784 4.054-4.036zm0-57.05c0-2.243-1.827-4.035-4.054-4.035h-49.32c-2.27 0-4.079 1.792-4.079 4.035v30.87c0 2.235 1.809 4.044 4.079 4.044h49.32c2.227 0 4.054-1.809 4.054-4.044zm-75.27 239.1v-68.01c0-2.244-1.844-4.053-4.07-4.053h-49.32c-2.262 0-4.08 1.809-4.08 4.053v8.55l0.319 1.516 0.248 0.471 0.355 0.523 0.461 0.664c6.315 9.021 34.76 44.07 46.72 58.73l1.189 1.435c0.86 1.057 2.172 1.739 3.636 1.739 2.271 0 4.08-1.659 4.532-3.787zm-0.168-125c0-2.217-1.774-4.026-4.036-4.026h-49.32c-2.244 0-4.054 1.809-4.054 4.026v30.91c0 2.226 1.81 4.036 4.054 4.036h49.32c2.262 0 4.036-1.81 4.036-4.036zm0-57.05c0-2.227-1.774-4.036-4.036-4.036h-49.32c-2.244 0-4.054 1.809-4.054 4.036v30.88c0 2.252 1.81 4.036 4.054 4.036h49.32c2.262 0 4.036-1.784 4.036-4.036zm0-57.05c0-2.243-1.774-4.035-4.036-4.035h-49.32c-2.244 0-4.054 1.792-4.054 4.035v30.87c0 2.235 1.81 4.044 4.054 4.044h49.32c2.262 0 4.036-1.809 4.036-4.044zm25.76 289 1.162 1.472c11.13 14.28 29.89 37.37 39.03 48.58l1.197 1.427c0.887 1.047 2.182 1.731 3.645 1.731 2.271 0 4.08-1.642 4.515-3.787v-52.21c0-2.52-1.996-4.532-4.488-4.666l-0.204-0.026-0.204 0.026h-40.66l-0.204-0.026-0.204 0.026c-2.492 0.134-4.506 2.146-4.506 4.666l0.923 2.785m68.49 112.1c-0.559 1.809-2.157 3.166-4.152 3.166l-2.377-0.807-0.31-0.204-1.384-1.765-162.7-206.3-0.744-0.993-1.42-3.22v-253.6c0-2.226 1.827-4.035 4.054-4.035h165.4c2.262 0 4.054 1.809 4.054 4.035v462l-0.389 1.703" fill="#fff"/></g><g transform="translate(335.6 1039)"><path d="m0 0v-73.47c0-4.794-1.641-7.534-5.88-7.534-4.125 0-5.757 2.74-5.757 7.401v18.78h-14.81v-18.5c0-11.79 4.39-20.71 20.57-20.71 15.62 0 21.51 8.776 21.51 22.21v71.83zm35.21-92.93 2.741 16.99h16.59l2.865-16.99h16.04l-17.68 92.93h-17.82l-17.54-92.93zm10.95 66.75h0.151l6.164-37.29h-12.47zm-14.24 29.47h13.29v11.79h-13.29zm16.58 0h13.3v11.79h-13.3z" fill="#fff"/></g><g transform="translate(407.8 1026)"><path d="m0 0h12.9v-80.18h15.75v80.18h12.89v12.75h-41.54zm80.04-80.18h16.45l-18.51 51.12 18.08 41.8h-15.34l-17.01-40.85v40.85h-15.62v-92.93h15.62v45.23zm52.6 92.93v-71.83c0-5.477-2.2-9.179-7.681-9.179-5.482 0-7.681 3.702-7.681 9.179v71.83h-15.62v-70.31c0-14.39 6.847-23.72 23.3-23.72 15.9 0 22.07 9.33 22.07 23.72v70.31zm43.83-94.04c15.9 0 22.75 9.051 22.75 21.8v4.519c0 10.29-4.106 15.49-12.6 24.13l-10.01 9.862c-4.514 4.386-7.405 7.406-7.405 12.62v1.907c0 5.219 3.015 7.68 7.405 7.68 4.941 0 7.406-2.607 7.406-7.955v-8.071h14.24v7.53c0 13.44-6.165 21.1-21.78 21.1-15.21 0-21.93-8.905-21.93-20.42v-3.148c0-10.7 4.116-16.04 13.02-24.82l9.189-9.18c4.799-4.532 6.981-7.813 6.981-13.16v-3.574c0-4.923-2.182-8.218-7.123-8.218-5.348 0-7.68 3.016-7.68 8.218v12.75h-14.53v-12.48c0-12.2 6.182-21.12 22.08-21.12m61.24 94.04v-71.83c0-5.477-2.181-9.179-7.664-9.179-5.499 0-7.68 3.702-7.68 9.179v71.83h-15.62v-70.31c0-14.39 6.846-23.72 23.3-23.72 15.9 0 22.06 9.33 22.06 23.72v70.31zm53.57 0v-71.83c0-5.477-2.192-9.179-7.682-9.179-5.481 0-7.663 3.702-7.663 9.179v71.83h-15.64v-70.31c0-14.39 6.857-23.72 23.3-23.72 15.9 0 22.08 9.33 22.08 23.72v70.31zm20.81-12.75h12.88v-80.18h15.77v80.18h12.88v12.75h-41.53zm48.09-80.18h34.26v12.75h-18.64v80.18h-15.62zm40.68 0h15.62v92.93h-15.62zm55.91 0h16.44l-18.49 51.12 18.09 41.8h-15.34l-17.01-40.85v40.85h-15.62v-92.93h15.62v45.23zm52.6 92.93v-71.83c0-5.477-2.191-9.179-7.664-9.179-5.481 0-7.681 3.702-7.681 9.179v71.83h-15.62v-70.31c0-14.39 6.847-23.72 23.3-23.72 15.9 0 22.06 9.33 22.06 23.72v70.31zm38.23-80.18v67.43h6.572c6.44 0 8.914-3.832 8.914-9.313v-48.67c0-5.609-2.474-9.445-8.914-9.445zm8.488 80.18h-24.12v-92.93h24.12c16.74 0 22.62 10.68 22.62 24.95v43.03c0 14.4-5.879 24.95-22.62 24.95" fill="#fff"/></g><g transform="translate(309.7 810)"><path d="m0 0h34.27v12.75h-18.64v80.19h-15.64zm40.56 0h15.62v92.94h-15.62zm55.36 0h13.71v92.94h-13.02v-53.32l-16.86 53.32h-15.34v-92.94h13.15v58.4zm53.3 0h13.71v92.94h-13.03v-53.32l-16.86 53.32h-15.34v-92.94h13.16v58.4zm34.1 0 2.75 17h16.59l2.874-17h16.04l-17.69 92.94h-17.81l-17.54-92.94zm10.97 66.76h0.133l6.173-37.28h-12.47zm48.5-54v67.43h6.572c6.439 0 8.905-3.832 8.905-9.322v-48.66c0-5.614-2.466-9.455-8.905-9.455zm8.497 80.19h-24.13v-92.94h24.13c16.71 0 22.61 10.7 22.61 24.95v43.04c0 14.4-5.898 24.95-22.61 24.95m70.13 0v-73.47c0-4.798-1.641-7.529-5.881-7.529-4.116 0-5.756 2.731-5.756 7.396v18.77h-14.81v-18.49c0-11.79 4.391-20.7 20.57-20.7 15.62 0 21.52 8.772 21.52 22.21v71.82zm35.89-92.94 2.741 17h16.59l2.883-17h16.03l-17.68 92.94h-17.82l-17.54-92.94zm10.96 66.76h0.143l6.164-37.28h-12.47zm58.77-66.76 2.742 17h16.59l2.882-17h16.03l-17.68 92.94h-17.82l-17.54-92.94zm10.96 66.76h0.15l6.164-37.28h-12.48zm54.13-67.85c15.89 0 22.74 9.047 22.74 21.8v4.515c0 10.29-4.107 15.49-12.6 24.13l-10.01 9.863c-4.513 4.39-7.396 7.406-7.396 12.6v1.925c0 5.206 3.016 7.68 7.396 7.68 4.942 0 7.407-2.608 7.407-7.955v-8.089h14.25v7.548c0 13.42-6.164 21.1-21.78 21.1-15.22 0-21.94-8.91-21.94-20.42v-3.157c0-10.68 4.107-16.03 13.01-24.8l9.198-9.188c4.79-4.532 6.98-7.823 6.98-13.15v-3.575c0-4.94-2.19-8.212-7.132-8.212-5.347 0-7.671 3.015-7.671 8.212v12.75h-14.54v-12.48c0-12.2 6.182-21.11 22.09-21.11m61.1 94.03v-71.82c0-5.481-2.19-9.179-7.681-9.179-5.481 0-7.68 3.698-7.68 9.179v71.82h-15.62v-70.3c0-14.4 6.846-23.72 23.3-23.72 15.89 0 22.08 9.321 22.08 23.72v70.3zm65.48-92.94h14.25v92.94h-19.73l-9.056-52.35h-0.134l-10.14 52.35h-18.25v-92.94h12.9v60.31h0.275l11.65-60.31h7.272l10.55 60.31h0.408zm22.32 0h15.62v92.94h-15.62z" fill="#fff"/></g><g transform="translate(990.2 822.8)"><path d="m0 0v67.43h6.572c6.44 0 8.923-3.831 8.923-9.322v-48.66c0-5.615-2.483-9.455-8.923-9.455zm8.497 80.19h-24.14v-92.94h24.14c16.73 0 22.62 10.7 22.62 24.95v43.04c0 14.4-5.888 24.95-22.62 24.95" fill="#fff"/></g></g></g></svg>
