<?xml version="1.0" encoding="UTF-8"?>
<svg width="1512" height="1512" version="1.1" viewBox="0 0 1512 1512" xml:space="preserve" xmlns="http://www.w3.org/2000/svg"><defs><clipPath id="clipPath28"><path d="m0 1134h1134v-1134h-1134z"/></clipPath></defs><g transform="matrix(1.333 0 0 -1.333 0 1512)"><path d="m0 0.03h1134v1134h-1134z" fill="#4a8ed3"/><g transform="translate(147.7 1039)"><path d="m0 0v-228.6h-38.45v175h-0.346l-26.96-27.97h-0.337v40.12l35.41 41.47z" fill="#fff"/></g><g transform="translate(194.3 877.3)"><path d="m0 0 34.43 94.14h0.329v-94.14zm70.53-67.13v37.1h15.52v30.03h-15.52v161.6h-37.78l-66.48-168v-23.62h67.83v-37.1z" fill="#fff"/></g><g clip-path="url(#clipPath28)"><g transform="translate(706.8 289)"><path d="m0 0c-20.83 0-37.73 16.9-37.73 37.75 0 20.81 16.91 37.67 37.73 37.67 20.88 0 37.77-16.86 37.77-37.67 0-20.84-16.89-37.75-37.77-37.75m163.8 17.58c-14.26 19.27-106.5 136.8-235.7 136.8-112.2 0-232.3-101.8-232.3-101.8s-45.1 92.28-137.3 101.2l-1.73 0.124h-0.585c-1.924-0.124-3.725-1.996-3.521-3.654 0.266-1.614 1.446-3.379 1.446-3.379 11.89-19.75 42.23-75.89 42.23-132 0-56.29-30.52-112.6-42.29-132.2l-0.808-1.251-0.576-1.941c0-1.951 1.517-3.451 3.414-3.646l0.994 0.089 0.976 0.106c92.53 8.612 137.8 101.2 137.8 101.2s120-101.8 232.3-101.8c129.2 0 221.4 117.5 235.7 136.7l0.986 1.339 0.309 1.41-0.309 1.401-0.986 1.33" fill="#fff"/></g><g transform="translate(262.4 664.3)"><path d="m0 0-0.709 0.16c-2.041 0-3.708-1.668-3.708-3.752v-25.71l1.073-2.66c62.4-54.22 121.5-3.424 135.1 10l0.984 1.029 2.049 0.674 2.501-0.993 0.178-0.143c70.47-67.26 144.4-12.78 159.7 0l1.508 1.384 1.402 0.258 1.463-0.258 1.526-1.384c15.36-12.78 89.24-67.26 159.7 0l0.134 0.143 2.501 0.993 2.059-0.674 1.019-1.029c13.67-13.43 72.68-64.22 135.1-10l1.075 2.66v25.71c0 2.084-1.624 3.752-3.673 3.752l-0.79-0.16-1.862-0.967c-19.2-9.614-78.7-32.48-132.7 18.62l-1.578 1.499-1.57 0.337-1.127-0.177-1.88-1.437c-16.1-12.29-89.98-62.3-155.8-0.922l-0.958 0.931-2.669 1.126-2.564-1.126-1.029-0.931c-65.77-61.38-139.7-11.37-155.8 0.922l-1.845 1.437-1.171 0.177-1.561-0.337-1.579-1.499c-54-51.1-113.5-28.24-132.7-18.62l-1.898 0.967" fill="#fff"/></g><g transform="translate(394.2 548.7)"><path d="m0 0 0.984 1.037 2.032 0.684 2.537-1.037 0.159-0.161c70.45-67.15 144.4-12.72 159.7 0l1.508 1.446 1.383 0.23 1.499-0.23 1.508-1.446c15.37-12.72 89.24-67.15 159.7 0l0.133 0.161 2.493 1.037 2.048-0.684 1.038-1.037c13.65-13.44 72.66-64.23 135.1-9.978l1.082 2.589v25.81c0 2.04-1.65 3.689-3.672 3.689l-0.799-0.168-1.861-0.932c-19.18-9.631-78.72-32.41-132.7 18.62l-1.543 1.463-1.588 0.381-1.127-0.275-1.879-1.383c-16.07-12.26-89.98-62.27-155.8-0.905l-0.975 0.958-2.67 1.038-2.563-1.038-1.011-0.958c-65.77-61.37-139.7-11.35-155.8 0.905l-1.844 1.383-1.171 0.275-1.544-0.381-1.596-1.463c-54.02-51.03-113.5-28.25-132.7-18.62l-1.899 0.932-0.691 0.168c-2.067 0-3.726-1.649-3.726-3.689v-25.81l1.074-2.589c62.4-54.25 121.5-3.459 135.1 9.978" fill="#fff"/></g><g transform="translate(385.4 958)"><path d="m0 0c-5.473 0-7.947 3.982-7.947 9.587v49.9c0 5.623 2.474 9.596 7.947 9.596 5.624 0 8.089-3.973 8.089-9.596v-49.9c0-5.605-2.465-9.587-8.089-9.587m0-13.03c16.59 0 23.72 10.7 23.72 25.09v44.96c0 14.53-7.131 25.08-23.72 25.08-16.44 0-23.58-10.55-23.58-25.08v-44.96c0-14.4 7.132-25.09 23.58-25.09m56.04 13.03c-5.482 0-7.948 3.982-7.948 9.587v49.9c0 5.623 2.466 9.596 7.948 9.596 5.623 0 8.089-3.973 8.089-9.596v-49.9c0-5.605-2.466-9.587-8.089-9.587m0-13.03c16.59 0 23.72 10.7 23.72 25.09v44.96c0 14.53-7.131 25.08-23.72 25.08-16.44 0-23.58-10.55-23.58-25.08v-44.96c0-14.4 7.131-25.09 23.58-25.09" fill="#fff"/></g><path d="m689.7 946.1h15.62v92.92h-15.62z" fill="#fff"/><g transform="translate(666 946.1)"><path d="m0 0h13.71v92.92h-13.02v-53.31l-16.87 53.31h-15.34v-92.92h13.16v58.4z" fill="#fff"/></g><g transform="translate(593.5 975.5)"><path d="m0 0 6.165 37.28h0.142l6.165-37.28zm15.76 63.46h-17.82l-17.54-92.92h14.8l2.74 16.99h16.59l2.883-16.99h16.04z" fill="#fff"/></g><g transform="translate(529.7 946.1)"><path d="m0 0h37.29v12.74h-21.66v28.24h15.49v12.6h-15.49v26.6h21.66v12.74h-37.29z" fill="#fff"/></g><g transform="translate(506.3 946.1)"><path d="m0 0h16.46l-18.51 51.12 18.09 41.8h-15.34l-17-40.84v40.84h-15.62v-92.92h15.62v45.23z" fill="#fff"/></g><g transform="translate(812.6 1039)"><path d="m0 0v-73.47c0-4.789-1.649-7.529-5.898-7.529-4.107 0-5.756 2.74-5.756 7.405v18.78h-14.81v-18.5c0-11.79 4.391-20.71 20.57-20.71 15.63 0 21.53 8.771 21.53 22.21v71.82zm36.56-92.92 2.749 16.99h16.59l2.873-16.99h16.04l-17.68 92.92h-17.82l-17.55-92.92zm10.97 66.74h0.133l6.174-37.28h-12.47z" fill="#fff"/></g><g transform="translate(405 810)"><path d="m0 0h14.26v92.94h-19.74l-9.056-52.35h-0.133l-10.14 52.35h-18.24v-92.94h12.88v60.31h0.283l11.65-60.31h7.265l10.56 60.31h0.408zm23.82 0h37.29v12.75h-21.66v28.24h15.49v12.6h-15.49v26.59h21.66v12.75h-37.29zm76.6 0h16.44l-14.94 42.22c8.905 2.066 12.47 7.955 12.47 17.97v11.92c0 13.02-5.757 20.83-21.52 20.83h-22.76v-92.94h15.63v42.63zm-9.455 80.19c5.339 0 7.663-2.457 7.663-7.53v-13.71c0-4.94-2.324-7.681-7.663-7.681h-5.216v28.92zm32.59-80.19h37.29v12.75h-21.66v28.24h15.49v12.6h-15.49v26.59h21.66v12.75h-37.29zm76.6 0h16.44l-14.94 42.22c8.906 2.066 12.48 7.955 12.48 17.97v11.92c0 13.02-5.756 20.83-21.53 20.83h-22.76v-92.94h15.62v42.63zm-9.455 80.19c5.34 0 7.673-2.457 7.673-7.53v-13.71c0-4.94-2.333-7.681-7.673-7.681h-5.215v28.92zm32.59-80.19h37.29v12.75h-21.65v28.24h15.48v12.6h-15.48v26.59h21.65v12.75h-37.29zm67.56-1.091c15.9 0 22.75 9.047 22.75 21.8v4.515c0 10.29-4.115 15.48-12.61 24.13l-10 9.863c-4.524 4.39-7.398 7.406-7.398 12.6v1.925c0 5.206 3.015 7.68 7.398 7.68 4.932 0 7.406-2.608 7.406-7.955v-8.089h14.25v7.548c0 13.42-6.173 21.1-21.79 21.1-15.21 0-21.93-8.905-21.93-20.43v-3.148c0-10.7 4.115-16.04 13.02-24.81l9.181-9.189c4.799-4.522 6.998-7.813 6.998-13.16v-3.557c0-4.94-2.199-8.212-7.131-8.212-5.34 0-7.682 2.997-7.682 8.212v12.75h-14.53v-12.48c0-12.2 6.174-21.11 22.08-21.11m52.87 0c15.91 0 22.76 9.047 22.76 21.8v4.515c0 10.29-4.106 15.48-12.61 24.13l-10.01 9.863c-4.524 4.39-7.397 7.406-7.397 12.6v1.925c0 5.206 3.016 7.68 7.397 7.68 4.932 0 7.406-2.608 7.406-7.955v-8.089h14.25v7.548c0 13.42-6.174 21.1-21.8 21.1-15.21 0-21.93-8.905-21.93-20.43v-3.148c0-10.7 4.116-16.04 13.02-24.81l9.189-9.189c4.79-4.522 6.989-7.813 6.989-13.16v-3.557c0-4.94-2.199-8.212-7.131-8.212-5.34 0-7.672 2.997-7.672 8.212v12.75h-14.53v-12.48c0-12.2 6.164-21.11 22.06-21.11m62.62 94.03v-71.82c0-5.481-2.19-9.179-7.68-9.179-5.473 0-7.663 3.698-7.663 9.179v71.82h-15.63v-70.32c0-14.39 6.847-23.71 23.29-23.71 15.9 0 22.08 9.321 22.08 23.71v70.32zm54.25-92.94h16.46l-14.96 42.22c8.924 2.066 12.48 7.955 12.48 17.97v11.92c0 13.02-5.757 20.83-21.53 20.83h-22.74v-92.94h15.62v42.63zm-9.455 80.19c5.358 0 7.682-2.457 7.682-7.53v-13.71c0-4.94-2.324-7.681-7.682-7.681h-5.207v28.92zm53.84-81.28c15.9 0 22.76 9.047 22.76 21.8v4.515c0 10.29-4.115 15.48-12.61 24.13l-10 9.863c-4.525 4.39-7.399 7.406-7.399 12.6v1.925c0 5.206 3.016 7.68 7.399 7.68 4.931 0 7.396-2.608 7.396-7.955v-8.089h14.26v7.548c0 13.42-6.174 21.1-21.8 21.1-15.21 0-21.93-8.905-21.93-20.43v-3.148c0-10.7 4.116-16.04 13.02-24.81l9.188-9.189c4.791-4.522 6.991-7.813 6.991-13.16v-3.557c0-4.94-2.2-8.212-7.131-8.212-5.35 0-7.673 2.997-7.673 8.212v12.75h-14.54v-12.48c0-12.2 6.174-21.11 22.07-21.11m31.65 1.091h15.61v92.94h-15.61zm40.96 12.75v67.43h6.581c6.439 0 8.914-3.832 8.914-9.322v-48.66c0-5.614-2.475-9.455-8.914-9.455zm8.497 80.19h-24.13v-92.94h24.13c16.73 0 22.62 10.7 22.62 24.95v43.04c0 14.39-5.89 24.95-22.62 24.95" fill="#fff"/></g><g transform="translate(747.1 968.1)"><path d="m0 0c0-5.373-2.334-9.205-7.629-9.324v-0.031h-8.465v67.31h8.465v-0.042c5.295-0.119 7.629-3.943 7.629-9.333zm-27.26 61.06v0.498h0.319c-0.107-0.165-0.216-0.328-0.319-0.498m20.02 9.528v0.053h-23.95v-92.69h23.95v0.036c15.69 0.276 22.45 10.59 22.45 24.42v43.77c0 13.96-6.765 24.14-22.45 24.41" fill="#fff"/></g></g></g></svg>
