<?xml version="1.0" encoding="UTF-8"?>
<svg width="1512" height="1512" version="1.1" viewBox="0 0 1512 1512" xml:space="preserve" xmlns="http://www.w3.org/2000/svg"><defs><clipPath id="clipPath20"><path d="m0 1134h1134v-1134h-1134z"/></clipPath></defs><g transform="matrix(1.333 0 0 -1.333 0 1512)"><path d="m0 0.028h1134v1134h-1134z" fill="#f03933"/><g clip-path="url(#clipPath20)"><g transform="translate(180.8 966.4)"><path d="m0 0c-15.16 0-26.31-5.375-32.36-15.84h-0.337v56.98h66.1v31.37h-101.2v-128.8h35.08v5.086c0 13.49 6.076 20.91 16.84 20.91 11.82 0 16.56-8.133 16.56-20.6v-55.3c0-12.14-4.391-20.58-16.2-20.58-13.17 0-17.88 8.776-17.88 22.25v28.68h-35.11v-25.97c0-34.72 13.84-56.99 52.99-56.99 38.78 0 54.61 20.57 54.61 52.27v55.98c0 36.08-18.53 50.58-39.12 50.58" fill="#fff"/></g><g transform="translate(565 311)"><path d="m0 0c-74.91 0-135.8 60.96-135.8 135.9 0 74.92 60.93 135.8 135.8 135.8 74.92 0 135.9-60.93 135.9-135.8 0-74.9-60.94-135.9-135.9-135.9m260.9 393.7h-140.9l-1.791-1.795v-46.82l1.791-1.805h56.11l-62.3-62.31c-31.39 24.66-70.88 39.4-113.8 39.4-101.8 0-184.6-82.78-184.6-184.6 0-93.7 70.21-171.3 160.8-183v-53.96h-55.59l-1.828-1.765v-50.21l1.828-1.792h55.59v-53.09l1.774-1.782h50.16l1.827 1.782v53.09h55.6l1.773 1.792v50.21l-1.773 1.765h-55.6v54.85c87.58 14.37 154.6 90.52 154.6 182.1 0 39.5-12.5 76.1-33.69 106.2l61.4 61.42v-52.39l1.819-1.8h46.82l1.836 1.8v140.9l-1.836 1.795" fill="#fff"/></g><g transform="translate(647.9 502.7)"><path d="m0 0h-164.8l-1.791-1.588v-39.89l1.791-1.65h164.8l1.818 1.65v39.89z" fill="#fff"/></g><g transform="translate(647.9 431.4)"><path d="m0 0h-164.8l-1.791-1.668v-39.89l1.791-1.613h164.8l1.818 1.613v39.89z" fill="#fff"/></g><g transform="translate(347.3 945)"><path d="m0 0c15.9 0 22.74 9.033 22.74 21.79v4.527c0 10.28-4.107 15.49-12.6 24.12l-10.01 9.867c-4.515 4.386-7.398 7.401-7.398 12.62v1.911c0 5.215 3.016 7.676 7.398 7.676 4.939 0 7.405-2.594 7.405-7.942v-8.084h14.25v7.534c0 13.43-6.164 21.11-21.78 21.11-15.22 0-21.93-8.918-21.93-20.43v-3.148c0-10.7 4.106-16.04 13.01-24.82l9.198-9.179c4.789-4.519 6.98-7.809 6.98-13.16v-3.57c0-4.927-2.191-8.221-7.13-8.221-5.349 0-7.664 3.02-7.664 8.221v12.75h-14.55v-12.47c0-12.2 6.182-21.1 22.08-21.1m54.94 13.01c-5.499 0-7.956 3.977-7.956 9.605v49.89c0 5.61 2.457 9.587 7.956 9.587 5.606 0 8.089-3.977 8.089-9.587v-49.89c0-5.628-2.483-9.605-8.089-9.605m0-13.01c16.58 0 23.71 10.68 23.71 25.08v44.96c0 14.53-7.13 25.09-23.71 25.09-16.45 0-23.58-10.56-23.58-25.09v-44.96c0-14.39 7.131-25.08 23.58-25.08m56.57 13.01c-5.481 0-7.947 3.977-7.947 9.605v49.89c0 5.61 2.466 9.587 7.947 9.587 5.623 0 8.089-3.977 8.089-9.587v-49.89c0-5.628-2.466-9.605-8.089-9.605m0-13.01c16.6 0 23.73 10.68 23.73 25.08v44.96c0 14.53-7.131 25.09-23.73 25.09-16.44 0-23.57-10.56-23.57-25.09v-44.96c0-14.39 7.131-25.08 23.57-25.08m33 1.091h34.28v12.75h-18.65v80.17h-15.63zm41.79 0h15.63v92.92h-15.63zm56.59 0h13.71v92.92h-13.03v-53.32l-16.86 53.32h-15.34v-92.92h13.16v58.39zm23.02 0h37.27v12.75h-21.65v28.23h15.49v12.62h-15.49v26.59h21.65v12.74h-37.27z" fill="#fff"/></g><g transform="translate(361.4 903)"><path d="m0 0-10.98-64.83h-0.125l-10.7 64.83h-15.9l17.68-92.92h17l17.69 92.92zm44.09-81c-5.472 0-7.938 3.977-7.938 9.591v49.89c0 5.624 2.466 9.601 7.938 9.601 5.633 0 8.09-3.977 8.09-9.601v-49.89c0-5.614-2.457-9.591-8.09-9.591m0-13.02c16.6 0 23.73 10.7 23.73 25.09v44.96c0 14.53-7.122 25.08-23.73 25.08-16.44 0-23.56-10.55-23.56-25.08v-44.96c0-14.4 7.122-25.09 23.56-25.09m-6.572 97.73c0 1.37 0.816 2.053 1.925 2.053 2.057 0 5.339-2.328 9.313-2.328 6.865 0 9.33 5.215 9.606 11.65h-7.681c0-1.371-0.834-2.053-1.925-2.053-2.058 0-5.348 2.332-9.313 2.332-6.865 0-9.322-5.219-9.597-11.66z" fill="#fff"/></g><g transform="translate(468.6 810)"><path d="m0 0h16.45l-14.94 42.22c8.905 2.053 12.47 7.942 12.47 17.95v11.92c0 13.03-5.747 20.84-21.52 20.84h-22.75v-92.92h15.62v42.62zm-9.455 80.18c5.349 0 7.681-2.461 7.681-7.534v-13.71c0-4.927-2.332-7.663-7.681-7.663h-5.206v28.91zm48.91-67.44v67.44h6.581c6.448 0 8.905-3.831 8.905-9.312v-48.66c0-5.623-2.457-9.472-8.905-9.472zm8.506 80.19h-24.12v-92.92h24.12c16.72 0 22.62 10.68 22.62 24.95v43.03c0 14.4-5.898 24.94-22.62 24.94" fill="#fff"/></g><g transform="translate(571.7 821.9)"><path d="m0 0c-5.472 0-7.956 3.978-7.956 9.592v49.89c0 5.623 2.484 9.6 7.956 9.6 5.615 0 8.09-3.977 8.09-9.6v-49.89c0-5.614-2.475-9.592-8.09-9.592m0-13.02c16.59 0 23.71 10.7 23.71 25.09v44.96c0 14.53-7.123 25.08-23.71 25.08-16.45 0-23.58-10.55-23.58-25.08v-44.96c0-14.39 7.122-25.09 23.58-25.09m-6.581 97.73c0 1.37 0.825 2.052 1.925 2.052 2.049 0 5.34-2.327 9.322-2.327 6.847 0 9.313 5.214 9.588 11.65h-7.682c0-1.37-0.816-2.053-1.906-2.053-2.059 0-5.349 2.333-9.322 2.333-6.857 0-9.331-5.22-9.597-11.66zm39.59-96.63h15.62v92.92h-15.62zm48.64 37.28h7.407v-16.45c0-6.017-2.609-8.904-7.681-8.904-5.35 0-7.682 3.978-7.682 9.592v49.89c0 5.623 2.475 9.6 8.089 9.6 5.624 0 7.806-3.29 7.806-9.046v-9.458h14.27v8.216c0 13.72-5.074 23.3-22.35 23.3-16.44 0-23.43-10.55-23.43-25.08v-44.96c0-14.39 6.164-25.09 19.59-25.09 8.497 0 12.89 4.253 14.94 11.25v-10.14h11.25v49.62h-22.21zm62.48 55.65v-71.82c0-5.481-2.192-9.184-7.682-9.184-5.48 0-7.68 3.703-7.68 9.184v71.82h-15.62v-70.31c0-14.4 6.848-23.72 23.3-23.72 15.9 0 22.08 9.325 22.08 23.72v70.31zm44.92-94.03c15.89 0 22.76 9.046 22.76 21.8v4.515c0 10.29-4.125 15.49-12.61 24.13l-10.01 9.863c-4.524 4.39-7.389 7.405-7.389 12.62v1.911c0 5.215 3.016 7.677 7.389 7.677 4.941 0 7.397-2.608 7.397-7.956v-8.088h14.27v7.551c0 13.43-6.182 21.1-21.8 21.1-15.21 0-21.93-8.905-21.93-20.42v-3.163c0-10.68 4.115-16.03 13.03-24.8l9.18-9.18c4.799-4.532 6.998-7.809 6.998-13.16v-3.57c0-4.926-2.199-8.221-7.14-8.221-5.339 0-7.664 3.02-7.664 8.221v12.75h-14.54v-12.48c0-12.19 6.173-21.11 22.07-21.11m31.36 1.104h34.27v12.74h-18.63v80.19h-15.64zm41.78 0h15.64v92.92h-15.64zm57.01 0h16.45l-18.51 51.12 18.1 41.8h-15.34l-17.01-40.84v40.84h-15.62v-92.92h15.62v45.23zm54.66 0h16.45l-18.51 51.12 18.1 41.8h-15.36l-16.99-40.84v40.84h-15.62v-92.92h15.62v45.23zm53.71 92.92v-71.82c0-5.481-2.199-9.184-7.682-9.184-5.48 0-7.68 3.703-7.68 9.184v71.82h-15.62v-70.31c0-14.4 6.846-23.72 23.3-23.72 15.9 0 22.06 9.325 22.06 23.72v70.31z" fill="#fff"/></g><g transform="translate(1045 808.9)"><path d="m0 0c15.91 0 22.77 9.046 22.77 21.8v4.514c0 10.29-4.116 15.49-12.61 24.13l-10.01 9.862c-4.523 4.39-7.406 7.406-7.406 12.62v1.911c0 5.215 3.016 7.676 7.406 7.676 4.923 0 7.398-2.607 7.398-7.955v-8.089h14.25v7.552c0 13.43-6.164 21.1-21.8 21.1-15.21 0-21.92-8.904-21.92-20.42v-3.162c0-10.68 4.106-16.03 13.01-24.8l9.18-9.18c4.798-4.531 6.998-7.809 6.998-13.16v-3.57c0-4.927-2.2-8.222-7.123-8.222-5.347 0-7.68 3.02-7.68 8.222v12.75h-14.53v-12.47c0-12.2 6.164-21.11 22.06-21.11" fill="#fff"/></g></g></g></svg>
