<?xml version="1.0" encoding="UTF-8"?>
<svg width="1512" height="1512" version="1.1" viewBox="0 0 1512 1512" xml:space="preserve" xmlns="http://www.w3.org/2000/svg"><defs><clipPath id="clipPath24"><path d="m0 1134h1134v-1134h-1134z"/></clipPath></defs><g transform="matrix(1.333 0 0 -1.333 0 1512)"><path d="m0 0.03h1134v1134h-1134z" fill="#45b842"/><g transform="translate(83.02 997.4)"><path d="m0 0v-40.13h0.337l26.98 27.99h0.337v-175h38.42v228.6h-30.68z" fill="#fff"/></g><g clip-path="url(#clipPath24)"><g transform="translate(240.5 966.4)"><path d="m0 0c-15.16 0-26.27-5.392-32.36-15.83h-0.337v56.97h66.09v31.36h-101.1v-128.8h35.06v5.073c0 13.46 6.066 20.9 16.85 20.9 11.81 0 16.53-8.106 16.53-20.58v-55.3c0-12.12-4.382-20.55-16.19-20.55-13.14 0-17.85 8.763-17.85 22.25v28.65h-35.1v-25.98c0-34.71 13.84-56.95 52.94-56.95 38.77 0 54.62 20.56 54.62 52.26v55.96c0 36.09-18.54 50.57-39.12 50.57" fill="#fff"/></g><g transform="translate(469.5 367.3)"><path d="m0 0c1.384 0 2.501-1.117 2.501-2.501v-82.56c0-1.402-1.117-2.511-2.501-2.511h-33.42c-1.384 0-2.502 1.109-2.502 2.511v82.56c0 1.384 1.118 2.501 2.502 2.501z" fill="#fff"/></g><g transform="translate(836.5 244.2)"><path d="m0 0h-550.6c-1.383 0-2.51-1.18-2.51-2.59v-33.67c0-1.347 1.127-2.457 2.51-2.457h550.6c1.357 0 2.519 1.11 2.519 2.457v33.67c0 1.41-1.162 2.59-2.519 2.59" fill="#fff"/></g><g transform="translate(836.5 177.4)"><path d="m0 0h-550.6c-1.383 0-2.51-1.109-2.51-2.483v-33.76c0-1.349 1.127-2.484 2.51-2.484h550.6c1.357 0 2.519 1.135 2.519 2.484v33.76c0 1.374-1.162 2.483-2.519 2.483" fill="#fff"/></g><g transform="translate(731.7 458.6)"><path d="m0 0c-6.873 5.393-25.23 17.93-47.63 17.93-15.99 0-30.89-6.288-44.22-18.79l-1.464-3.449v-2.989c0-1.481 0.48-2.856 1.57-3.761 1.189-0.913 2.449-1.25 3.884-0.913l1.021 0.275 2.749 1.738c2.893 1.933 10.77 4.586 22.06 4.586 11.66 0 34.59-3.122 56.73-23.78l0.515-0.443c1.241-1.276 2.962-2.005 4.78-2.005 1.73 0 3.539 0.729 4.657 1.951l0.452 0.453c22.27 20.7 45.16 23.82 56.81 23.82 11.37 0 19.21-2.653 22.12-4.586l3.033-1.871 3.229-0.098c2.04 0.576 3.477 2.422 3.477 4.533v2.66l-1.49 3.397c-13.45 12.82-28.49 19.3-44.76 19.3-22.17 0-40.46-12.36-47.53-17.97" fill="#fff"/></g><g transform="translate(697.5 678.1)"><path d="m0 0-2.395-2.9-0.55-1.836c-0.426-1.446-0.159-2.972 0.71-4.133l3.423-1.854 0.674-0.027 2.661 0.684c0.497 0.088 1.508 0.363 3.353 0.363 2.457 0 24.64-0.727 39.33-25.68l0.178-0.364c0.807-1.445 2.041-2.439 3.53-2.829l1.757-0.266 2.775 0.692 0.364 0.168c8.018 4.027 16.35 6.084 24.55 6.084 13.92 0 23.01-5.676 25.12-8.044l1.853-2.04 1.766-0.86 0.834-0.133 0.478-0.027 2.192 0.55 2.332 2.83 0.461 1.605 0.195 1.339-0.639 2.377c-10.7 18.56-26.2 22.44-37.34 22.44-8.294 0-15.54-2.146-19.82-3.716-5.047 6.776-17.78 20.81-37.14 20.81-6.794 0-13.73-1.748-20.65-5.233" fill="#fff"/></g><g transform="translate(581.2 593.4)"><path d="m0 0 0.16-2.474c0.08-1.561 0.887-2.892 2.199-3.716l3.7-0.559 0.806 0.248 2.377 1.748c2.351 1.711 9.881 4.78 21 4.78 10.68 0 26.96-2.856 43.53-16.48l0.391-0.381c1.188-1.029 2.696-1.597 4.248-1.597h0.399c1.739 0.124 3.353 0.931 4.311 2.067l0.372 0.417c18.36 19.41 38.14 22.31 48.29 22.31 7.236 0 12.35-1.499 14.35-2.625l2.864-1.499 2.014-0.115 1.153 0.275c1.969 0.683 3.265 2.607 3.131 4.718l-0.133 2.173-1.659 3.264c-10.95 9.224-22.77 13.86-35.22 13.86-19.36 0-34.8-11.44-41.21-17.04-5.854 3.982-20.06 12.19-36.73 12.19-14.65 0-27.8-6.084-39.06-18.06l-1.286-3.512" fill="#fff"/></g><g transform="translate(302.5 549.2)"><path d="m0 0c0 32.95 26.72 59.68 59.69 59.68l3.823-0.195c3.149 41.71 37.92 74.63 80.46 74.63 44.6 0 80.77-36.15 80.77-80.74 0-12.65-2.998-24.55-8.178-35.2 40.43-8.948 70.7-44.94 70.7-88.06 0-49.83-40.41-90.24-90.27-90.24-3.646 0-120.4 0.71-120.4 0.71-35.3 0-63.91 28.59-63.91 63.9 0 16.95 6.634 32.3 17.42 43.74-17.94 10.3-30.06 29.6-30.06 51.78" fill="#fff"/></g><g transform="translate(404.9 946.1)"><path d="m0 0h14.24v92.92h-19.74l-9.038-52.36h-0.142l-10.15 52.36h-18.23v-92.92h12.88v60.3h0.275l11.66-60.3h7.264l10.55 60.3h0.426zm36.42 0 2.741 16.99h16.59l2.882-16.99h16.04l-17.69 92.92h-17.82l-17.54-92.92zm10.96 66.76h0.142l6.165-37.3h-12.47zm46.99-66.76 2.731 16.99h16.6l2.882-16.99h16.04l-17.69 92.92h-17.83l-17.54-92.92zm10.96 66.76h0.143l6.155-37.3h-12.47z" fill="#fff"/></g><g transform="translate(385.4 822)"><path d="m0 0c-5.481 0-7.947 3.974-7.947 9.587v49.89c0 5.623 2.466 9.605 7.947 9.605 5.624 0 8.089-3.982 8.089-9.605v-49.89c0-5.613-2.465-9.587-8.089-9.587m0-13.03c16.6 0 23.72 10.7 23.72 25.09v44.96c0 14.53-7.122 25.07-23.72 25.07-16.44 0-23.57-10.55-23.57-25.07v-44.96c0-14.4 7.122-25.09 23.57-25.09m-14.94 97.32h13.3v11.8h-13.3zm16.59 0h13.3v11.8h-13.3zm63.16-96.21h16.45l-18.51 51.11 18.1 41.81h-15.36l-16.99-40.84v40.84h-15.63v-92.92h15.63v45.22z" fill="#fff"/></g><g transform="translate(494.7 822)"><path d="m0 0c-5.481 0-7.947 3.974-7.947 9.587v49.89c0 5.623 2.466 9.605 7.947 9.605 5.624 0 8.089-3.982 8.089-9.605v-49.89c0-5.613-2.465-9.587-8.089-9.587m0-13.03c16.6 0 23.72 10.7 23.72 25.09v44.96c0 14.53-7.122 25.07-23.72 25.07-16.44 0-23.58-10.55-23.58-25.07v-44.96c0-14.4 7.131-25.09 23.58-25.09m54.12 0c15.9 0 22.75 9.047 22.75 21.8v4.515c0 10.29-4.107 15.48-12.61 24.13l-10 9.862c-4.523 4.39-7.406 7.406-7.406 12.6v1.925c0 5.215 3.016 7.681 7.406 7.681 4.941 0 7.407-2.608 7.407-7.956v-8.089h14.24v7.548c0 13.42-6.156 21.1-21.78 21.1-15.22 0-21.93-8.905-21.93-20.42v-3.157c0-10.68 4.115-16.04 13.02-24.81l9.189-9.179c4.799-4.532 6.98-7.823 6.98-13.17v-3.556c0-4.94-2.181-8.213-7.122-8.213-5.348 0-7.672 2.998-7.672 8.213v12.75h-14.54v-12.48c0-12.2 6.173-21.11 22.08-21.11m62.21 94.03v-71.82c0-5.481-2.19-9.18-7.681-9.18-5.482 0-7.671 3.699-7.671 9.18v71.82h-15.63v-70.31c0-14.4 6.856-23.72 23.3-23.72 15.9 0 22.07 9.322 22.07 23.72v70.31zm-22.89 3.291h13.3v11.8h-13.3zm16.58 0h13.29v11.8h-13.29zm51.09-97.32c15.91 0 22.76 9.047 22.76 21.8v4.515c0 10.29-4.106 15.48-12.6 24.13l-10.01 9.862c-4.524 4.39-7.398 7.406-7.398 12.6v1.925c0 5.215 3.016 7.681 7.398 7.681 4.932 0 7.406-2.608 7.406-7.956v-8.089h14.25v7.548c0 13.42-6.173 21.1-21.8 21.1-15.21 0-21.92-8.905-21.92-20.42v-3.157c0-10.68 4.116-16.04 13.02-24.81l9.189-9.179c4.79-4.532 6.989-7.823 6.989-13.17v-3.556c0-4.94-2.199-8.213-7.131-8.213-5.349 0-7.672 2.998-7.672 8.213v12.75h-14.53v-12.48c0-12.2 6.164-21.11 22.06-21.11m29.45 81.28h12.88v-80.17h15.77v80.17h12.89v12.75h-41.54zm49.05-80.17h37.29v12.74h-21.66v28.24h15.49v12.6h-15.49v26.59h21.66v12.75h-37.29zm45.89 0h37.29v12.74h-21.66v28.24h15.49v12.6h-15.49v26.59h21.66v12.75h-37.29zm88.94 0h14.24v92.92h-19.74l-9.038-52.35h-0.142l-10.15 52.35h-18.24v-92.92h12.9v60.29h0.266l11.65-60.29h7.273l10.55 60.29h0.417zm23.4 0h15.63v92.92h-15.63zm40.56 12.74v67.43h6.581c6.439 0 8.914-3.831 8.914-9.322v-48.66c0-5.615-2.475-9.455-8.914-9.455zm8.496 80.18h-24.12v-92.92h24.12c16.73 0 22.62 10.68 22.62 24.93v43.04c0 14.39-5.89 24.95-22.62 24.95" fill="#fff"/></g></g></g></svg>
