<svg width="233" height="232" viewBox="0 0 233 232" fill="none" xmlns="http://www.w3.org/2000/svg">
<g clip-path="url(#clip0_111_11)">
<path d="M59.5864 82.9706C62.471 78.0678 65.9701 73.5769 69.9811 69.6006L35.8963 32.2233C27.3198 40.4159 20.0069 49.9122 14.2617 60.3896L59.597 82.9706" fill="#58C039"/>
<path d="M143.165 56.5772C148.328 58.9407 153.125 61.9586 157.455 65.5323L191.633 28.2084C182.629 20.445 172.425 14.0386 161.334 9.30641L143.152 56.5746" fill="#DDB02D"/>
<path d="M221.412 67.7744L176.104 90.3554C178.267 95.4075 179.805 100.77 180.641 106.365L231.042 101.607C229.554 89.6729 226.251 78.2931 221.412 67.7757" fill="#C71D37"/>
<path d="M172.891 83.7704L218.187 61.1894C212.573 50.76 205.419 41.2877 197.018 33.0897L162.84 70.4004C166.731 74.3967 170.119 78.8876 172.892 83.7704" fill="#48AA3C"/>
<path d="M50.5884 116.029C50.5884 115.011 50.6233 113.991 50.6676 112.978L0.253537 108.466C0.0962426 110.965 0 113.486 0 116.029C0 125.696 1.20023 135.091 3.43114 144.062L52.1123 130.092C51.1151 125.556 50.5794 120.852 50.5794 116.016" fill="#3C8147"/>
<path d="M166.493 157.459C162.91 161.819 158.776 165.706 154.2 169.024L180.82 212.12C190.697 205.428 199.495 197.257 206.88 187.912L166.49 157.467" fill="#F9BB1A"/>
<path d="M181.422 116.029C181.422 120.801 180.909 125.453 179.924 129.932L228.605 143.915C230.823 134.976 232.007 125.627 232.007 116.016C232.007 113.627 231.927 111.256 231.78 108.897L181.379 113.656C181.409 114.445 181.426 115.227 181.426 116.016" fill="#F03934"/>
<path d="M66.2379 158.418L25.9546 189.037C33.4474 198.264 42.3238 206.313 52.268 212.871L78.8747 169.829C74.1879 166.587 69.9396 162.745 66.2445 158.417" fill="#F79028"/>
<path d="M51.4017 105.712C52.304 100.017 53.9531 94.5717 56.2298 89.4757L10.9478 66.9213C5.94508 77.5666 2.5126 89.1024 0.95166 101.193L51.4057 105.717" fill="#4498D9"/>
<path d="M174.624 216.017L148.044 172.975C143.216 175.701 138.013 177.842 132.528 179.279L141.907 229.053C153.577 226.371 164.581 221.921 174.619 216.007" fill="#9D1646"/>
<path d="M177.957 136.984C176.193 142.162 173.808 147.047 170.88 151.553L211.296 182.039C217.861 172.604 223.052 162.151 226.599 150.967L177.958 136.984" fill="#51C6E2"/>
<path d="M125.41 180.733C122.334 181.178 119.183 181.416 115.979 181.416C113.405 181.416 110.861 181.258 108.367 180.968L98.9937 230.755C104.54 231.568 110.21 232 115.976 232C122.377 232 128.658 231.474 134.771 230.474L125.403 180.74" fill="#F25C30"/>
<path d="M120.158 50.712C125.775 51.0732 131.198 52.1383 136.34 53.8365L154.522 6.5817C143.706 2.76266 132.168 0.501902 120.158 0.080674V50.708" fill="#EE2042"/>
<path d="M101.149 179.733C95.4814 178.41 90.0947 176.354 85.1 173.664L58.48 216.733C68.7241 222.596 79.9279 226.936 91.7916 229.467L101.156 179.733" fill="#E21270"/>
<path d="M96.3236 53.6447C101.574 51.9837 107.113 50.972 112.839 50.7027V0.0887156C100.673 0.413968 88.9787 2.62942 78.0215 6.43114L96.3236 53.646" fill="#23476B"/>
<path d="M61.7989 152.607C58.589 147.864 55.967 142.666 54.0861 137.144L5.43164 151.1C9.11605 162.704 14.5747 173.508 21.5076 183.226L61.8042 152.607" fill="#BE9029"/>
<path d="M75.4624 64.7084C79.736 61.3213 84.4388 58.47 89.4856 56.2239L71.1968 9.03567C60.2995 13.6105 50.2554 19.805 41.3643 27.3111L75.4757 64.7151" fill="#2E6BA5"/>
</g>
<defs>
<clipPath id="clip0_111_11">
<rect width="233.001" height="232" fill="white"/>
</clipPath>
</defs>
</svg>
