<?xml version="1.0" encoding="UTF-8"?>
<svg width="1512" height="1512" version="1.1" viewBox="0 0 1512 1512" xml:space="preserve" xmlns="http://www.w3.org/2000/svg"><defs><clipPath id="clipPath24"><path d="m0 1134h1134v-1134h-1134z"/></clipPath></defs><g transform="matrix(1.333 0 0 -1.333 0 1512)"><path d="m0 3e-3h1134v1134h-1134z" fill="#f9ae1d"/><g transform="translate(116.2 1008)"><path d="m0 0h59.42l-51.33-197.5h38.18l50.3 193.4v35.46h-96.56z" fill="#fff"/></g><g clip-path="url(#clipPath24)"><g transform="translate(567.4 333.2)"><path d="m0 0c-47.73 0-86.43 38.7-86.43 86.43 0 38.81 25.54 71.61 60.76 82.55v-32.18c-18.32-9.358-30.91-28.37-30.91-50.38 0-31.24 25.33-56.58 56.59-56.58 31.26 0 56.59 25.35 56.59 56.58 0 22.07-12.64 41.11-31.04 50.45v32.15c35.28-10.89 60.91-43.73 60.91-82.6 0-47.74-38.7-86.43-86.45-86.43m-12.32 185.7c0 5.534 5.553 11.63 12.36 11.63 6.804 0 12.31-6.093 12.31-11.63v-57.06c0-5.508-5.507-11.52-12.31-11.52-6.811 0-12.36 6.014-12.36 11.52zm12.29 65.64c-91.76 0-166.2-74.39-166.2-166.2 0-91.8 74.4-166.2 166.2-166.2 91.76 0 166.2 74.38 166.2 166.2 0 91.78-74.4 166.2-166.2 166.2" fill="#fff"/></g><g transform="translate(376.6 419.8)"><path d="m0 0c0 7.529-6.679 13.64-12.77 13.64h-72.78c-6.146 0-12.87-6.112-12.87-13.64 0-7.549 6.724-13.7 12.87-13.7h72.78c6.093 0 12.77 6.154 12.77 13.7" fill="#fff"/></g><g transform="translate(856.6 419.8)"><path d="m0 0c0 7.529-6.67 13.64-12.77 13.64h-72.78c-6.12 0-12.86-6.112-12.86-13.64 0-7.549 6.74-13.7 12.86-13.7h72.78c6.101 0 12.77 6.154 12.77 13.7" fill="#fff"/></g><g transform="translate(567.4 610.5)"><path d="m0 0c7.521 0 13.62 6.669 13.62 12.76v72.77c0 6.146-6.103 12.88-13.62 12.88-7.548 0-13.69-6.732-13.69-12.88v-72.77c0-6.094 6.146-12.76 13.69-12.76" fill="#fff"/></g><g transform="translate(567.4 130.6)"><path d="m0 0c7.521 0 13.62 6.678 13.62 12.78v72.76c0 6.128-6.103 12.88-13.62 12.88-7.548 0-13.69-6.75-13.69-12.88v-72.76c0-6.101 6.146-12.78 13.69-12.78" fill="#fff"/></g><g transform="translate(401.8 514.6)"><path d="m0 0c3.743 6.545 0.984 15.14-4.311 18.17l-63.15 36.14c-5.33 3.06-14.21 1.1-17.95-5.436-3.752-6.541-0.94-15.22 4.364-18.28l63.17-36.13c5.286-3.033 14.14-1.02 17.88 5.535" fill="#fff"/></g><g transform="translate(818.4 276.1)"><path d="m0 0c3.734 6.528 0.976 15.16-4.311 18.19l-63.15 36.13c-5.321 3.06-14.21 1.109-17.95-5.445-3.744-6.546-0.959-15.21 4.372-18.26l63.16-36.14c5.286-3.024 14.12-1.029 17.88 5.525" fill="#fff"/></g><g transform="translate(662.2 585.3)"><path d="m0 0c6.527-3.734 15.13-0.976 18.16 4.319l36.14 63.15c3.059 5.34 1.108 14.2-5.429 17.94-6.554 3.76-15.24 0.957-18.28-4.373l-36.15-63.14c-3.025-5.304-1.029-14.16 5.553-17.9" fill="#fff"/></g><g transform="translate(423.8 168.7)"><path d="m0 0c6.519-3.734 15.15-0.967 18.18 4.31l36.14 63.16c3.042 5.321 1.082 14.23-5.455 17.95-6.537 3.76-15.24 0.949-18.26-4.373l-36.16-63.16c-3.007-5.286-1.011-14.15 5.552-17.89" fill="#fff"/></g><g transform="translate(472.3 585.2)"><path d="m0 0c6.537 3.76 8.515 12.58 5.473 17.85l-36.29 63.09c-3.078 5.331-11.72 8.107-18.25 4.355-6.555-3.761-8.506-12.66-5.429-17.98l36.27-63.09c3.034-5.277 11.67-8 18.23-4.239" fill="#fff"/></g><g transform="translate(711.6 169.1)"><path d="m0 0c6.511 3.761 8.479 12.59 5.464 17.86l-36.28 63.1c-3.068 5.303-11.72 8.115-18.25 4.354-6.555-3.778-8.514-12.68-5.428-17.99l36.26-63.09c3.033-5.277 11.68-8 18.24-4.24" fill="#fff"/></g><g transform="translate(732.8 514.8)"><path d="m0 0c3.742-6.51 12.57-8.497 17.85-5.464l63.07 36.28c5.33 3.06 8.142 11.7 4.381 18.24-3.778 6.527-12.66 8.505-17.99 5.445l-63.1-36.28c-5.278-3.024-8.001-11.68-4.222-18.23" fill="#fff"/></g><g transform="translate(316.7 275.6)"><path d="m0 0c3.743-6.527 12.59-8.497 17.86-5.455l63.08 36.28c5.322 3.041 8.134 11.7 4.364 18.24-3.751 6.537-12.66 8.498-17.97 5.447l-63.1-36.28c-5.287-3.034-8.001-11.69-4.24-18.23" fill="#fff"/></g><g transform="translate(351.9 1039)"><path d="m0 0v-73.47c0-4.794-1.641-7.534-5.898-7.534-4.107 0-5.757 2.74-5.757 7.401v18.77h-14.79v-18.49c0-11.79 4.39-20.71 20.55-20.71 15.63 0 21.53 8.776 21.53 22.21v71.83zm36.58-92.94 2.741 17.01h16.59l2.873-17.01h16.04l-17.68 92.94h-17.82l-17.54-92.94zm10.96 66.75h0.133l6.173-37.28h-12.47zm-14.25 29.48h13.29v11.79h-13.29zm16.58 0h13.3v11.79h-13.3z" fill="#fff"/></g><g transform="translate(426.8 1026)"><path d="m0 0h12.89v-80.19h15.76v80.19h12.89v12.75h-41.54zm81.4-80.19h16.44l-18.5 51.14 18.09 41.8h-15.36l-16.99-40.85v40.85h-15.63v-92.94h15.63v45.25zm53.97 92.94v-71.83c0-5.477-2.19-9.179-7.672-9.179-5.481 0-7.681 3.702-7.681 9.179v71.83h-15.63v-70.31c0-14.39 6.856-23.72 23.31-23.72 15.9 0 22.07 9.33 22.07 23.72v70.31zm45.21-94.04c15.9 0 22.75 9.051 22.75 21.8v4.519c0 10.29-4.116 15.49-12.61 24.13l-9.996 9.862c-4.534 4.386-7.415 7.406-7.415 12.61v1.92c0 5.206 3.024 7.68 7.415 7.68 4.931 0 7.396-2.607 7.396-7.955v-8.089h14.25v7.548c0 13.42-6.164 21.1-21.79 21.1-15.22 0-21.93-8.905-21.93-20.42v-3.162c0-10.68 4.107-16.03 13.02-24.8l9.181-9.18c4.807-4.532 6.989-7.827 6.989-13.16v-3.574c0-4.936-2.182-8.218-7.113-8.218-5.358 0-7.682 3.016-7.682 8.218v12.75h-14.53v-12.48c0-12.2 6.164-21.12 22.07-21.12m62.61 94.04v-71.83c0-5.477-2.191-9.179-7.673-9.179-5.49 0-7.68 3.702-7.68 9.179v71.83h-15.63v-70.31c0-14.39 6.856-23.72 23.31-23.72 15.9 0 22.07 9.33 22.07 23.72v70.31zm54.94 0v-71.83c0-5.477-2.192-9.179-7.682-9.179-5.472 0-7.672 3.702-7.672 9.179v71.83h-15.63v-70.31c0-14.39 6.857-23.72 23.3-23.72 15.9 0 22.08 9.33 22.08 23.72v70.31zm22.17-12.75h12.88v-80.19h15.77v80.19h12.89v12.75h-41.54zm49.46-80.19h34.27v12.75h-18.65v80.19h-15.62zm42.06 0h15.63v92.94h-15.63zm57.29 0h16.44l-18.51 51.14 18.1 41.8h-15.35l-17-40.85v40.85h-15.63v-92.94h15.63v45.25z" fill="#fff"/></g><g transform="translate(326 810)"><path d="m0 0h37.29v12.75h-21.66v28.24h15.49v12.6h-15.49v26.59h21.66v12.75h-37.29zm77.42 0h13.71v92.94h-13.03v-53.32l-16.86 53.32h-15.35v-92.94h13.16v58.39zm22.86 0h37.29v12.75h-21.65v28.24h15.48v12.6h-15.48v26.59h21.65v12.75h-37.29zm76.19 0h16.46l-14.95 42.22c8.914 2.066 12.48 7.955 12.48 17.97v11.92c0 13.02-5.756 20.83-21.53 20.83h-22.74v-92.94h15.61v42.63zm-9.455 80.19c5.348 0 7.681-2.457 7.681-7.53v-13.71c0-4.94-2.333-7.681-7.681-7.681h-5.215v28.92zm55.76-42.9h7.397v-16.44c0-6.04-2.599-8.904-7.672-8.904-5.348 0-7.681 3.955-7.681 9.587v49.89c0 5.632 2.466 9.587 8.089 9.587s7.823-3.272 7.823-9.028v-9.473h14.24v8.231c0 13.71-5.074 23.3-22.33 23.3-16.46 0-23.45-10.55-23.45-25.08v-44.98c0-14.38 6.173-25.07 19.6-25.07 8.498 0 12.89 4.248 14.96 11.24v-10.15h11.23v49.61h-22.2zm31.36-37.29h15.62v92.94h-15.62z" fill="#fff"/></g><g transform="translate(618.3 810)"><path d="m0 0 2.731 17h16.59l2.875-17h16.04l-17.68 92.94h-17.83l-17.54-92.94zm10.96 66.76h0.133l6.165-37.28h-12.47z" fill="#fff"/></g></g></g></svg>
