<?xml version="1.0" encoding="UTF-8"?>
<svg width="1512" height="1512" version="1.1" viewBox="0 0 1512 1512" xml:space="preserve" xmlns="http://www.w3.org/2000/svg"><defs><clipPath id="clipPath24"><path d="m0 1134h1134v-1134h-1134z"/></clipPath></defs><g transform="matrix(1.333 0 0 -1.333 0 1512)"><path d="m0 0.047h1134v1134h-1134z" fill="#ea2673"/><g transform="translate(109.4 985.3)"><path d="m0 0v-175.2h38.47v228.8h-30.71l-35.44-41.52v-40.16h0.329l27 28.02z" fill="#fff"/></g><g clip-path="url(#clipPath24)"><g transform="translate(213 863.1)"><path d="m0 0v122.9c0 13.84 5.056 23.62 18.24 23.62 13.49 0 18.55-9.778 18.55-23.62v-122.9c0-13.84-5.056-23.61-18.55-23.61-13.18 0-18.24 9.764-18.24 23.61m75.27 6.076v110.7c0 35.77-17.87 61.76-57.03 61.76-38.81 0-56.73-25.98-56.73-61.76v-110.7c0-35.42 17.92-61.76 56.73-61.76 39.16 0 57.03 26.34 57.03 61.76" fill="#fff"/></g><g transform="translate(684 384.9)"><path d="m0 0h-226.7c-1.357 0-2.466-1.092-2.466-2.466v-51.35c0-1.366 1.109-2.475 2.466-2.475h226.7c1.384 0 2.475 1.109 2.475 2.475v51.35c0 1.374-1.091 2.466-2.475 2.466" fill="#fff"/></g><g transform="translate(686.5 479)"><path d="m0 0c0 1.356-1.091 2.465-2.475 2.465h-226.6c-1.357 0-2.466-1.109-2.466-2.465v-51.38c0-1.34 1.109-2.457 2.466-2.457h226.6c1.384 0 2.475 1.117 2.475 2.457z" fill="#fff"/></g><g transform="translate(817.6 458.9)"><path d="m0 0c-9.304 37.35-26.22 70.73-48.6 99.12l-0.506-0.363c7.283-10.82 13.81-22.31 19.38-34.4 29.4-53.92 38.4-119 19.86-182.6-37.24-127.6-170.9-200.9-298.5-163.7-53.66 15.64-97.67 48.35-127.9 90.49-18.92 24.34-33.23 52.85-41.14 84.64-30.29 121.8 43.85 245.1 165.7 275.4 75.33 18.74 151.1-2.617 205.2-50.37l1.447-1.304c1.454-1.108 3.201-1.88 5.152-1.88 2.2 0 4.143 0.896 5.686 2.208l0.904 0.896 28.85 28.49 1.889 1.871c1.065 1.455 1.846 3.175 1.846 5.127 0 2.27-0.922 4.265-2.324 5.844l-0.932 0.816c-66.55 59.48-160.3 86.21-253.5 63.02-149.6-37.25-240.7-188.7-203.5-338.3 15.61-62.7 51.3-115 98.48-152.1 47.01-38.5 106.8-60.39 169.6-59.74 20.16 0.231 40.61 2.705 61.06 7.796 141.1 35.08 227 177.9 191.9 319" fill="#fff"/></g><g transform="translate(361.9 946.1)"><path d="m0 0h37.28v12.75h-21.65v28.23h15.49v12.62h-15.49v26.58h21.65v12.75h-37.28zm45.89 0h24.27c15.62 0 21.51 7.259 21.51 20.42v12.34c0 8.497-3.832 13.71-11.65 15.49 6.44 2.058 9.313 6.998 9.313 14.81v9.455c0 13.16-5.197 20.42-20.83 20.42h-22.62zm22.34 41.81c5.482 0 7.815-2.607 7.815-7.547v-13.98c0-4.94-2.466-7.534-7.673-7.534h-6.856v29.06zm-6.714 38.37h5.349c5.215 0 7.548-2.466 7.548-7.534v-11.38c0-4.927-2.333-7.535-7.406-7.535h-5.491z" fill="#fff"/></g><g transform="translate(473.9 946.1)"><path d="m0 0 2.741 16.99h16.59l2.883-16.99h16.03l-17.68 92.93h-17.82l-17.54-92.93zm10.96 66.75h0.142l6.165-37.29h-12.46zm63.3 26.17-10.96-64.83h-0.142l-10.7 64.83h-15.88l17.68-92.93h17l17.68 92.93z" fill="#fff"/></g><g transform="translate(592.3 958)"><path d="m0 0c-5.49 0-7.938 3.978-7.938 9.605v49.88c0 5.623 2.448 9.601 7.938 9.601 5.615 0 8.09-3.978 8.09-9.601v-49.88c0-5.627-2.475-9.605-8.09-9.605m0-13.01c16.59 0 23.72 10.68 23.72 25.08v44.95c0 14.53-7.132 25.09-23.72 25.09-16.45 0-23.57-10.57-23.57-25.09v-44.95c0-14.4 7.122-25.08 23.57-25.08m-6.572 97.72c0 1.371 0.816 2.054 1.916 2.054 2.049 0 5.348-2.333 9.322-2.333 6.848 0 9.313 5.22 9.588 11.66h-7.681c0-1.371-0.816-2.053-1.907-2.053-2.058 0-5.348 2.332-9.322 2.332-6.856 0-9.313-5.22-9.606-11.66zm69.87-96.63h16.46l-14.95 42.22c8.914 2.053 12.47 7.955 12.47 17.95v11.92c0 13.03-5.757 20.84-21.53 20.84h-22.74v-92.93h15.62v42.62zm-9.447 80.18c5.34 0 7.673-2.465 7.673-7.534v-13.7c0-4.941-2.333-7.681-7.673-7.681h-5.215v28.91zm47.95-67.43v67.43h6.572c6.44 0 8.905-3.831 8.905-9.312v-48.66c0-5.623-2.465-9.459-8.905-9.459zm8.497 80.18h-24.12v-92.93h24.12c16.71 0 22.62 10.68 22.62 24.95v43.03c0 14.4-5.906 24.95-22.62 24.95m53.15-94.02c15.91 0 22.76 9.033 22.76 21.78v4.532c0 10.28-4.106 15.48-12.62 24.12l-9.996 9.863c-4.533 4.385-7.406 7.405-7.406 12.62v1.907c0 5.22 3.024 7.681 7.406 7.681 4.922 0 7.406-2.608 7.406-7.943v-8.084h14.25v7.53c0 13.44-6.165 21.12-21.8 21.12-15.22 0-21.93-8.917-21.93-20.43v-3.149c0-10.7 4.124-16.04 13.03-24.82l9.18-9.179c4.789-4.533 6.998-7.814 6.998-13.16v-3.574c0-4.922-2.209-8.217-7.131-8.217-5.349 0-7.682 3.015-7.682 8.217v12.75h-14.53v-12.48c0-12.19 6.165-21.1 22.07-21.1m62.34 94.02v-71.83c0-5.476-2.181-9.179-7.672-9.179-5.481 0-7.671 3.703-7.671 9.179v71.83h-15.64v-70.31c0-14.4 6.864-23.71 23.31-23.71 15.91 0 22.08 9.312 22.08 23.71v70.31zm44.94-94.02c15.89 0 22.76 9.033 22.76 21.78v4.532c0 10.28-4.106 15.48-12.62 24.12l-9.996 9.863c-4.533 4.385-7.397 7.405-7.397 12.62v1.907c0 5.22 3.016 7.681 7.397 7.681 4.931 0 7.406-2.608 7.406-7.943v-8.084h14.25v7.53c0 13.44-6.164 21.12-21.8 21.12-15.21 0-21.94-8.917-21.94-20.43v-3.149c0-10.7 4.107-16.04 13.03-24.82l9.179-9.179c4.799-4.533 6.998-7.814 6.998-13.16v-3.574c0-4.922-2.199-8.217-7.13-8.217-5.348 0-7.682 3.015-7.682 8.217v12.75h-14.53v-12.48c0-12.19 6.164-21.1 22.07-21.1m31.36 1.091h37.29v12.75h-21.65v28.23h15.49v12.62h-15.49v26.58h21.65v12.75h-37.29z" fill="#fff"/></g><g transform="translate(397.2 903)"><path d="m0 0-10.95-64.83h-0.142l-10.69 64.83h-15.9l17.69-92.92h17l17.68 92.92zm27.81-92.92 2.74 16.98h16.59l2.882-16.98h16.04l-17.69 92.92h-17.82l-17.54-92.92zm10.96 66.74h0.142l6.164-37.28h-12.47zm-14.25 29.48h13.29v11.79h-13.29zm16.59 0h13.29v11.79h-13.29z" fill="#fff"/></g><g transform="translate(501.5 810.1)"><path d="m0 0h15.77v92.92h-15.77v-39.34h-15.06v39.34h-15.63v-92.92h15.63v40.98h15.06zm25.33 0h37.3v12.74h-21.66v28.24h15.49v12.6h-15.49v26.59h21.66v12.75h-37.3zm77.84 0h13.69v92.92h-13.02v-53.32l-16.85 53.32h-15.36v-92.92h13.16v58.38zm38.88 12.74v67.43h6.58c6.439 0 8.923-3.832 8.923-9.304v-48.67c0-5.614-2.484-9.454-8.923-9.454zm8.505 80.18h-24.13v-92.92h24.13c16.73 0 22.62 10.68 22.62 24.94v43.03c0 14.4-5.89 24.95-22.62 24.95m44.52-92.92 2.741 16.98h16.59l2.873-16.98h16.04l-17.68 92.92h-17.83l-17.54-92.92zm10.98 66.74h0.124l6.165-37.28h-12.47zm77.41-66.74h14.25v92.92h-19.74l-9.038-52.35h-0.141l-10.15 52.35h-18.23v-92.92h12.88v60.29h0.275l11.66-60.29h7.255l10.56 60.29h0.416zm23.82 0h15.62v92.92h-15.62zm56.86 0h13.71v92.92h-13.03v-53.32l-16.86 53.32h-15.34v-92.92h13.16v58.38z" fill="#fff"/></g><g transform="translate(886.6 810.1)"><path d="m0 0h37.27v12.74h-21.65v28.24h15.49v12.6h-15.49v26.59h21.65v12.75h-37.27z" fill="#fff"/></g></g></g></svg>
