<svg width="143" height="48" viewBox="0 0 143 48" fill="none" xmlns="http://www.w3.org/2000/svg">
<path d="M51.1973 8.88858L20.5689 39.6163C20.2491 39.9459 19.8673 40.2084 19.4456 40.3887C19.0239 40.569 18.5706 40.6634 18.1122 40.6665C17.6538 40.6696 17.1994 40.5813 16.7753 40.4067C16.3512 40.2321 15.9659 39.9747 15.6418 39.6495C15.3177 39.3243 15.0612 38.9377 14.8872 38.5122C14.7133 38.0867 14.6253 37.6308 14.6285 37.1709C14.6317 36.711 14.7259 36.2563 14.9056 35.8333C15.0854 35.4102 15.3472 35.0272 15.6757 34.7065L46.3025 3.97957C46.9523 3.33287 47.831 2.97077 48.7463 2.97254C49.6616 2.97431 50.5389 3.33979 51.1863 3.98899C51.8336 4.6382 52.1982 5.51824 52.2003 6.4365C52.2023 7.35476 51.8417 8.23645 51.1973 8.88858Z" fill="#3E00FF"/>
<path d="M41.0826 28.8426C40.4323 28.1937 39.5524 27.8294 38.6352 27.8294C37.718 27.8294 36.8381 28.1937 36.1878 28.8426L23.0081 42.0626C22.6845 42.3845 22.4275 42.7672 22.2517 43.189C22.0759 43.6108 21.9849 44.0632 21.9839 44.5204C21.9829 44.9775 22.0718 45.4304 22.2457 45.8529C22.4196 46.2755 22.6749 46.6594 22.9971 46.9827C23.3192 47.306 23.7018 47.5623 24.123 47.7369C24.5441 47.9115 24.9955 48.0009 25.4511 48C25.9068 47.9991 26.3578 47.908 26.7783 47.7318C27.1987 47.5556 27.5804 47.2978 27.9013 46.9733L41.0826 33.7492C41.7288 33.0967 42.0914 32.2144 42.0914 31.2947C42.0914 30.375 41.7288 29.4926 41.0826 28.8402" fill="#3E00FF"/>
<path d="M56.55 13.3218C55.8999 12.6732 55.0203 12.3091 54.1034 12.3091C53.1866 12.3091 52.307 12.6732 51.6568 13.3218L44.449 20.553C43.8041 21.2047 43.4429 22.0862 43.4443 23.0044C43.4458 23.9227 43.8098 24.803 44.4567 25.4527C45.1036 26.1023 45.9807 26.4684 46.896 26.4708C47.8113 26.4731 48.6903 26.1116 49.3405 25.4653L56.5484 18.2341C57.1952 17.5817 57.5583 16.6989 57.5583 15.7788C57.5583 14.8586 57.1952 13.9758 56.5484 13.3234" fill="#3E00FF"/>
<path d="M39.528 1.01312C38.8778 0.364249 37.9981 0 37.081 0C36.1639 0 35.2842 0.364249 34.634 1.01312L30.8474 4.81115C30.1985 5.46235 29.8339 6.34551 29.834 7.26636C29.8341 8.18721 30.1988 9.07031 30.8478 9.72139C31.4969 10.3725 32.3772 10.7382 33.2951 10.7381C34.213 10.7381 35.0932 10.3722 35.7422 9.72098L39.528 5.92213C40.1745 5.26991 40.5374 4.38746 40.5374 3.46762C40.5374 2.54779 40.1745 1.66534 39.528 1.01312Z" fill="#3E00FF"/>
<path d="M27.1273 13.4549C26.4773 12.8061 25.5977 12.4419 24.6807 12.4419C23.7638 12.4419 22.8842 12.8061 22.2342 13.4549L8.36234 27.3684C7.72659 28.0224 7.37329 28.9013 7.37897 29.8148C7.38466 30.7282 7.74889 31.6027 8.39273 32.2486C9.03657 32.8945 9.90817 33.2599 10.8187 33.2656C11.7292 33.2713 12.6053 32.9169 13.2571 32.2791L27.1273 18.3639C27.774 17.7118 28.1371 16.8293 28.1371 15.9094C28.1371 14.9895 27.774 14.107 27.1273 13.4549Z" fill="#3E00FF"/>
<path d="M22.3816 3.49476C21.7313 2.84584 20.8514 2.48157 19.9342 2.48157C19.017 2.48157 18.1371 2.84584 17.4868 3.49476L1.02342 20.0115C0.699926 20.3335 0.442992 20.7163 0.267366 21.1382C0.0917409 21.56 0.000882648 22.0125 6.39908e-06 22.4696C-0.00086985 22.9268 0.0882532 23.3796 0.26226 23.8021C0.436267 24.2246 0.691732 24.6084 1.01399 24.9316C1.33625 25.2548 1.71896 25.511 2.14015 25.6854C2.56135 25.8599 3.01273 25.9491 3.4684 25.9481C3.92407 25.9471 4.37504 25.8557 4.79545 25.6794C5.21585 25.5031 5.5974 25.2452 5.91821 24.9205L22.3816 8.40377C23.0277 7.75134 23.3904 6.86897 23.3904 5.94926C23.3904 5.02956 23.0277 4.14719 22.3816 3.49476Z" fill="#3E00FF"/>
<path d="M7.30595 3.88505C6.65545 3.23652 5.77562 2.87253 4.85855 2.87253C3.94149 2.87253 3.06166 3.23652 2.41116 3.88505L1.05805 5.24008C0.408964 5.89116 0.0442663 6.77426 0.0441895 7.69511C0.0441127 8.61596 0.408663 9.49913 1.05764 10.1503C1.70662 10.8015 2.58687 11.1674 3.50475 11.1675C4.42262 11.1675 5.30293 10.8018 5.95202 10.1507L7.30595 8.79241C7.95272 8.14016 8.31579 7.25754 8.31579 6.3375C8.31579 5.41746 7.95272 4.53484 7.30595 3.88258" fill="#3E00FF"/>
<path d="M65.8694 10.6158C65.8694 9.17618 67.0316 8.21722 68.6763 8.21722C69.386 8.20926 70.084 8.39869 70.6929 8.76449C71.0279 8.97486 71.1753 9.16139 71.1753 9.44735C71.1753 9.8689 70.8158 10.4022 70.3849 10.4022C70.1907 10.3772 70.0044 10.3093 69.8394 10.2033C69.485 9.99659 69.0859 9.87902 68.6763 9.86068C68.0579 9.86068 67.7246 10.1705 67.7246 10.5181C67.7246 11.6208 71.349 11.4483 71.349 14.0909C71.349 15.6415 70.1114 16.5602 68.4421 16.5602C67.6844 16.5767 66.9392 16.3649 66.3027 15.9522C66.1649 15.8824 66.0471 15.7786 65.9604 15.6505C65.8737 15.5224 65.8209 15.3742 65.8071 15.22C65.8071 14.7861 66.2036 14.2528 66.6115 14.2528C66.8185 14.2757 67.0161 14.3521 67.1848 14.4747C67.5565 14.7459 67.9994 14.9016 68.4585 14.9225C69.0769 14.9225 69.4971 14.6242 69.4971 14.1904C69.493 12.9011 65.8694 13.1476 65.8694 10.6158Z" fill="#3E00FF"/>
<path d="M76.0374 8.20898C78.4496 8.20898 80.0075 9.80889 80.0075 12.3899C80.0075 14.971 78.4512 16.5717 76.0374 16.5717C73.6236 16.5717 72.0674 14.971 72.0674 12.3899C72.0674 9.80889 73.6236 8.20898 76.0374 8.20898ZM76.0374 14.934C77.266 14.934 78.0777 14.0161 78.0777 12.3867C78.0777 10.7572 77.2587 9.8434 76.0374 9.8434C74.8162 9.8434 73.9971 10.7613 73.9971 12.3867C73.9971 14.012 74.8162 14.934 76.0374 14.934Z" fill="#3E00FF"/>
<path d="M84.4378 15.7402C84.4378 16.2373 84.1282 16.4847 83.4975 16.4847C82.8668 16.4847 82.5572 16.2381 82.5572 15.7402V10.0333H81.0108C80.5193 10.0333 80.2695 9.7473 80.2695 9.18934C80.2695 8.63139 80.5153 8.35693 81.0108 8.35693H85.9834C86.4748 8.35693 86.7246 8.63057 86.7246 9.18934C86.7246 9.74812 86.4789 10.0333 85.9834 10.0333H84.4378V15.7402Z" fill="#3E00FF"/>
<path d="M87.2341 10.6158C87.2341 9.17617 88.3964 8.2205 90.0411 8.2205C90.751 8.21281 91.4492 8.40222 92.0585 8.76777C92.3918 8.97814 92.5401 9.16467 92.5401 9.45063C92.5401 9.87218 92.1805 10.4055 91.748 10.4055C91.5544 10.3801 91.3687 10.3122 91.2042 10.2066C90.8503 9.9979 90.4511 9.87861 90.0411 9.85903C89.4243 9.85903 89.0893 10.1688 89.0893 10.5164C89.0893 11.6192 92.7137 11.4466 92.7137 14.0893C92.7137 15.6399 91.4769 16.5586 89.8068 16.5586C89.0492 16.5748 88.304 16.363 87.6674 15.9505C87.5296 15.8808 87.4118 15.7769 87.3251 15.6488C87.2384 15.5207 87.1857 15.3726 87.1719 15.2183C87.1719 14.7845 87.5683 14.2512 87.9762 14.2512C88.1818 14.2747 88.3779 14.3511 88.5455 14.473C88.9171 14.7442 89.36 14.8999 89.8191 14.9209C90.4367 14.9209 90.8577 14.6226 90.8577 14.1887C90.8577 12.8978 87.2341 13.1468 87.2341 10.615" fill="#3E00FF"/>
<path d="M95.6216 15.7402C95.6216 16.2373 95.3119 16.4847 94.6813 16.4847C94.0506 16.4847 93.741 16.2381 93.741 15.7402V9.03896C93.741 8.54593 94.0498 8.29941 94.6813 8.29941C95.3128 8.29941 95.6216 8.54593 95.6216 9.03896V15.7402Z" fill="#3E00FF"/>
<path d="M103.933 15.9645C103.933 16.262 103.71 16.4855 103.055 16.4855C102.387 16.4855 102.154 16.262 102.017 15.8404L101.645 14.7097H98.752L98.3925 15.8404C98.2557 16.262 98.0091 16.4855 97.3785 16.4855C96.7601 16.4855 96.5381 16.262 96.5381 15.9645C96.5541 15.7511 96.6039 15.5417 96.6855 15.3441L98.8782 9.28547C98.9726 8.9966 99.1556 8.74505 99.4011 8.5667C99.6465 8.38835 99.9418 8.29233 100.245 8.29233C100.548 8.29233 100.843 8.38835 101.089 8.5667C101.334 8.74505 101.517 8.9966 101.611 9.28547L103.789 15.3416C103.871 15.5394 103.92 15.7487 103.937 15.962L103.933 15.9645ZM101.13 13.132L100.189 10.2444L99.2607 13.1345L101.13 13.132Z" fill="#3E00FF"/>
<path d="M111.775 15.9645C111.775 16.2619 111.553 16.4855 110.898 16.4855C110.23 16.4855 109.997 16.2619 109.859 15.8404L109.488 14.7097H106.595L106.236 15.8404C106.099 16.2619 105.852 16.4855 105.222 16.4855C104.592 16.4855 104.381 16.2619 104.381 15.9645C104.397 15.7511 104.447 15.5417 104.529 15.3441L106.717 9.28793C106.811 8.99917 106.994 8.74776 107.24 8.56953C107.485 8.3913 107.781 8.29535 108.084 8.29535C108.387 8.29535 108.682 8.3913 108.927 8.56953C109.173 8.74776 109.356 8.99917 109.451 9.28793L111.628 15.3441C111.709 15.5417 111.759 15.7511 111.775 15.9645ZM108.969 13.1344L108.03 10.2444L107.101 13.1344H108.969Z" fill="#3E00FF"/>
<path d="M116.874 14.7475C117.365 14.7475 117.615 15.0212 117.615 15.5783C117.615 16.1354 117.369 16.4222 116.874 16.4222H113.633C112.978 16.4222 112.693 16.1379 112.693 15.4805V9.03896C112.693 8.54593 113.003 8.29941 113.633 8.29941C114.263 8.29941 114.573 8.54593 114.573 9.03896V14.7467L116.874 14.7475Z" fill="#3E00FF"/>
<path d="M118.273 10.6159C118.273 9.17619 119.435 8.22052 121.079 8.22052C121.789 8.21255 122.487 8.40198 123.096 8.76779C123.431 8.97815 123.578 9.16468 123.578 9.45065C123.578 9.87219 123.219 10.4055 122.786 10.4055C122.593 10.3803 122.407 10.3124 122.243 10.2066C121.889 9.99879 121.489 9.88009 121.079 9.86069C120.461 9.86069 120.127 10.1705 120.127 10.5181C120.127 11.6208 123.752 11.4483 123.752 14.091C123.752 15.6416 122.514 16.5602 120.845 16.5602C120.087 16.5766 119.342 16.3648 118.706 15.9522C118.568 15.882 118.451 15.7779 118.365 15.6498C118.28 15.5218 118.227 15.3738 118.214 15.22C118.214 14.7861 118.61 14.2528 119.018 14.2528C119.225 14.2757 119.422 14.3521 119.591 14.4747C119.963 14.7459 120.406 14.9016 120.865 14.9225C121.483 14.9225 121.903 14.6243 121.903 14.1904C121.903 12.8994 118.28 13.1484 118.28 10.6167" fill="#3E00FF"/>
<path d="M128.638 11.4844C129.133 11.4844 129.38 11.7583 129.38 12.3061C129.38 12.8395 129.134 13.1131 128.638 13.1131H126.563V14.8009H129.223C129.715 14.8009 129.965 15.0729 129.965 15.6226C129.965 16.156 129.719 16.4279 129.223 16.4279H125.719C125.064 16.4279 124.78 16.1436 124.78 15.4862V9.30684C124.78 8.64945 125.064 8.36267 125.719 8.36267H129.159C129.654 8.36267 129.902 8.63658 129.902 9.1844C129.902 9.7177 129.657 9.99052 129.159 9.99052H126.563V11.4926L128.638 11.4844Z" fill="#3E00FF"/>
<path d="M134.613 15.7402C134.613 16.2373 134.304 16.4847 133.673 16.4847C133.043 16.4847 132.734 16.2381 132.734 15.7402V10.0333H131.187C130.695 10.0333 130.445 9.7473 130.445 9.18934C130.445 8.63139 130.691 8.35693 131.187 8.35693H136.158C136.65 8.35693 136.9 8.63057 136.9 9.18934C136.9 9.74812 136.655 10.0333 136.158 10.0333H134.613V15.7402Z" fill="#3E00FF"/>
<path d="M141.677 11.4844C142.172 11.4844 142.419 11.7583 142.419 12.3061C142.419 12.8395 142.173 13.1131 141.677 13.1131H139.598V14.8009H142.259C142.75 14.8009 143 15.0729 143 15.6226C143 16.156 142.754 16.4279 142.259 16.4279H138.758C138.103 16.4279 137.819 16.1436 137.819 15.4862V9.30684C137.819 8.64945 138.103 8.36267 138.758 8.36267H142.198C142.693 8.36267 142.941 8.63658 142.941 9.1844C142.941 9.7177 142.695 9.99052 142.198 9.99052H139.6V11.4926L141.677 11.4844Z" fill="#3E00FF"/>
<path d="M69.9878 23.1102C70.4825 23.1102 70.7299 23.3842 70.7299 23.932C70.7299 24.4653 70.4842 24.7389 69.9878 24.7389H67.9106V26.4267H70.5693C71.0608 26.4267 71.3114 26.6987 71.3114 27.2485C71.3114 27.7818 71.0657 28.0546 70.5693 28.0546H67.0703C66.415 28.0546 66.1292 27.7694 66.1292 27.1121V20.9327C66.1292 20.2753 66.4142 19.9885 67.0703 19.9885H70.5104C71.0051 19.9885 71.2527 20.2624 71.2533 20.8102C71.2533 21.3435 71.0076 21.6155 70.5104 21.6155H67.9139V23.1176L69.9878 23.1102Z" fill="#3E00FF"/>
<path d="M75.9637 27.3635C75.9637 27.8606 75.6541 28.108 75.0234 28.108C74.3927 28.108 74.0831 27.8615 74.0831 27.3635V21.6591H72.5375C72.046 21.6591 71.7954 21.3731 71.7954 20.8151C71.7954 20.2572 72.0411 19.9827 72.5375 19.9827H77.5093C78.0007 19.9827 78.2505 20.2564 78.2505 20.8151C78.2505 21.3739 78.0048 21.6591 77.5093 21.6591H75.9637V27.3635Z" fill="#3E00FF"/>
<path d="M82.8662 27.3635C82.8662 27.8606 82.5574 28.108 81.9267 28.108C81.296 28.108 80.9864 27.8615 80.9864 27.3635V21.6591H79.44C78.9485 21.6591 78.6987 21.3731 78.6987 20.8151C78.6987 20.2572 78.9445 19.9827 79.44 19.9827H84.4126C84.904 19.9827 85.1538 20.2564 85.1538 20.8151C85.1538 21.3739 84.9081 21.6591 84.4126 21.6591H82.8662V27.3635Z" fill="#3E00FF"/>
<path d="M89.9297 23.1102C90.4244 23.1102 90.6715 23.3842 90.671 23.932C90.671 24.4653 90.4252 24.7389 89.9297 24.7389H87.8525V26.4267H90.5112C91.0027 26.4267 91.2533 26.6987 91.2533 27.2485C91.2533 27.7818 91.0076 28.0546 90.5112 28.0546H87.0122C86.3569 28.0546 86.071 27.7694 86.071 27.1121V20.9327C86.071 20.2753 86.3553 19.9885 87.0122 19.9885H90.4523C90.947 19.9885 91.1946 20.2624 91.1952 20.8102C91.1952 21.3435 90.9494 21.6155 90.4523 21.6155H87.8558V23.1176L89.9297 23.1102Z" fill="#3E00FF"/>
<path d="M97.2654 20.567C97.403 20.1438 97.6495 19.9211 98.3056 19.9211C98.9486 19.9211 99.1706 20.1438 99.1706 20.4437C99.154 20.6566 99.1037 20.8655 99.0215 21.0625L96.783 27.2435C96.7138 27.5273 96.5403 27.7743 96.2973 27.9352C96.0543 28.0961 95.7597 28.159 95.4724 28.1113C95.1837 28.1588 94.8877 28.0961 94.6428 27.9355C94.398 27.7748 94.222 27.528 94.1496 27.2435L91.9242 21.0625C91.8421 20.8655 91.7917 20.6566 91.7751 20.4437C91.7751 20.1438 91.9979 19.9211 92.6761 19.9211C93.3543 19.9211 93.6033 20.1438 93.7409 20.567L95.5232 25.9263L97.2654 20.567Z" fill="#3E00FF"/>
<path d="M103.513 19.834C105.925 19.834 107.483 21.4347 107.483 24.0166C107.483 26.5985 105.927 28.1984 103.513 28.1984C101.1 28.1984 99.5425 26.5968 99.5425 24.0166C99.5425 21.4364 101.099 19.834 103.513 19.834ZM103.513 26.5607C104.742 26.5607 105.554 25.6412 105.554 24.0133C105.554 22.3855 104.735 21.4659 103.513 21.4659C102.291 21.4659 101.472 22.3855 101.472 24.0133C101.472 25.6412 102.291 26.5607 103.513 26.5607ZM102.845 17.6145C102.203 17.6145 101.498 18.1593 101.498 18.6441C101.5 18.8218 101.566 18.9925 101.685 19.1247C101.803 19.257 101.965 19.3417 102.141 19.3631C102.285 19.3566 102.423 19.3043 102.536 19.2136C102.661 19.1048 102.818 19.0398 102.983 19.0287C103.328 19.0287 103.662 19.3631 104.156 19.3631C104.799 19.3631 105.505 18.8167 105.505 18.3335C105.503 18.1558 105.436 17.9848 105.318 17.8525C105.2 17.7202 105.037 17.6356 104.862 17.6145C104.717 17.62 104.579 17.6718 104.466 17.7624C104.342 17.8717 104.186 17.9372 104.021 17.9489C103.674 17.9489 103.341 17.6145 102.845 17.6145Z" fill="#3E00FF"/>
<path d="M111.913 27.3635C111.913 27.8606 111.604 28.108 110.973 28.108C110.343 28.108 110.034 27.8615 110.034 27.3635V21.6591H108.487C107.995 21.6591 107.745 21.3731 107.745 20.8151C107.745 20.2572 107.991 19.9827 108.487 19.9827H113.458C113.95 19.9827 114.2 20.2564 114.2 20.8151C114.2 21.3739 113.955 21.6591 113.458 21.6591H111.913V27.3635Z" fill="#3E00FF"/>
<path d="M118.977 23.1102C119.472 23.1102 119.719 23.3842 119.719 23.932C119.719 24.4653 119.473 24.7389 118.977 24.7389H116.898V26.4267H119.558C120.05 26.4267 120.299 26.6987 120.299 27.2485C120.299 27.7818 120.054 28.0546 119.558 28.0546H116.057C115.402 28.0546 115.118 27.7694 115.118 27.1121V20.9327C115.118 20.2753 115.402 19.9885 116.057 19.9885H119.498C119.992 19.9885 120.24 20.2624 120.24 20.8102C120.24 21.3435 119.995 21.6155 119.498 21.6155H116.898V23.1176L118.977 23.1102Z" fill="#3E00FF"/>
<path d="M124.952 27.3635C124.952 27.8606 124.643 28.108 124.012 28.108C123.381 28.108 123.073 27.8615 123.073 27.3635V21.6591H121.525C121.034 21.6591 120.784 21.3731 120.784 20.8151C120.784 20.2572 121.03 19.9827 121.525 19.9827H126.497C126.989 19.9827 127.239 20.2564 127.239 20.8151C127.239 21.3739 126.994 21.6591 126.497 21.6591H124.952V27.3635Z" fill="#3E00FF"/>
<path d="M132.016 23.1102C132.511 23.1102 132.758 23.3842 132.757 23.932C132.757 24.4653 132.512 24.7389 132.016 24.7389H129.939V26.4267H132.598C133.089 26.4267 133.339 26.6987 133.339 27.2485C133.339 27.7818 133.093 28.0546 132.598 28.0546H129.097C128.442 28.0546 128.157 27.7694 128.157 27.1121V20.9327C128.157 20.2753 128.442 19.9885 129.097 19.9885H132.537C133.032 19.9885 133.28 20.2624 133.28 20.8102C133.28 21.3435 133.034 21.6155 132.537 21.6155H129.941V23.1176L132.016 23.1102Z" fill="#3E00FF"/>
<path d="M71.1887 32.1928C71.3238 31.7713 71.572 31.5469 72.2273 31.5469C72.8694 31.5469 73.093 31.7713 73.093 32.0687C73.0761 32.2821 73.0257 32.4915 72.9439 32.6891L70.7021 38.8677C70.6331 39.1516 70.4597 39.3989 70.2167 39.5599C69.9737 39.721 69.679 39.784 69.3916 39.7363C69.1031 39.7835 68.8075 39.7205 68.563 39.5597C68.3186 39.3989 68.1431 39.152 68.0713 38.8677L65.845 32.6883C65.7634 32.4906 65.7134 32.2813 65.6968 32.0679C65.6968 31.7704 65.9196 31.5461 66.5978 31.5461C67.276 31.5461 67.5249 31.7704 67.6625 32.192L69.4432 37.553L71.1887 32.1928Z" fill="#3E00FF"/>
<path d="M77.4365 31.4598C79.8471 31.4598 81.4058 33.0606 81.4058 35.6424C81.4058 38.2243 79.8495 39.8242 77.4365 39.8242C75.0235 39.8242 73.4648 38.2227 73.4648 35.6424C73.4648 33.0622 75.0211 31.4598 77.4365 31.4598ZM77.4365 38.1865C78.6602 38.1865 79.4768 37.267 79.4768 35.6392C79.4768 34.0113 78.6578 33.0918 77.4365 33.0918C76.2153 33.0918 75.3946 34.0113 75.3946 35.6392C75.3946 37.267 76.2137 38.1865 77.4365 38.1865ZM76.7682 29.2395C76.1252 29.2395 75.42 29.7852 75.42 30.27C75.4222 30.4476 75.4887 30.6184 75.6069 30.7506C75.7251 30.8828 75.8872 30.9675 76.0629 30.989C76.2073 30.9826 76.3459 30.9303 76.4586 30.8394C76.5833 30.7306 76.74 30.6657 76.905 30.6546C77.2506 30.6546 77.584 30.989 78.0787 30.989C78.7217 30.989 79.4269 30.4425 79.4269 29.9594C79.4248 29.7816 79.3585 29.6106 79.2402 29.4782C79.122 29.3458 78.9598 29.261 78.7839 29.2395C78.6396 29.2453 78.5009 29.2974 78.3883 29.3883C78.2643 29.4975 78.1081 29.563 77.9435 29.5748C77.5963 29.5748 77.2629 29.2395 76.7682 29.2395Z" fill="#3E00FF"/>
<path d="M88.5692 39.2408C88.5692 39.5514 88.3456 39.7338 87.6903 39.7338C87.4011 39.7602 87.1108 39.6951 86.8603 39.5478C86.6097 39.4004 86.4114 39.1782 86.293 38.9121L85.093 37.0895C84.9571 37.1018 84.8096 37.1018 84.6728 37.1018C84.4009 37.1018 84.3632 37.0895 84.3149 37.0895V38.9869C84.3149 39.4799 84.0176 39.7314 83.4139 39.7314C82.8103 39.7314 82.5129 39.4848 82.5129 38.9869V32.9061C82.5129 32.4229 82.5252 31.9142 83.2919 31.6899C83.8104 31.5678 84.3418 31.5093 84.8743 31.5157C87.0137 31.5157 88.2759 32.4969 88.2759 34.197C88.292 34.691 88.1681 35.1794 87.9186 35.6056C87.669 36.0317 87.3042 36.3782 86.8663 36.6047L87.9549 38.1183C88.3996 38.7387 88.5733 38.9737 88.5733 39.235L88.5692 39.2408ZM84.7236 35.5866C85.7745 35.5866 86.3683 35.1149 86.3683 34.3203C86.3683 33.5396 85.795 33.1049 84.835 33.1049C84.6479 33.1043 84.4612 33.1211 84.2772 33.1551V35.5611C84.414 35.5734 84.5623 35.5866 84.7236 35.5866Z" fill="#3E00FF"/>
<path d="M93.1838 36.649C92.688 36.649 92.4406 36.3751 92.4417 35.8273C92.4417 35.294 92.6875 35.0204 93.1838 35.0204H94.9653C95.6206 35.0204 95.9048 35.3063 95.9048 35.9645V38.2958C95.9292 38.5396 95.8669 38.7842 95.7288 38.9863C95.5908 39.1885 95.3859 39.3351 95.1504 39.4002C94.5069 39.6457 93.8232 39.7681 93.1347 39.7609C92.5859 39.8004 92.0351 39.7201 91.5202 39.5256C91.0053 39.3312 90.5385 39.0272 90.1518 38.6345C89.7652 38.2418 89.4678 37.7698 89.2803 37.2509C89.0928 36.732 89.0195 36.1785 89.0655 35.6284C89.0175 35.0822 89.0871 34.5319 89.2696 34.015C89.4521 33.4981 89.7431 33.0265 90.1231 32.6323C90.5031 32.2381 90.9631 31.9304 91.4719 31.7301C91.9808 31.5298 92.5266 31.4415 93.0724 31.4713C93.7826 31.4561 94.4848 31.6229 95.1127 31.9561C95.5329 32.1928 95.7934 32.4886 95.7934 32.7992C95.779 33.0221 95.689 33.2334 95.5384 33.3978C95.3877 33.5623 95.1855 33.67 94.9653 33.7031C94.7308 33.6687 94.5089 33.5748 94.3207 33.4303C93.9445 33.2293 93.524 33.1267 93.0978 33.132C91.8479 33.132 90.9952 33.9266 90.9952 35.5898C90.9952 37.3015 91.9102 38.1216 93.2215 38.1216C93.5305 38.1203 93.8381 38.0786 94.1364 37.9975V36.649H93.1838Z" fill="#3E00FF"/>
<path d="M101.683 37.3796C101.771 37.1327 101.813 36.8717 101.806 36.6096V32.2939C101.806 31.7976 102.103 31.5491 102.697 31.5486C103.29 31.548 103.587 31.7965 103.588 32.2939V36.5989C103.603 37.1465 103.506 37.6913 103.303 38.1997C102.796 39.3797 101.72 39.8259 100.371 39.8259C99.0232 39.8259 97.9477 39.3797 97.4407 38.1997C97.2398 37.6949 97.1428 37.1546 97.1557 36.6113V32.2939C97.1557 31.8009 97.4645 31.5486 98.0951 31.5486C98.7258 31.5486 99.0363 31.7951 99.0363 32.2939V36.6113C99.0299 36.8734 99.0718 37.1344 99.1599 37.3812C99.2524 37.636 99.4261 37.853 99.654 37.9987C99.8818 38.1445 100.151 38.2108 100.42 38.1873C100.69 38.2142 100.962 38.1493 101.19 38.0031C101.419 37.857 101.593 37.638 101.683 37.3812" fill="#3E00FF"/>
<path d="M104.665 33.8675C104.665 32.4287 105.827 31.4722 107.472 31.4722C108.182 31.4652 108.88 31.6546 109.489 32.0194C109.823 32.2298 109.971 32.4163 109.971 32.7023C109.971 33.1238 109.611 33.6571 109.179 33.6571C108.985 33.6318 108.799 33.5639 108.635 33.4583C108.281 33.2498 107.882 33.1305 107.472 33.1107C106.853 33.1107 106.52 33.4205 106.52 33.7681C106.52 34.8725 110.145 34.6983 110.145 37.341C110.145 38.8916 108.908 39.8103 107.238 39.8103C106.48 39.8263 105.734 39.6146 105.097 39.2022C104.96 39.1318 104.843 39.0278 104.758 38.8997C104.672 38.7717 104.619 38.6238 104.606 38.47C104.606 38.0361 105.002 37.5028 105.41 37.5028C105.617 37.5257 105.815 37.6021 105.984 37.7247C106.355 37.9957 106.798 38.1515 107.256 38.1725C107.875 38.1725 108.295 37.8743 108.295 37.4404C108.295 36.1495 104.672 36.3984 104.672 33.8667" fill="#3E00FF"/>
<path d="M114.746 38.9918C114.746 39.4849 114.437 39.7363 113.807 39.7363C113.176 39.7363 112.867 39.4898 112.867 38.9918V33.2849H111.32C110.829 33.2849 110.578 32.9989 110.578 32.441C110.578 31.883 110.824 31.6086 111.32 31.6086H116.292C116.783 31.6086 117.034 31.8822 117.034 32.441C117.034 32.9998 116.788 33.2849 116.292 33.2849H114.746V38.9918Z" fill="#3E00FF"/>
<path d="M119.831 38.9918C119.831 39.4848 119.522 39.7363 118.891 39.7363C118.261 39.7363 117.952 39.4898 117.952 38.9918V32.2939C117.952 31.8008 118.261 31.5543 118.891 31.5543C119.522 31.5543 119.831 31.8008 119.831 32.2939V38.9918Z" fill="#3E00FF"/>
<path d="M127.636 39.2408C127.636 39.5506 127.39 39.7338 126.759 39.7338C126.485 39.7602 126.209 39.7062 125.965 39.5784C125.721 39.4506 125.52 39.2545 125.385 39.014L123.096 35.875V38.9885C123.096 39.4816 122.787 39.7338 122.157 39.7338C121.527 39.7338 121.218 39.4873 121.218 38.9885V32.2939C121.218 31.8009 121.526 31.5486 122.157 31.5486C122.788 31.5486 123.096 31.7951 123.096 32.2939V35.1231L125.484 32.1197C125.618 31.9192 125.804 31.7595 126.022 31.658C126.24 31.5566 126.482 31.5173 126.721 31.5445C127.352 31.5445 127.574 31.731 127.574 32.0285C127.529 32.3442 127.375 32.6345 127.141 32.8502L124.829 35.4559L127.278 38.484C127.48 38.6879 127.606 38.9549 127.636 39.2408Z" fill="#3E00FF"/>
</svg>
