<svg width="58" height="48" viewBox="0 0 58 48" fill="none" xmlns="http://www.w3.org/2000/svg">
<g clip-path="url(#clip0_215_6)">
<path d="M51.1973 8.88858L20.5689 39.6163C20.2491 39.9459 19.8673 40.2084 19.4456 40.3887C19.0239 40.569 18.5706 40.6634 18.1122 40.6665C17.6538 40.6696 17.1994 40.5813 16.7753 40.4067C16.3512 40.2321 15.9659 39.9747 15.6418 39.6495C15.3177 39.3243 15.0612 38.9377 14.8872 38.5122C14.7133 38.0867 14.6253 37.6308 14.6285 37.1709C14.6317 36.711 14.7259 36.2563 14.9056 35.8333C15.0854 35.4102 15.3472 35.0272 15.6757 34.7065L46.3025 3.97957C46.9523 3.33287 47.831 2.97077 48.7463 2.97254C49.6616 2.97431 50.5389 3.33979 51.1863 3.98899C51.8336 4.6382 52.1982 5.51824 52.2003 6.4365C52.2023 7.35476 51.8417 8.23645 51.1973 8.88858Z" fill="white"/>
<path d="M41.0826 28.8425C40.4323 28.1936 39.5524 27.8293 38.6352 27.8293C37.718 27.8293 36.8381 28.1936 36.1878 28.8425L23.0081 42.0625C22.6845 42.3844 22.4275 42.7671 22.2517 43.1889C22.0759 43.6107 21.9849 44.0631 21.9839 44.5203C21.9829 44.9774 22.0718 45.4303 22.2457 45.8528C22.4196 46.2754 22.6749 46.6593 22.9971 46.9826C23.3192 47.3059 23.7018 47.5622 24.123 47.7368C24.5441 47.9114 24.9955 48.0008 25.4511 47.9999C25.9068 47.999 26.3578 47.9079 26.7783 47.7317C27.1987 47.5555 27.5804 47.2977 27.9013 46.9732L41.0826 33.7491C41.7288 33.0966 42.0914 32.2143 42.0914 31.2946C42.0914 30.3749 41.7288 29.4925 41.0826 28.8401" fill="white"/>
<path d="M56.55 13.3218C55.8999 12.6732 55.0203 12.3091 54.1034 12.3091C53.1866 12.3091 52.307 12.6732 51.6568 13.3218L44.449 20.553C43.8041 21.2047 43.4429 22.0862 43.4443 23.0044C43.4458 23.9227 43.8098 24.803 44.4567 25.4527C45.1036 26.1023 45.9807 26.4684 46.896 26.4708C47.8113 26.4731 48.6903 26.1116 49.3405 25.4653L56.5484 18.2341C57.1952 17.5817 57.5583 16.6989 57.5583 15.7788C57.5583 14.8586 57.1952 13.9758 56.5484 13.3234" fill="white"/>
<path d="M39.528 1.01312C38.8778 0.364249 37.9981 0 37.081 0C36.1639 0 35.2842 0.364249 34.634 1.01312L30.8474 4.81115C30.1985 5.46235 29.8339 6.34551 29.834 7.26636C29.8341 8.18721 30.1988 9.07031 30.8478 9.72139C31.4969 10.3725 32.3772 10.7382 33.2951 10.7381C34.213 10.7381 35.0932 10.3722 35.7422 9.72098L39.528 5.92213C40.1745 5.26991 40.5374 4.38746 40.5374 3.46762C40.5374 2.54779 40.1745 1.66534 39.528 1.01312Z" fill="white"/>
<path d="M27.1273 13.4549C26.4773 12.8061 25.5977 12.4419 24.6807 12.4419C23.7638 12.4419 22.8842 12.8061 22.2342 13.4549L8.36234 27.3684C7.72659 28.0224 7.37329 28.9013 7.37897 29.8148C7.38466 30.7282 7.74889 31.6027 8.39273 32.2486C9.03657 32.8945 9.90817 33.2599 10.8187 33.2656C11.7292 33.2713 12.6053 32.9169 13.2571 32.2791L27.1273 18.3639C27.774 17.7118 28.1371 16.8293 28.1371 15.9094C28.1371 14.9895 27.774 14.107 27.1273 13.4549Z" fill="white"/>
<path d="M22.3816 3.49476C21.7313 2.84584 20.8514 2.48157 19.9342 2.48157C19.017 2.48157 18.1371 2.84584 17.4868 3.49476L1.02342 20.0115C0.699926 20.3335 0.442992 20.7163 0.267366 21.1382C0.0917409 21.56 0.000882648 22.0125 6.39908e-06 22.4696C-0.00086985 22.9268 0.0882532 23.3796 0.26226 23.8021C0.436267 24.2246 0.691732 24.6084 1.01399 24.9316C1.33625 25.2548 1.71896 25.511 2.14015 25.6854C2.56135 25.8599 3.01273 25.9491 3.4684 25.9481C3.92407 25.9471 4.37504 25.8557 4.79545 25.6794C5.21585 25.5031 5.5974 25.2452 5.91821 24.9205L22.3816 8.40377C23.0277 7.75134 23.3904 6.86897 23.3904 5.94926C23.3904 5.02956 23.0277 4.14719 22.3816 3.49476Z" fill="white"/>
<path d="M7.30619 3.88508C6.65569 3.23655 5.77586 2.87256 4.85879 2.87256C3.94173 2.87256 3.0619 3.23655 2.4114 3.88508L1.05829 5.24011C0.409208 5.89119 0.0445104 6.77429 0.0444336 7.69514C0.0443568 8.61599 0.408907 9.49916 1.05788 10.1503C1.70686 10.8015 2.58711 11.1674 3.50499 11.1675C4.42286 11.1675 5.30317 10.8018 5.95226 10.1507L7.30619 8.79244C7.95296 8.14019 8.31603 7.25757 8.31603 6.33753C8.31603 5.41749 7.95296 4.53487 7.30619 3.88261" fill="white"/>
</g>
<defs>
<clipPath id="clip0_215_6">
<rect width="58" height="48" fill="white"/>
</clipPath>
</defs>
</svg>
